<?xml version="1.0" encoding="UTF-8"?>
<!DOCTYPE svg PUBLIC "-//W3C//DTD SVG 1.1//EN" "http://www.w3.org/Graphics/SVG/1.1/DTD/svg11.dtd">
<!-- Creator: CorelDRAW 2020 (64 Bit) -->
<svg xmlns="http://www.w3.org/2000/svg" xml:space="preserve" width="297mm" height="210mm" version="1.1" style="shape-rendering:geometricPrecision; text-rendering:geometricPrecision; image-rendering:optimizeQuality; fill-rule:evenodd; clip-rule:evenodd"
viewBox="0 0 29700 21000"
 xmlns:xlink="http://www.w3.org/1999/xlink"
 xmlns:xodm="http://www.corel.com/coreldraw/odm/2003">
 <defs>
  <style type="text/css">
   <![CDATA[
    .fil0 {fill:black}
    .fil1 {fill:#FF2D34}
   ]]>
  </style>
 </defs>
 <g id="Camada_x0020_1">
  <metadata id="CorelCorpID_0Corel-Layer"/>
  <g id="_2140448182672">
   <path class="fil0" d="M11533.77 32096.58c-282.09,0 -481.08,-100.04 -740.74,-105.82 3.29,-147.75 73.51,-456.74 102.52,-602.95l222.14 -1188.8c31.45,-136.47 98.62,-477.71 98.62,-642.12 248.29,0 808.56,68.55 974.45,295.4 193.22,264.25 95.95,547.51 20.4,875.81 -43.15,187.48 -70.63,394.8 -103.79,566.41 -73.8,381.79 -131.07,802.07 -573.6,802.07zm2045.86 -1234.57l529.1 0 0 352.73 -564.37 0 0 740.74 670.19 0 0 352.74 -1058.2 -35.28c0,-857.8 70.55,-1607.02 70.55,-2469.13l1058.2 35.27 0 352.73c-262.98,-61.26 -391.77,-35.27 -705.47,-35.27l0 705.47zm4373.9 -881.84l41.3 281.17c-126.24,29.03 -216.42,68.4 -358.76,71.57 0,-98.74 -207.03,-881.84 599.64,-881.84 523.44,0 564.38,496.61 564.38,846.56 0,152.9 -212.04,783.85 -287.32,982.53 -38.39,101.31 -89.06,182.82 -100.69,322.59 223.62,-18.61 476.65,-136 705.47,-141.09 30.2,62.94 63.24,229.7 70.54,317.46 -83.69,40.15 -1025.37,246.91 -1164.02,246.91l-41.3 -281.17c-21.68,-165.02 464.58,-1152.34 464.58,-1517.77 0,-670.65 -516.95,-383.8 -493.82,-246.92zm1657.84 -317.46c0,-370.6 269.95,-599.64 634.92,-599.64 591.59,0 592.96,671.33 811.16,1305.24 95.57,277.62 141.22,392.91 141.22,705.34 0,413.44 -750.23,735.19 -1083.99,237.43 -91.22,-136.03 -139.94,-352.4 -185.85,-519.62 -52.38,-190.8 -317.46,-1002.2 -317.46,-1128.75zm-9770.72 1375.67c0,246.41 -186.63,599.64 -634.92,599.64 -407.67,0 -749.85,-386.49 -529.1,-846.56 114.52,2.55 240.65,33.69 317.46,70.55 -2.87,128.84 -57.08,182.31 -10.62,290.49 94.22,219.39 746.72,261.66 352.02,-526.07 -211.53,-422.18 -476.74,-804.24 -162.01,-1242.89 344.2,-479.72 1084.07,-91.92 1019.91,314.45l-41.31 281.17 -345.81 -40.76c2.4,-138.3 129.79,-416.78 -212.53,-416.78 -327.63,0 -154.23,506.41 -47.31,717.5 104.56,206.44 294.22,522.82 294.22,799.26zm11640.21 -2116.41c459.66,-107.09 275.99,-458.55 634.92,-458.55 73.42,0 189.01,481.8 211.64,564.38 89.17,325.41 529.1,1577.94 529.1,1798.94 -141.99,33.07 -168.83,70.54 -352.73,70.54 -3.66,-164.28 -338.79,-1177.68 -401.28,-1362.39 -49.66,-146.77 -114.52,-312.03 -127.82,-471.82 -128.88,10.72 -290.12,74.79 -423.28,105.82 -41.92,-87.37 -55.55,-130 -70.55,-246.92zm-13227.51 211.64c-130.86,-2.91 -563.24,-160.32 -670.19,-211.64 -50.57,217.04 -192.69,442.45 -211.64,670.2 80.07,38.42 405.88,155.88 493.82,176.36 -23.53,101.03 -65.55,233.55 -105.82,317.46l-530.56 -172.01 -245.45 701.11c112.46,26.2 223.17,68 322.19,101.09 118.14,39.49 229.05,100.66 348,110.56 -40.26,83.91 -82.28,216.43 -105.82,317.46 -143.02,-11.91 -370.24,-104.26 -516.23,-153.96 -165.55,-56.36 -329.76,-148.78 -506.69,-163.5 28.86,-123.91 63.46,-188.52 100.7,-287.31l307.69 -856.33c76.52,-197.61 136.2,-374.67 204.89,-571.12 47.12,-134.76 189.16,-507.02 198,-613.29 225.58,5.03 802.21,299.1 1022.93,317.46 -40.26,83.91 -82.28,216.44 -105.82,317.46zm-2962.96 1093.48c-242.75,0 -574.77,-227.59 -811.29,-352.74 192.33,-363.48 377,-719.14 569.36,-1088.48l559.39 -1098.46c150.8,35.13 256.61,112.44 383.28,181.09 116.77,63.28 253.7,124.31 342.81,221.57 356.23,388.79 -165.03,1043.92 -432.2,1584.35 -130.08,263.12 -234.86,552.67 -611.35,552.67zm18306.87 -1657.85l-351.03 110.93c-54.35,-231.1 -114.5,-379.44 16.44,-586.53 167.3,-264.57 739.89,-426.39 985.54,-34.25 175.12,279.56 234.06,559.19 54.52,827.31 176.72,84.8 304.1,75.64 399.28,270.92 107.53,220.63 165.09,403.27 165.09,646.19 0,524.94 -1100.32,765.43 -1164.02,0 154.84,-36.07 147.4,-91.67 317.46,-105.82 98.32,422.01 573.51,258.09 458.1,-101.37 -186.88,-582.02 -284.06,-430.6 -599.19,-357.19 -36.75,-76.58 -97.51,-217.55 -105.82,-317.46 196.56,-94.31 282.19,-42.22 282.19,-282.18 0,-661.7 -689.35,-551.54 -458.56,-70.55zm-8395.06 317.46c-1954.17,0 -3826.98,-188.08 -5568.78,-745.15 -834.2,-266.79 -1679.69,-532.51 -2462.21,-924.03 -619.86,-310.14 -1227.49,-610.92 -1821.42,-965.18l-1025.99 -667.13c-508.73,-337.03 -954.99,-732.71 -1426.82,-1112.86l-736.39 -674.54c-108.99,-104.92 -186.69,-148.95 -300.72,-263.65l-529.07 -564.41c-764.14,-755.28 -1594.5,-1982.35 -2184.88,-2894.48 -226.74,-350.3 -397.23,-719.45 -613.13,-1080 -440.52,-735.68 -1052.93,-2324.52 -1292.2,-3187.51 -578.49,-2086.44 -768.54,-3379.22 -768.54,-5721.76 0,-1787.34 321,-3306.38 761.1,-4847.36l275.2 -853.55c263.89,-805.88 621.25,-1596.82 1009.09,-2341.88l614.4 -1078.72c300.03,-454.61 573.88,-928.22 902.41,-1355.09l2247.5 -2514.4c336.06,-280.91 630.46,-589.78 1053.36,-921.95 113.44,-89.1 197.97,-166.97 312.12,-252.25l1332.54 -924.96c119.39,-75.08 234.47,-144.45 345.83,-218.54 113.22,-75.33 238.71,-139.74 354.58,-209.79 482.62,-291.78 986.5,-521.09 1491.85,-765.65 2159.63,-1045.14 4852.03,-1670 7324.71,-1670 2095.01,0 3662.72,201.35 5623.37,761.1 569,162.44 1131.12,356.01 1668.33,589.17 276.4,119.95 532.6,213.77 785.9,342.85 616.08,313.97 1258.92,603.92 1841.12,980.75l1023.42 669.7c120.9,80.88 206.44,149.01 325.51,238.86 76.38,57.64 90.47,75.51 155.67,126.52 365.15,285.65 755.98,561.12 1089.5,885.81l1146.48 1111.01c101.97,100.83 183.62,177.71 283.2,281.17 369.08,383.45 704.53,806.3 1023.58,1233.92 398.12,533.61 823.21,1090.49 1141.87,1680 557.02,1030.48 853.55,1495.26 1312.07,2638.54 107.89,269 213.92,537.99 309.61,819.14 195.58,574.56 359.38,1142.98 507.11,1750.39 942.9,3877.1 521.41,8307.33 -1170.14,11917.1l-768.49 1489.01c-142.71,247.9 -270.8,470.98 -425.46,703.29l-683.94 1009.18c-305.22,444.93 -665.08,833.35 -1003.65,1253.85 -459.69,570.92 -1136.24,1202.89 -1690.05,1696.18 -1217.74,1084.67 -2599.02,1992.39 -4065.06,2707.43 -651.6,317.8 -1304.18,567.21 -1985.26,836.61 -541.25,214.08 -1134.03,366.89 -1739.19,518.3 -1132.47,283.34 -2617.05,514.96 -4000.04,514.96zm19223.98 -20423.27c-711.99,0 -831.68,-1199.3 70.55,-1199.3 2.55,114.52 33.69,240.65 70.55,317.46 -362.36,84.42 -352.74,87.51 -352.74,352.73 0,167.16 316.58,293.6 564.6,0.23 102.31,-121 407.23,-510.11 527.07,-601.68 408.59,-312.18 1095.28,-261.65 1095.28,425.09 0,309.48 -272.15,529.1 -634.92,529.1 -2.31,-103.81 -37.36,-283.58 -70.54,-352.74 147.35,0 222.15,-24.81 317.46,-70.54 127.26,-546.27 -399.29,-355.99 -570.42,-147.14 -307.57,375.37 -551.98,746.79 -1016.89,746.79zm-40952.37 -1481.49c73,35.03 1214.18,128.71 1408.26,143.77 615.33,47.77 1025.61,57.05 1025.61,667.52 0,747.06 -969.58,523.66 -1549.03,455.55 -301.93,-35.49 -688.16,-77.64 -990.66,-102.82 0,-497.35 -120.32,-337.32 916.09,-281.16 377.67,20.46 865.05,155.85 1235.59,69.52 92.42,-192.6 100.69,-337.89 -142.81,-386.25 -155.62,-30.91 -473.49,-63.78 -633.86,-71.65 -460.71,-22.6 -815.15,-106.47 -1304.46,-106.47 0,-195.59 31.86,-234.53 35.27,-388.01zm40070.54 -1305.11l2504.41 -176.37c13.38,160.83 71.51,346.58 105.82,493.83 -273.64,63.75 -2124.55,904.97 -2328.04,952.38 -28.01,-120.2 -67.38,-210.39 -70.55,-352.73 151.37,-80.1 337.35,-136.56 493.83,-211.64 -3.65,-163.73 -57.89,-235.83 -70.55,-388.01 -244.26,0 -357.83,35.27 -564.37,35.27 -28.34,-121.63 -66.57,-208.51 -70.55,-352.73zm-39611.98 -811.29c259.25,5.78 2126.59,529.1 2433.86,529.1 -8.1,97.35 -72.53,353.91 -105.82,423.28 -559.32,0 -1247.36,98.25 -1587.3,105.82 40.45,25.67 -21.33,0.93 72.4,33.41l1409.08 319.33c-3.17,142.34 -42.54,232.53 -70.55,352.73l-1812.95 -409.27c-153.68,-34.9 -517.9,-105.68 -620.91,-155.1 127.48,-265.67 -25.63,-344.93 176.4,-387.98l1657.82 -70.58 -1622.58 -388c11.64,-139.87 58.91,-212.87 70.55,-352.74zm39153.43 -846.56l1756.64 -500.85c155.53,-42.16 433.61,-154.94 606.67,-169.34 129.82,270.55 176.37,556.66 176.37,846.56 0,327.14 -540.49,529.1 -917.11,529.1 -408.07,0 32.5,-332.71 -813.67,173.98 -141.2,84.56 -328.72,246.66 -491.44,284.57 -14.79,-177.75 -70.55,-170.5 -70.55,-388 124.57,-29.03 708.98,-402.37 881.83,-493.83l-40.62 -210.47c-336.66,78.51 -651.2,203.88 -982.3,281.02 -57.4,-119.62 -60.97,-252.36 -105.82,-352.74zm-38765.43 -493.83l2363.32 740.75c-4.09,183.64 -56.77,187.23 -70.55,352.73 -126.95,-10.57 -485.42,-131.52 -604.25,-171.76l-1794.34 -568.98c39.61,-82.55 96.53,-241 105.82,-352.74zm38941.79 -599.64l1620.32 -355c101.12,-22.08 149.9,-45.15 249.17,-68.28 51.83,108.02 89.27,244.71 141.1,352.73l-2469.14 493.83c-37.05,-159.04 -139.32,-334.79 -176.37,-493.83 154.05,-35.89 402.07,-208.68 548.98,-297.58 188.61,-114.14 354.06,-197.08 538.08,-308.49l1099.89 -628.5c33,141.65 91.51,180.74 105.82,352.74 -261.19,138.2 -1599.38,872.57 -1657.85,952.38zm-38095.22 -1446.21c150.48,40.18 395.32,234.95 530.75,315.8 225.79,134.8 1474.58,959.66 1585.65,989.31 -139.49,598.73 -214.29,491.27 -823.28,329.46l-1786.95 -435.28c16.25,-195.26 89.57,-157.47 105.82,-352.73l1904.76 493.83 -822.43 -517.96c-287,-171.17 -549.33,-353.59 -835.42,-504.97 55.43,-104.75 85.67,-212.71 141.1,-317.46zm37213.39 740.74c-71.02,-106.05 -142.97,-209.39 -176.37,-352.73 124.38,-65.82 350.84,-209.29 423.28,-317.46 -35.82,-153.77 -105.27,-198.97 -141.09,-352.74l-562.64 181.58c-29.94,-126.29 -89.85,-222.55 -142.83,-322.67l2363.32 -740.74c51.23,0 229.57,358.34 246.91,423.28 -78.74,52.73 -165.09,119.08 -246.66,176.62l-751.04 554.07c-178.72,134.23 -330.29,238.6 -509.01,372.83 -170.02,127.7 -338.13,266.97 -503.87,377.96zm-36437.38 -1516.75c112.26,59.4 543.58,293.07 634.92,317.46 35.98,-154.44 167.32,-374.97 246.91,-493.83 100.71,53.29 157.42,112.02 282.19,141.09 -9.52,114.41 -184.93,411.96 -246.91,529.1 247.46,57.66 412.54,257.44 670.19,317.46 107.37,-202.91 192.74,-413.4 317.46,-599.64 100.12,52.97 196.38,112.88 317.46,141.09 -82.6,156.1 -161.8,309.91 -245.15,460.32l-248.68 492.06 -1656.28 -848.13c-145.5,-84.55 -387.6,-239.07 -565.94,-280.62 168.96,-319.31 325.4,-634.06 493.83,-952.38 121.08,28.21 217.34,88.12 317.46,141.1 -59.4,112.25 -293.07,543.58 -317.46,634.92zm529.1 -1622.58c29.03,-108.72 391.7,-783.99 796.69,-754.03 197.77,14.63 825.88,304.7 825.88,789.3 130.1,10.83 974.91,295.85 1093.48,352.74 -70.93,105.91 -140.72,211.54 -211.64,317.46 -218.22,-104.71 -769.28,-293.64 -1022.93,-352.73 -43.66,82.51 -60.58,91.82 -70.55,211.64 194.41,51.9 614.68,441.32 811.29,493.82 -11.42,137.3 -115.5,237.71 -176.37,352.74l-1029.95 -698.44c-175.23,-116.8 -334.7,-213.75 -506.95,-339.62 -135.13,-98.74 -424.37,-257.43 -508.95,-372.88zm35026.45 776.02c94.02,177.68 284.87,459.76 317.46,599.64 -124.44,65.85 -157.52,127.79 -317.46,141.1 -38.8,-166.53 -367.19,-642.5 -493.83,-881.84 184.01,-97.37 359.03,-212.25 530.7,-315.86l1620.97 -953.98c46.16,198.13 123.33,139.21 141.1,352.73 -164.94,38.43 -315.76,165.22 -456.53,248.94l-1342.41 809.27zm-32874.78 -2574.96c-220.51,-18.35 -277.67,-340.19 -529.1,35.27 154.58,663.51 1058.26,76.38 1579.58,466.28 519.56,388.58 303.7,1121.02 -380.28,1121.02 -175.67,0 -314.23,-138.61 -423.28,-211.64 65.85,-98.34 141.07,-149.98 176.37,-282.18 188.56,50.35 125.17,141.09 352.73,141.09 241.15,0 373.92,-522.11 -174.11,-531.36 -231.12,-3.9 -478.75,13.38 -708.15,2.68 -1029.66,-48.03 -926.27,-1234.99 -211.22,-1234.99 290.86,0 291.53,131.77 458.56,176.37 -14.79,177.69 -97.76,155.17 -141.1,317.46zm352.74 -1375.66l238.68 -255.14 109.9 118.2c39.39,43.01 56.66,64.75 100.93,110.71 77.06,80.02 133.2,132.75 211.86,211.41 266.26,266.25 1148.07,1185.23 1313.94,1296.3l-273.89 290.49 -152.65 -181.41c-0.76,-0.72 -45.72,-39.81 -56.43,-49.4 -86.01,-77.05 -133.03,-124.69 -207.57,-215.7l-312.27 -322.66c-66.15,-65.89 -64.04,-50.83 -128.58,-118.32l-49.17 -56.66c-27.64,-32.51 -21.56,-27.34 -47.94,-57.88 -194.77,-225.57 -620.67,-581.57 -746.81,-769.94zm30229.27 -388.01c100.5,150.09 238.16,252.4 388,352.74 -35.33,151.65 -99.6,207.16 -211.64,282.18 -52.67,-35.27 -146.8,-104.4 -201.13,-151.6 -99,-86.01 -91.95,-131.09 -222.15,-165.86 -44.71,29.94 -421.57,405.65 -458.55,564.38l493.83 423.28 -218.78 239.99c-166.5,-109.35 -239.01,-207.92 -391.28,-335.41 -151.99,-127.26 -314.91,-301.71 -412.87,-327.86 39.04,-146.21 456.96,-525.77 608.18,-696.93 88.38,-100.03 109.71,-145.67 212.13,-246.43l837.54 -926.13 776.01 705.47 -218.77 239.99c-94.77,-61.32 -137.9,-132.72 -234.55,-209.96 -114.18,-91.24 -169.13,-117.71 -252.15,-241.67 -209.97,140.6 -283.85,353.22 -493.82,493.82zm-29276.89 -564.37c78.42,-107.03 539.31,-564.38 811.29,-564.38 204.7,0 374.97,138.6 474.16,266.58 222.26,286.75 1007.32,958.99 1007.32,1250.18 0,509.2 -375.2,546.65 -599.65,881.83 -117.77,-78.86 -347.82,-314.03 -443.67,-438.16 -235.63,-305.17 -1062.37,-1116.67 -1249.45,-1396.05zm27583.77 776.01c-381.82,0 -363.91,-15.74 -760.67,-332.81 -100.27,-80.14 -71.23,-93.57 -191.71,-125.74 32.27,-120.88 100.35,-146.9 176.94,-246.34 61.76,-80.17 116.62,-157.06 180.64,-242.64 127.45,-170.34 255.12,-327.77 387.78,-494.05l771.39 -992.28c1162.51,778.46 746.47,937.56 -156.18,2101.32l-95.25 116.39c-4.82,5.45 -11.48,13.51 -16.41,18.86 -61.25,66.62 -223.31,197.29 -296.53,197.29zm-25714.28 -2363.31c116.16,-77.79 240.19,-207.45 388,-246.92l356.82 313.38c5.01,5.25 12.08,12.94 17.18,18.09 5.1,5.16 12.53,12.5 17.74,17.54 282.54,273.63 1246.71,1192.39 1371.93,1379.39 -58.25,79.51 -189.39,162.54 -282.18,211.64l-380.4 -360.44c-174.02,52.14 -180.62,145.5 -325.07,184.07 14.95,179.7 172.78,389.01 246.91,529.1 -105.91,70.93 -211.54,140.72 -317.46,211.64 -36.9,-138.21 3.49,1.09 -52.13,-124.23l-206.79 -428.13c-28.92,-53.66 -51.33,-86.91 -75.8,-135.85 -28.03,-56.06 -38.42,-88.3 -65.3,-146.34l-693.45 -1422.94zm1516.75 -1093.48c269.54,-62.79 919.35,-723.38 1313,-78.42l379.69 678.5c46.58,89.98 76.84,127.1 129.42,223.32 192.38,352.04 448.09,751.79 -94.89,1080.19l-492.65 248.09 -469.88 -799.97c-57.99,-104.32 -82.85,-175.09 -144.64,-278.63 -113.01,-189.34 -198.27,-352.4 -309.36,-537.2 -109.44,-182.03 -198.09,-367.72 -310.69,-535.88zm2504.41 -917.1c10.18,122.37 190.15,551.89 246.91,670.19 99.38,-52.59 406.75,-201.46 529.1,-211.64 27.88,119.66 74.15,181.52 105.82,317.46 -117,27.26 -389.83,156.61 -493.82,211.64 102.28,213.17 179.9,457.02 282.18,670.19 238.4,-55.54 404.01,-224.76 670.2,-246.91 31.67,135.94 77.94,197.8 105.82,317.46 -264.45,61.61 -762.36,335.52 -987.66,388.01 -36.91,-158.45 -162.74,-414.27 -234.86,-576.42l-717.52 -1716.35c337.77,-78.69 649.89,-309.32 987.66,-388.01 27.88,119.67 74.15,181.52 105.82,317.46 -186.96,89.71 -410.99,156.39 -599.65,246.92zm16119.93 881.83c226.85,52.85 391.4,198.4 599.64,246.91 -31.67,135.95 -77.94,197.8 -105.82,317.46 -327.08,-76.2 -636.34,-314.38 -952.38,-388 16.27,-195.51 378.95,-901.74 478.94,-1143.64l508.72 -1149.13c108.48,57.4 208.91,89.01 317.46,141.09 -11.36,136.44 -136.07,371.77 -200.08,505.39 -78.83,164.55 -154.43,329.87 -222.74,482.73l-322.09 736.11c-37.71,82.25 -78.65,152.32 -101.65,251.08zm-2892.42 -1693.12c0,260.09 11.78,358.77 46.27,588.65 17.25,114.94 59.55,440.4 59.55,575.37 -131.69,-2.93 -274.61,-44.13 -388.01,-70.55 0,-383.91 -70.54,-603.68 -70.54,-1058.2 -326.06,0 -193.31,-177.86 -291.84,413.63 -24.64,147.95 -91.97,385.46 -96.17,574.03 -155.4,-12.94 -86.07,-35.28 -352.73,-35.28l388 -2469.13c655.54,54.55 1227.26,174.44 1058.7,882.33 -19.35,81.25 -27.35,178.42 -51.51,265.95 -43.29,156.88 -155.83,294.24 -301.72,333.2zm1869.49 1657.85c-111.74,-9.3 -270.19,-66.22 -352.74,-105.82 49.47,-212.31 70.55,-293.33 70.55,-564.38 -123.73,-10.29 -297.3,-62.3 -388.01,-105.82 -17.97,77.13 -192,493.83 -246.91,493.83 -130.41,0 -168.85,-58.18 -317.46,-70.55l552.62 -1140.5c100.88,-201.77 177.81,-361.81 275.39,-571.17 269.03,-577.15 222.33,-662.37 759.29,-404.73 -100.41,430.99 -230.94,1946.34 -352.73,2469.14zm-10052.91 -2927.69c89.34,-42.87 883.49,-208.54 1022.93,-211.64 21.44,257.67 162.24,317.68 -91.32,364.79 -55.81,10.36 -154.99,20.02 -246.27,38.36 -109.23,21.94 -155.82,46.56 -262.06,55.4 26.38,113.23 44.14,234.26 74.68,348.6 21.62,80.96 58.22,258.38 66.41,356.87 255.35,0 297.17,-70.55 529.1,-70.55 24.66,105.84 60.85,200.94 70.55,317.46 -151.66,35.33 -356.06,101.97 -529.1,105.82 37.78,162.16 76.08,322.78 109.48,490.17l102.16 532.76c-69.15,33.18 -248.93,68.23 -352.73,70.55 -16.71,-200.73 -442.52,-1998.55 -493.83,-2398.59zm5925.92 670.19c223.77,0 294.5,35.27 529.11,35.27 0,511.74 29.68,317.47 -564.38,317.47 -5.45,244.52 -70.55,441.17 -70.55,740.74l704.93 42.84 -34.73 345.16c-283.16,0 -597.62,-51.13 -884.91,-67.47 -203.43,-11.57 -192.86,-40.68 -175.54,-283.35l213.89 -2224.13c60.79,29.17 927.81,105.82 1058.2,105.82l-35.27 352.73c-714.12,-15.91 -656.93,-260.99 -726.5,261.16 -17.56,131.81 -14.25,237.12 -14.25,373.76zm-3880.06 -670.19c39.64,170.16 70.54,496.88 70.54,705.46 160.02,-3.56 407.6,-57.5 564.38,-70.54 3.46,155.43 35.27,164.92 35.27,352.73 -204.1,0 -293.46,35.28 -529.1,35.28 0,229.61 27.21,554.72 70.55,740.74 890.75,0 611.52,-272.44 740.74,282.18 -349.17,0 -690.28,105.82 -1058.2,105.82 -7.98,-95.78 -26.57,-156.43 -46.07,-271.39l-236.12 -2162.47c324.23,-75.54 741.51,-67.31 1058.2,-141.09l0 352.73c-207.94,4.63 -442.62,70.55 -670.19,70.55zm1446.2 -423.28c365.72,-85.2 1112.02,-127.27 1221.64,400.94 60.47,291.39 48.2,1207.15 48.2,1574.37 0,530.43 -774.84,493.82 -1164.02,493.82l-70.72 -1199.12c-23.98,-444.04 17.63,-858.97 -35.1,-1270.01zm-22081.12 20952.37l0 1410.94c0,847.42 99.81,1650.08 222.22,2493.83 113.7,783.73 265.04,1570.26 447.88,2303.44 175.29,702.88 397.51,1440.78 630.53,2085.52 177.01,489.75 358.99,990.42 580.47,1465.38l447.27 928.4c395.38,748.67 777.62,1475.07 1227.33,2194.18 343.48,549.23 739.8,1073.64 1125.48,1590.57 314.71,421.8 883.56,1125.2 1252.87,1498.45l1710.81 1675.43c82.39,80.02 113.57,86.97 194.07,158.67l948.99 779.4c265.93,198.97 509.43,396.4 792.47,583.19 612.7,404.36 1212.69,816.54 1859.44,1174.07l449.05 256.41c981.24,544.09 2019.53,993.05 3080.66,1363.79 1431.71,500.22 2896.89,868.4 4410.8,1091.84l1855.26 190.6c853.31,47.4 1792.56,37.42 2644.21,0.78 1283.12,-55.19 2959.74,-336.6 4162.57,-634.6 1729.84,-428.56 3370.73,-1087.09 4961.73,-1881.31 167.8,-83.76 286.74,-158.88 434.84,-235.35l1305.32 -775.81c67.75,-44.67 120.78,-71.25 196,-121.46 756.39,-505.03 1481.56,-1045.97 2178.22,-1631.3 672.77,-565.25 1920.1,-1722.1 2408.06,-2353.85 75.53,-97.79 82.87,-102.97 165.2,-187.53 717.15,-736.56 2203.01,-2901.48 2671.55,-3854.02 222.35,-452.03 511.42,-914.35 700.53,-1380.6 598.02,-1474.42 1041.47,-2352.77 1418.57,-4048.8 524.82,-2360.46 667.5,-3665.35 667.5,-6034.44 0,-261.12 -28.58,-423.49 -35.22,-634.97 -19.02,-606.12 -93.63,-1258.31 -178.22,-1867.64 -162.3,-1169.14 -392.46,-2288.85 -734.33,-3392.65 -262.42,-847.29 -568.03,-1695.11 -920.74,-2500.78 -75.14,-171.65 -147.32,-314.45 -217.56,-487.9 -383.79,-947.78 -1032.3,-1966.49 -1570.91,-2838.26 -62.12,-100.55 -78.59,-106.13 -141.61,-211.13 -378.86,-631.24 -1134.39,-1597.93 -1625.27,-2148.98l-1171.55 -1262.31c-676.88,-700.61 -1423.26,-1299.83 -2176.69,-1915.02 -1159.77,-946.96 -2464.72,-1692.54 -3797.36,-2375.48l-469.73 -235.74c-1279.54,-649.15 -3175.3,-1251.82 -4577.23,-1560.33 -2103.43,-462.88 -3515.43,-544.11 -5628.72,-544.11 -835.4,0 -1667.95,100.33 -2498.57,217.48 -1531.29,215.98 -2970.71,576.59 -4393.38,1074l-1467.37 578.48c-570,254.72 -1288.35,578.96 -1819.81,896.24 -161.3,96.29 -284.77,164.99 -449.06,256.41l-639.55 383.37c-102.57,61.25 -121.4,80.14 -211.97,140.76 -481.84,322.5 -947.66,608.41 -1400.32,963l-771.06 604.6c-505.41,391.49 -1189.66,1031.52 -1631.1,1472.96 -236.1,236.1 -416.79,454.13 -652.86,687.52l-945.33 1100.53c-547.97,733.45 -894.52,1165.32 -1440.67,1980.85 -195.12,291.37 -341.39,554 -521.7,853.95l-602.15 1090.98c-24.04,47.97 -33.01,75.31 -56.41,119.95l-499.07 1052.96c-465.53,935.92 -973.14,2543.54 -1227.2,3569.98 -186.65,754.06 -327.93,1471.64 -450.27,2301.05 -126.03,854.41 -226.91,1671.02 -226.91,2524.41z"/>
   <path class="fil1" d="M2045.24 8851.43c0,1113.47 -4.14,1943.69 176.72,3033.16 96.81,583.17 253,1086.08 399.53,1646.33 90.69,346.78 184.32,780.87 517.22,858.43 -4.69,-210.65 -107.24,-574.35 -156.1,-796.27 -61.1,-277.46 -116.44,-499.86 -170.56,-781.83 -134.08,-698.62 -202.44,-1405.65 -202.44,-2196.15 0,-530.75 17.87,-1087.65 86.16,-1571.7 289.09,-2049.36 540.97,-3143.19 1594.86,-5071.8l469.07 -765.5c53.54,-89.14 95.7,-171.1 158.22,-265.05 398.41,-598.69 860.96,-1190.37 1344.31,-1724.47 4.88,-5.39 11.8,-13.21 16.72,-18.56 4.92,-5.34 12.05,-12.97 16.99,-18.28l373.68 -402.34c5.24,-5.02 13.07,-11.94 18.4,-16.87 249.59,-230.75 485.62,-485.46 753.74,-692.47l1176.79 -869.06c1162.98,-780.14 2383.75,-1316.08 3705.92,-1761.45l153.29 -58.35c52.92,-19.18 103.95,-37.01 157.75,-53.89 548.4,-172.08 1122.53,-289.69 1695.41,-385.72 835.49,-140.05 1738.98,-116.37 2599.68,-116.37 1166.2,0 3115.62,347.71 4163.3,810.24 209.26,92.38 368.42,166.26 575.87,270.69 171.35,86.26 351.09,285.82 516.56,330 -45.81,171.57 -229.09,281.73 -357.26,383.48 -432.79,343.6 -911.19,639.77 -1341.05,987 -292.02,235.88 -526.89,488.47 -802.84,749.18 -5.28,4.98 -12.96,12.06 -18.11,17.17l-141.23 176.23c-88.25,131.74 -434.45,610.87 -443.57,720.45 96.8,25.85 140.4,76.97 216.83,135.9 74.99,57.82 130.41,96.18 206.33,146.41 70.17,46.44 144.77,91.75 211.9,140.84 96.37,70.47 86.18,82.8 204.56,148.16 147.57,81.48 291.15,156.56 450.85,254.63l831.18 579.74c567.2,463.16 1058.15,988.56 1481.69,1587.11l723.18 1146.3c337.54,617.88 788.12,1143.35 788.12,2069.02l105.82 0c0,-1192.01 -725.72,-2971.08 -1457.16,-3869.11l-1524.9 -1473.34c-236.17,-192.75 -533.94,-308.77 -752.02,-520.13 -4.64,-4.49 -11.51,-13.1 -15.84,-17.47 -77.19,-77.64 -110.87,-64.24 -198.37,-115.94 -122.41,-72.31 -250.86,-245.43 -390.33,-282.67 158.92,-682.17 1316.14,-1384.43 1985.33,-1647.82 1106.05,-435.35 1835.32,-680.22 3164.58,-680.22 192.43,0 773.87,54.02 881.83,105.82 -9.79,-439.59 -449.17,-783.82 -756.61,-1042.33l-190.67 -162.06c-484.11,-385.7 -1023.95,-709.51 -1567.84,-1007.12l-305.34 -153.21c-92.01,-50.08 -171.93,-95.86 -279.49,-143.79l-2444.31 -1012.48c-128.41,-36.01 -218.67,-44.15 -342.57,-80.71l-1365.02 -363.37c-1072.56,-222.19 -2576.51,-308.28 -3677.5,-191.8l-791.06 90.78c-725.28,90.65 -1433.66,235.04 -2137.9,437.05l-326.26 97.02c-321.28,92.04 -656.58,245.08 -978.49,361.9 -726.2,263.54 -1509.39,648.82 -2160.78,1084.37l-927.02 625.01c-108.21,74.99 -129.97,110.3 -239.26,184.02 -181.02,122.13 -323.55,254.21 -492.19,389.64 -247.1,198.43 -668.97,573.63 -879.7,813.43 -4.8,5.47 -11.66,13.33 -16.51,18.76 -4.85,5.42 -11.74,13.26 -16.64,18.64l-201.51 221.76c-708.06,733.89 -1146.81,1335.83 -1716.71,2198.63l-544.71 972.05c-29.32,56.16 -53.04,90.96 -87.91,159.01 -108.58,211.88 -190.64,369.68 -284.96,596.87 -259.96,626.21 -516.1,1258.92 -690.81,1919.42l-291.8 1436.59c-16.93,111.43 -51.28,220.12 -59.57,363.71 -12.21,211.78 -41.77,249.8 -63.31,395.24l-114.16 1649.51z"/>
   <path class="fil0" d="M17494.97 6241.2c999.09,1492 3260.48,1059.6 3904.6,1386.41 647.1,328.33 776.61,1352.05 1210.63,2316.7l553.59 1210.08c86.5,202.68 196.92,399.98 292.52,589.32 97.14,192.41 187.43,405.27 282.44,599.39 97.89,200 178.41,391.5 272.01,609.82 82.95,193.46 201.79,424.53 221.42,660.42l-1108.33 549.51c-863.84,358.9 -1583.12,596.79 -2545.17,770.52 -1584.17,286.08 -3189.12,233.02 -4641.81,-537.94 -402.43,-213.57 -828.09,-544.5 -1137.28,-873.31 -1221.03,-1298.54 -1462.8,-3345.6 -1222.03,-5025.49l143.16 -985.59 -494.4 881.26 -352.96 1022.71c-536.35,2101.71 -251.61,3602.04 -1416.79,5532.06 -133.49,221.12 -429.28,675.3 -487.17,923.76 205.52,0 316.74,-29.11 507.93,-56.44 1171.67,-167.5 3090.64,-223.43 4223.44,157.52 487.95,164.09 878.15,328.07 1315.2,624.84 930.74,631.98 899.05,951.74 1441.55,1415.59 195.64,167.28 380.61,257.08 730.57,257.08 0,-636.86 315.93,-1684.24 1027.16,-1971.08 521.02,-210.14 445.16,-137.44 846.06,-247.41 547.53,-150.19 805.36,-161.12 1508.52,-396.24 922.51,-308.46 1284.2,-429.53 2201.58,-796.66 330.58,-132.29 1843.6,-743.78 2176.82,-821.41 -31.07,-373.35 -1366.13,-2217.57 -1651.86,-2757.31 -561.53,-1060.7 -801.44,-1628.92 -1071.24,-2773.56 -139.17,-590.41 -28.45,-474.54 -216.46,-450.07 -516.75,67.25 -536.35,-346.79 -809.09,-711.32 -723.51,-966.99 -1421.87,-1494.37 -2642.2,-1802.25 -718.12,-181.17 -1596.3,-150.54 -2276.98,108.86 -373.4,142.31 -583.05,288.02 -785.43,590.23z"/>
   <path class="fil0" d="M6419.14 8216.51c0,1614.02 187.01,2176.1 603.93,3593.6 316.52,1076.15 283.78,1224.66 146.44,2271.42 -20.95,159.7 -17.33,329.79 -36.22,459.49 -35.2,241.76 8.85,280.86 97.13,412.7 364.69,-84.96 503.22,-484.79 530.45,-915.76 37.96,-600.82 104.47,-896.54 104.47,-1588.65 0,-608.24 -122.04,-1472.36 -179.61,-2077.88 -124.96,-1314.35 -390.26,-2636.99 -67.73,-3954.29 146.47,-598.19 332.85,-1102.13 633.52,-1623.98 36.96,-64.14 58.66,-115.1 100.44,-181.74 41,-65.41 75.85,-111.73 111.43,-170.76 440.43,-730.81 881.69,-1286.49 1578.49,-1807.75l660.85 -467.9c92.99,-70.54 248.83,-183.11 301.94,-262.43 -689.61,15.36 -1820.38,594.7 -2301.79,1084.45 -126.99,129.19 -243.16,186.68 -349.12,321.08l-619.89 755.76c-341.07,453.18 -742.98,1274.05 -913.93,1802.12 -219.97,679.51 -400.8,1471.1 -400.8,2350.52z"/>
   <path class="fil0" d="M3703.09 22008.4c0,746.02 85.54,1498.7 523.68,2051.27 336.54,424.44 695.65,721.65 1324.94,862.01 1292.81,288.35 2525.28,-270.6 2525.28,-1678.72l-70.55 0c-24.16,290.34 -212.96,814.88 -431.18,1050.31 -557.15,601.09 -2234.55,845.71 -2836.49,-992.52 -474.08,-1447.77 141.59,-3902.58 1504,-3902.58 564.1,0 884.72,141.62 1206.86,627.35l280.48 530.81c38.3,94.84 61.96,190.53 95.74,292.27 41.07,123.69 77.9,175.26 110.04,313.23l70.55 0c0,-396.69 36.79,-1575.23 -70.55,-1798.94 -154.49,55.92 -107.97,211.64 -211.64,211.64 -355.17,0 -1272.55,-705.81 -2610.64,-35.68 -295.69,148.09 -525.72,317.34 -732.41,572.7 -394.83,487.79 -678.11,1215.93 -678.11,1896.85z"/>
   <path class="fil0" d="M21727.78 21549.84c415.59,96.82 499.51,190.82 493.59,705.7 -2.85,248.22 36.4,334.57 36.71,562.93 1.44,1035 -250.12,2117.61 986.45,2117.61 584.91,0 775.87,-269.49 1058.2,-458.55 0,214.58 35.27,257.3 35.27,458.55 313.98,-6.99 708.96,-134.1 1022.93,-141.09l0 -105.82c-407.75,0 -493.83,-307.11 -493.83,-670.19l0 -2574.96 -1093.47 0 0 105.82c343.97,28.62 529.1,223.02 529.1,599.65l0 1552.03c0,431.52 -146.03,856 -496.47,985.04 -139.2,51.26 -304.89,73.03 -430.07,50.22 -647.03,-117.95 -590.21,-740.37 -590.21,-1458.54l0 -1834.22 -1058.2 0 0 105.82z"/>
   <path class="fil0" d="M10263.93 24830.26c-701.31,0 -1058.2,-890.5 -1058.2,-1516.75 0,-527.88 -2.99,-894.88 281.14,-1341.44 886.85,-1393.89 2316.63,461.16 1528.69,2269.44 -111.88,256.75 -404.14,588.75 -751.63,588.75zm-1728.39 -1798.94c0,569.65 77.83,961.88 484.25,1385.24 1088.98,1134.36 2901.99,282.08 2901.99,-1244.14 0,-835.17 -751.1,-1763.67 -1552.03,-1763.67 -516.85,0 -977.78,75.26 -1365.72,539.03 -207.15,247.64 -468.49,648.65 -468.49,1083.54z"/>
   <path class="fil0" d="M12274.51 19362.89c29.79,357.98 493.83,-199.76 493.83,1058.2 0,525.1 43.35,3652.96 -58.39,3998.04 -66.29,224.81 -201.33,334.59 -470.71,340.59l0 105.82 1587.3 0 0 -105.82c-653.99,-14.57 -493.82,-773.67 -493.82,-1305.12l0 -3597.88c0,-147.2 9.29,-321.23 3.27,-464.24 -14.64,-347.85 -264.42,-29.59 -1061.48,-29.59z"/>
   <path class="fil0" d="M20775.39 22502.22l-1552.02 0c17.64,-792.13 885.84,-1404.62 1339.71,-704.79 126.93,195.72 192.61,468.01 212.31,704.79zm-2222.22 458.56c0,612.21 8.7,1000.01 433.45,1506.58 449.9,536.56 1479.52,620.48 2006.5,227.9 140.06,-104.34 381.92,-449.5 381.92,-676.28 0,-51.58 -43.49,-51.75 -70.55,-70.55 -274.21,1177.03 -2116.4,976.04 -2116.4,-952.38l0 -317.46 2116.4 0c0,-732.01 -476.17,-1269.84 -1093.47,-1269.84 -546.11,0 -832.37,77.74 -1226.23,502.16 -200.06,215.58 -431.62,650.45 -431.62,1049.87z"/>
   <path class="fil0" d="M16084.04 22325.86c0,704.98 737.8,931.33 1235.88,1303.79 435.59,325.72 385.57,1200.61 -318.78,1200.61 -507.37,0 -780.83,-695.23 -881.83,-1128.74 -124.69,91.35 -70.82,156.63 -70.55,529.09 0.15,211.64 0,423.29 0,634.93 218.43,-58.33 1.41,-105.82 317.46,-105.82 148.18,0 877.36,479.02 1420.36,-131.68 320.78,-360.78 352.64,-977.71 67.45,-1356.13 -431.68,-572.79 -1381.99,-529.44 -1381.99,-1263.51 0,-649.85 956.07,-842.69 1234.57,352.73l70.55 0c0,-351.68 -35.27,-603.76 -35.27,-917.11 -136.54,36.46 -122.88,105.82 -176.37,105.82 -254.58,0 -66.83,-141.09 -705.47,-141.09 -444.87,0 -776.01,460.69 -776.01,917.11z"/>
   <path class="fil0" d="M14073.46 21655.66c340.05,0 458.55,229.37 458.55,564.38l0 1940.03c0,383.23 -138.95,599.65 -529.1,599.65l0 105.82 1622.57 0 0 -105.82c-399.31,-33.23 -529.1,-273.56 -529.1,-705.47l0 -2645.5 -850.77 101.6c-153.5,15.89 -159.2,-10.33 -172.15,145.31z"/>
   <path class="fil0" d="M20599.03 31214.74c416.63,0 192.88,-446.61 141.09,-634.92 -41.8,-151.99 -80.97,-269.22 -128.83,-435.54 -106.26,-369.26 -147.75,-728.48 -400.27,-728.48 -410.09,0 -141.74,532.61 -42.75,889.31 85.49,308.04 195.33,909.63 430.76,909.63z"/>
   <path class="fil0" d="M14814.2 -9032.16c603.45,0 436.15,-204.12 422.12,-669.04 -5.2,-172.53 10.57,-359.34 1.33,-530.43 -9.45,-174.88 -35.45,-270.12 -35.45,-493.65 -151.89,-131.64 -63.93,-97.06 -423.28,-105.82 -54.85,259 35.28,1294.17 35.28,1798.94z"/>
   <path class="fil0" d="M3844.18 -7621.23c13.57,163.01 113.3,273.62 188.48,411.18l658.08 1176.12c296.77,-157.02 408.2,-214.93 241.45,-488.36 -90.83,-148.94 -615.87,-1204.76 -770.55,-1204.76 -229.44,0 -155.65,62.62 -317.46,105.82z"/>
   <path class="fil0" d="M4972.93 29768.53c111.11,25.89 207.01,105.82 282.19,105.82 201.47,0 507.85,-711.35 670.42,-1022.7 244.54,-468.35 267.76,-489.23 -141.32,-705.69 -38.36,79.94 -41.61,103.69 -90.74,191.45 -46.25,82.62 -66.98,123.24 -109.21,208.25 -139.65,281.13 -574.75,1065.84 -611.34,1222.87z"/>
   <path class="fil0" d="M422.67 -5046.27c166.92,249.27 277.77,315.81 450.17,502.2l446.55 505.84c89.71,116.2 191.6,258.02 337.84,297.07 366.87,-245.66 170.89,-415.53 -26.6,-608.31 -157.4,-153.65 -721.87,-873.17 -855.23,-873.17 -268.39,0 -163.16,49.43 -352.73,176.37z"/>
   <path class="fil0" d="M11216.31 31708.57c397.93,33.11 420.22,218.2 569.7,-700.15 47.22,-290.14 135.77,-589.55 135.77,-922.43 -122.7,-82.16 -196.48,-125.15 -388.01,-141.09 -20.36,244.75 -313.22,1573.49 -317.46,1763.67z"/>
   <path class="fil0" d="M27089.33 -4799.36c312.04,465.99 592.94,-105.58 662.26,-184.29l635.89 -813.82c94.28,-196.4 -61.91,-293.6 -239.95,-412.82 -220.7,329.58 -662.11,853.29 -937.77,1213.91 -69.93,91.48 -93.4,95.77 -120.43,197.02z"/>
   <path class="fil0" d="M7089.33 18093.05l0 -211.64c123.53,0 285.62,3.75 300.95,114.33 19.12,137.95 -159.32,97.31 -300.95,97.31zm176.37 -388l-176.37 0 0 -141.1 176.37 0c99.33,0 65.31,15.26 105.82,70.55 -41.32,59.45 -5.06,70.55 -105.82,70.55zm-388.01 599.64c518.89,0 705.47,56.16 705.47,-352.73 0,-94.33 -50.92,-104.33 -105.82,-141.09 83.2,-124.26 118.28,-264.47 1,-389.02 -103.71,-110.14 -349.34,-69.54 -600.65,-69.54l0 952.38z"/>
   <path class="fil0" d="M3950 17775.59l-176.36 0 0 -211.64 176.36 0c81.28,0 105.82,24.55 105.82,105.82 0,81.28 -24.54,105.82 -105.82,105.82zm-388 529.1l211.64 0 0 -352.73c272.91,98.79 54.68,352.73 564.37,352.73 -68.73,-102.64 -173.41,-207.7 -246.91,-317.46 96.61,-144.28 176.36,-121.1 176.36,-352.73 0,-353.54 -375.53,-282.19 -705.46,-282.19l0 952.38z"/>
   <polygon class="fil0" points="4408.56,18304.69 5043.48,18304.69 5043.48,18093.05 4584.92,18093.05 4584.92,17916.69 5008.2,17916.69 5008.2,17705.05 4584.92,17705.05 4584.92,17563.95 5043.48,17563.95 5043.48,17352.31 4408.56,17352.31 "/>
   <path class="fil0" d="M5995.86 18022.51c0,422.73 740.74,388.83 740.74,-35.28l0 -634.92 -211.64 0 0 634.92c0,180.15 -317.46,180.15 -317.46,0l0 -634.92 -211.64 0 0 670.2z"/>
   <path class="fil0" d="M5572.58 17810.87l-211.64 0 0 -246.92c292.11,0 317.46,-28.02 317.46,141.1 0,81.27 -24.55,105.82 -105.82,105.82zm-423.28 493.82l211.64 0 0 -282.18c196.49,0 529.1,7.68 529.1,-352.74 0,-368.85 -373.19,-317.46 -740.74,-317.46 32.22,138.3 35.24,876.17 0,952.38z"/>
   <path class="fil0" d="M9875.93 17634.5c92.27,67.6 113.24,189.88 70.54,282.19 -193.53,-102.41 -88.76,-63.23 -70.54,-282.19zm-388.01 670.19l211.64 0c19.92,-85.52 36.91,-141.53 70.55,-211.64l282.18 0c19.93,85.52 36.91,141.54 70.55,211.64l211.64 0c-53.8,-230.94 -302.16,-768.47 -317.46,-952.38l-211.64 0c-45.57,94.98 -309.51,856.79 -317.46,952.38z"/>
   <path class="fil0" d="M14496.74 19503.99c0,118.77 -36.71,458.55 317.46,458.55 463.19,0 357.28,-705.47 70.54,-705.47 -151.15,0 -388,38.57 -388,246.92z"/>
   <path class="fil0" d="M8747.18 17669.77c0,264.64 -55.91,581.07 300.99,649.56 71.69,13.76 154.78,-2.28 240.03,-36.25 119.22,-47.51 135.57,-66.08 164.45,-190.03 -215.12,-113.82 -96.34,-70.53 -249.23,-1.39 -304.4,137.66 -244.6,-208.81 -244.6,-421.89 0,-137.37 122.66,-177.58 278.2,-101.83 126.93,61.82 -61.43,4.57 109.81,66.56 54.17,-77.96 5.78,-43.84 105.82,-70.55 -90.05,-337.23 -705.47,-267.19 -705.47,105.82z"/>
   <path class="fil0" d="M-3034.12 -1025.11c54.82,74.83 528.25,394.8 634.92,423.28 45.55,-170.6 221.41,-274.61 64.19,-450.33 -164.46,-183.8 -586.81,-455.01 -699.11,27.05z"/>
   <path class="fil0" d="M34496.73 3983.71c76.17,326.95 102.51,443.8 471.42,331.36 389.58,-118.74 356.2,-134.82 269.32,-507.73 -267.36,5.96 -496.68,156.06 -740.74,176.37z"/>
   <path class="fil0" d="M18517.9 -9772.9c262.6,0 220.01,79.18 458.55,-35.27 51.35,-220.41 87.46,-410.93 35.28,-634.93 -113.39,-54.4 -179.59,-70.54 -352.74,-70.54 -40.06,171.96 -83.04,619.75 -141.09,740.74z"/>
   <polygon class="fil0" points="7724.25,18304.69 8323.9,18304.69 8323.9,18093.05 7900.62,18093.05 7900.62,17352.31 7724.25,17352.31 "/>
   <polygon class="fil0" points="8429.72,18304.69 8606.09,18304.69 8606.09,17352.31 8429.72,17352.31 "/>
   <path class="fil0" d="M34637.82 5923.74l-105.82 0c2.56,114.53 33.69,240.65 70.55,317.46l952.38 -388c-326.29,0 -560.16,70.54 -917.11,70.54z"/>
   <path class="fil0" d="M2292.15 -6280.84l10.53 -10.51c-0.7,0.68 -14.03,7 -10.53,10.51zm458.56 881.83c112.43,-30.02 47.32,-10.91 136.8,-74.84 52.18,-37.28 94.98,-67.77 145.38,-101.52l-696.86 -714.07c22.52,162.65 358.52,649.39 414.68,890.43z"/>
   <path class="fil0" d="M32803.61 1091.29c44.22,83.58 81.8,143.83 105.82,246.92 123.93,-10.32 150.11,-47.19 237.4,-115.34l609.16 -449.04 -952.38 317.46z"/>
   <path class="fil0" d="M20845.94 -9808.17c0,90.22 55.85,5.66 20.97,0 -0.42,-0.07 -20.97,-98.47 -20.97,0zm-423.28 952.38c159.52,3.55 140.18,35.27 317.46,35.27 0,-408.73 105.82,-660.1 105.82,-952.38l-423.28 917.11z"/>
   <path class="fil0" d="M6242.77 17281.77l211.64 0c73.02,-109.05 105.51,-78.37 141.09,-211.65 -253.18,5.64 -250.95,59.65 -352.73,211.65z"/>
  </g>
 </g>
</svg>
