<?xml version="1.0" encoding="UTF-8"?>
<!DOCTYPE svg PUBLIC "-//W3C//DTD SVG 1.1//EN" "http://www.w3.org/Graphics/SVG/1.1/DTD/svg11.dtd">
<!-- Creator: CorelDRAW 2020 (64 Bit) -->
<svg xmlns="http://www.w3.org/2000/svg" xml:space="preserve" width="297mm" height="210mm" version="1.1" style="shape-rendering:geometricPrecision; text-rendering:geometricPrecision; image-rendering:optimizeQuality; fill-rule:evenodd; clip-rule:evenodd"
viewBox="0 0 29700 21000"
 xmlns:xlink="http://www.w3.org/1999/xlink"
 xmlns:xodm="http://www.corel.com/coreldraw/odm/2003">
 <defs>
  <style type="text/css">
   <![CDATA[
    .fil1 {fill:#AA9A9A}
    .fil0 {fill:#FDFDFD}
   ]]>
  </style>
   <clipPath id="id0">
    <rect x="224.14" y="-4118.19" width="29250.65" height="29250.65"/>
   </clipPath>
 </defs>
 <g id="Camada_x0020_1">
  <metadata id="CorelCorpID_0Corel-Layer"/>
  <g style="clip-path:url(#id0)">
   <image x="224.14" y="-4118.19" width="29250.65" height="29250.65" xlink:href="Logo Coliseu branca svg_Images\Logo Coliseu branca svg_ImgID1.png"/>
  </g>
  <g id="_2104716005056">
   <path class="fil0" d="M6554.17 9455.94c0,1460.69 23.65,1694.66 373.32,3031.63 58.76,224.67 119.41,505.9 335.09,556.14 -8.95,-401.34 -342.78,-1057.89 -342.78,-2445.17 0,-343.85 11.58,-704.64 55.81,-1018.23 63.68,-451.41 115.59,-924.68 243.98,-1355.66l425.11 -1197.39c210.84,-507.98 478.44,-951.36 765.02,-1383.08 75.6,-113.88 144.3,-195.68 219.46,-306.13 76.67,-112.69 154.46,-210.53 233.04,-315.41l253.46 -317.84c3.07,-3.6 7.4,-8.79 10.44,-12.41l149.53 -170.4c3.07,-3.61 7.4,-8.79 10.44,-12.42l1208.1 -1099.96c241.05,-181.8 553.66,-376.96 822.92,-525.35 599.31,-330.29 1221.86,-616.56 1879.49,-817.05l82.99 -31.28c5.28,-2 11.26,-4.3 16.57,-6.28 38.05,-14.12 61.47,-22.51 101.58,-35.53 138.57,-44.98 270.07,-75.23 413.99,-111.61l682.16 -140.51c545.15,-98.05 1141.96,-78.61 1703.85,-78.61 349.76,0 667.33,60.65 984.79,89.25 120.7,10.87 112.79,11.81 217.15,34.22 770.15,165.38 1052.26,165.98 1868.36,576.81 111.01,55.89 227.46,185.17 334.65,213.8 -37.33,160.25 -394.24,369.67 -518.93,463.7 -102.19,77.06 -194.15,131.91 -299.45,203.29 -294.93,199.91 -527.36,455.6 -789.98,695.41 -133.24,121.66 -207.76,293.96 -318.05,436.07 -44.93,57.89 -77.59,82.96 -84.56,166.81 105.11,28.07 293.9,192.5 397.77,264.93l807 518.42c176.29,126.67 487.93,371.44 616.66,525.95l522.66 642.79c2.81,3.9 6.93,9.21 9.75,13.1 2.82,3.89 6.98,9.17 9.78,13.07l721.57 1198c75.43,152.1 159.38,318.09 194.3,491.27 25.15,124.67 -25.3,120.71 79.76,148.76 0,-223.01 -88.65,-500.32 -137.24,-685.43 -223.35,-850.95 -687.72,-1616.6 -1330.72,-2211.36 -49.26,-45.55 -65.82,-48.41 -114.17,-91.49l-477.86 -367.67c-90.11,-62.17 -161.24,-112.6 -257.81,-176.51 -41.03,-27.15 -14.87,-4.92 -54.79,-38.05l-92.1 -78.79c-111.71,-49.68 -215.73,-183.99 -323.27,-212.7 101.75,-436.7 843.74,-892.38 1269.77,-1061.15l408.2 -163.09c149.65,-56.28 294.21,-95.72 457.7,-136.46 352.58,-87.86 795.95,-147.53 1200.74,-147.53 124.67,0 501.36,34.99 571.3,68.55 -3.68,-165.19 -73.89,-254.22 -177.27,-371.18 -267.38,-302.5 -587.45,-526.45 -919.62,-748.58 -112.47,-75.2 -223.29,-135.6 -341.48,-206.97l-264.39 -146.94c-44.81,-22.25 -65.88,-27.3 -109.74,-50.22 -48.54,-25.38 -47.66,-28.09 -87.82,-49.3 -321.12,-169.63 -713.03,-355.54 -1061.78,-469.32l-610.11 -235.41 -1107.42 -286.55c-149.83,-33.56 -328.96,-55.27 -488.32,-82.99 -502.03,-87.34 -1406.77,-99.12 -1912.71,-45.59l-512.48 58.81c-359.76,44.96 -710.39,101.45 -1061.4,195.46 -42,11.25 -62.25,21.28 -104.43,32.68 -507.6,137.22 -987.34,298.75 -1466.97,521.16 -626.7,290.61 -1031.08,545.72 -1598,938.59 -301.18,208.71 -886.57,701.73 -1120.64,981.75l-75.16 84.8c-296.5,306.03 -517.29,578.79 -773.44,917.62 -202.05,267.28 -398.27,566.1 -550.24,866.57l-141.41 269.94c-19,36.38 -34.36,58.93 -56.96,103.01 -70.34,137.27 -123.5,239.5 -184.61,386.69 -324.12,780.78 -507.61,1324.85 -636.59,2174.21 -10.96,72.19 -33.22,142.61 -38.59,235.64l-59.57 511.73c-41.53,286.75 -55.4,525.96 -55.4,812.97zm14396.8 -1074.05c-8.19,43.25 28.77,81.26 14.46,14.46 -0.33,-1.55 0.64,-94.23 -14.46,-14.46z"/>
   <path class="fil0" d="M16563.37 7764.89c187.15,353.69 670.84,566.14 1041.06,672.85 1030.3,296.94 1591.06,-196.84 1955.48,901.03 250.83,755.67 408.12,981.41 676.04,1609.16 145.61,341.16 666.66,1286.57 692.16,1593.04 -477.8,252.82 -979.8,499.53 -1503.39,644.7 -473.17,131.19 -808.94,228.34 -1328.29,271.36 -475.13,39.36 -579.09,71.57 -1071.92,16.78 -474.99,-52.8 -908.77,-148.02 -1335.75,-355.31l-401.81 -238.04c-203.43,-140.73 -290.64,-220.8 -469.63,-398.75l-280.92 -358.95c-432.48,-717.41 -555.31,-1290.35 -555.31,-2209.78 0,-598.69 137.11,-1172.63 137.11,-1325.42 -53.9,39.49 -109.63,163.77 -170.18,264.01 -61.61,102 -100.06,204.1 -149.83,307.21 -214.75,444.86 -381.61,1310.14 -436.1,1803.41 -63.57,575.5 -221.21,1397.71 -405.76,1856.59 -163.47,406.47 -567.73,957.82 -620.59,1184.72 184.69,0 979.63,-114.26 1393.97,-114.26 581.67,0 1098.08,-11.97 1654.24,173.94 424.82,142.01 670.03,263.65 1026.07,527.86 612.39,454.45 644.32,966.4 1250.25,966.4 0,-422.29 204.47,-1081.25 665.32,-1277.1 340.52,-144.72 800.22,-194.5 1142.77,-296.91l3219.37 -1168.24c-19.94,-239.61 -925.1,-1478.98 -1196.02,-2026.12 -287.4,-580.41 -467.64,-1031.13 -595.63,-1689.73 -61.31,-315.48 16.26,-162.95 -143.23,-158.87l-205.62 -40.56c-67.8,-33.66 -57.76,-31.48 -137.13,-182.82 -167.91,-320.19 -466.78,-653.51 -748.48,-874.01 -702.9,-550.17 -1739.72,-784.39 -2589.4,-460.57 -241.91,92.19 -377.74,186.58 -508.85,382.38z"/>
   <path class="fil0" d="M9387.82 9044.6c0,1026.99 106.63,1361.28 391.26,2328.13 29.17,99.08 57.33,225.59 86.17,325.18 172.14,594.53 -20.39,958.46 -20.39,1597.18 0,54.94 37.03,67.17 68.56,114.26 262.4,-61.14 313.91,-314.75 346.93,-612.86 121.89,-1100.77 46.97,-985.75 -4.75,-1991.67l-157.25 -1328.14c-113.64,-1172.08 73.48,-2142.75 751.83,-3105.95 299.01,-424.57 661.99,-817.67 1098.45,-1095.34 92.12,-58.62 358.84,-244.97 409.96,-321.31 -461.65,10.28 -1187.51,393.59 -1491.23,702.57 -138.37,140.76 -254.41,216.53 -431.94,436.44 -69.75,86.39 -127.21,170.01 -195.84,261.2 -224.19,297.87 -476.26,818.59 -591.81,1167.8 -148.02,447.39 -259.95,940.59 -259.95,1522.51z"/>
   <path class="fil1" d="M20905.27 8564.71l6.82 -6.81c-0.46,0.44 -9.1,4.54 -6.82,6.81z"/>
  </g>
 </g>
</svg>
