<?xml version="1.0" encoding="UTF-8"?>
<!DOCTYPE svg PUBLIC "-//W3C//DTD SVG 1.1//EN" "http://www.w3.org/Graphics/SVG/1.1/DTD/svg11.dtd">
<!-- Creator: CorelDRAW 2020 (64 Bit) -->
<svg xmlns="http://www.w3.org/2000/svg" xml:space="preserve" width="297mm" height="210mm" version="1.1" style="shape-rendering:geometricPrecision; text-rendering:geometricPrecision; image-rendering:optimizeQuality; fill-rule:evenodd; clip-rule:evenodd"
viewBox="0 0 29700 21000"
 xmlns:xlink="http://www.w3.org/1999/xlink"
 xmlns:xodm="http://www.corel.com/coreldraw/odm/2003">
 <defs>
  <style type="text/css">
   <![CDATA[
    .fil0 {fill:black}
    .fil1 {fill:#FF2D34}
   ]]>
  </style>
 </defs>
 <g id="Camada_x0020_1">
  <metadata id="CorelCorpID_0Corel-Layer"/>
  <g id="_2104718558672">
   <path class="fil0" d="M13346.04 20296.35c-127.91,0 -218.14,-45.36 -335.87,-47.98 1.49,-66.99 33.33,-207.1 46.48,-273.39l100.73 -539.03c14.26,-61.88 44.71,-216.61 44.71,-291.16 112.59,0 366.63,31.08 441.85,133.94 87.61,119.82 43.5,248.26 9.25,397.12 -19.57,85.01 -32.03,179.01 -47.07,256.82 -33.46,173.12 -59.43,363.68 -260.08,363.68zm927.65 -559.78l239.9 0 0 159.93 -255.9 0 0 335.88 303.89 0 0 159.94 -479.82 -16c0,-388.95 31.99,-728.66 31.99,-1119.57l479.81 15.99 0 159.94c-119.24,-27.78 -177.63,-15.99 -319.87,-15.99l0 319.88zm1983.24 -399.85l18.72 127.49c-57.24,13.16 -98.13,31.01 -162.67,32.45 0,-44.77 -93.87,-399.85 271.89,-399.85 237.35,0 255.91,225.18 255.91,383.85 0,69.33 -96.15,355.42 -130.28,445.51 -17.41,45.93 -40.38,82.89 -45.65,146.27 101.39,-8.44 216.12,-61.67 319.87,-63.98 13.7,28.54 28.68,104.16 31.99,143.95 -37.95,18.2 -464.93,111.95 -527.8,111.95l-18.73 -127.49c-9.83,-74.82 210.66,-522.5 210.66,-688.19 0,-304.09 -234.4,-174.03 -223.91,-111.96zm751.7 -143.95c0,-168.04 122.41,-271.89 287.89,-271.89 268.25,0 268.87,304.4 367.81,591.83 43.33,125.88 64.03,178.16 64.03,319.82 0,187.47 -340.18,333.36 -491.51,107.66 -41.36,-61.68 -63.45,-159.79 -84.27,-235.61 -23.75,-86.52 -143.95,-454.43 -143.95,-511.81zm-4430.3 623.77c0,111.73 -84.62,271.89 -287.89,271.89 -184.84,0 -340,-175.24 -239.9,-383.85 51.92,1.15 109.11,15.27 143.94,31.99 -1.3,58.42 -25.88,82.66 -4.81,131.71 42.72,99.48 338.58,118.65 159.61,-238.53 -95.91,-191.43 -216.17,-364.66 -73.46,-563.56 156.07,-217.52 491.55,-41.68 462.46,142.58l-18.74 127.49 -156.79 -18.48c1.08,-62.71 58.85,-188.98 -96.37,-188.98 -148.56,0 -69.93,229.62 -21.45,325.33 47.41,93.61 133.4,237.06 133.4,362.41zm5277.98 -959.64c208.42,-48.55 125.14,-207.92 287.89,-207.92 33.29,0 85.7,218.46 95.96,255.91 40.44,147.55 239.91,715.48 239.91,815.69 -64.38,14.99 -76.55,31.98 -159.94,31.98 -1.66,-74.49 -153.61,-533.99 -181.95,-617.74 -22.51,-66.55 -51.92,-141.49 -57.95,-213.94 -58.44,4.86 -131.55,33.91 -191.93,47.98 -19.01,-39.61 -25.19,-58.94 -31.99,-111.96zm-5997.7 95.97c-59.33,-1.32 -255.39,-72.7 -303.88,-95.97 -22.93,98.41 -87.37,200.62 -95.96,303.89 36.3,17.42 184.03,70.68 223.91,79.96 -10.67,45.81 -29.73,105.9 -47.98,143.95l-240.57 -77.99 -111.3 317.9c50.99,11.88 101.19,30.83 146.09,45.83 53.57,17.91 103.86,45.65 157.79,50.14 -18.25,38.04 -37.3,98.13 -47.98,143.94 -64.85,-5.4 -167.87,-47.27 -234.07,-69.81 -75.06,-25.55 -149.52,-67.46 -229.75,-74.13 13.09,-56.19 28.78,-85.48 45.66,-130.28l139.52 -388.28c34.69,-89.6 61.75,-169.89 92.9,-258.96 21.37,-61.11 85.77,-229.9 89.78,-278.08 102.28,2.28 363.74,135.62 463.82,143.94 -18.25,38.05 -37.31,98.14 -47.98,143.95zm-1343.48 495.81c-110.07,0 -260.62,-103.2 -367.86,-159.94 87.2,-164.81 170.94,-326.08 258.16,-493.55l253.64 -498.07c68.38,15.93 116.36,50.98 173.79,82.11 52.95,28.69 115.04,56.37 155.44,100.47 161.52,176.28 -74.83,473.34 -195.97,718.38 -58.98,119.31 -106.49,250.6 -277.2,250.6zm8300.81 -751.71l-159.16 50.29c-24.65,-104.78 -51.92,-172.04 7.45,-265.94 75.86,-119.97 335.49,-193.34 446.87,-15.53 79.4,126.76 106.13,253.55 24.72,375.12 80.13,38.45 137.89,34.3 181.04,122.84 48.76,100.04 74.86,182.86 74.86,293 0,238.02 -498.91,347.07 -527.8,0 70.21,-16.35 66.84,-41.56 143.95,-47.98 44.58,191.35 260.04,117.03 207.71,-45.96 -84.73,-263.91 -128.8,-195.25 -271.69,-161.96 -16.66,-34.73 -44.21,-98.65 -47.98,-143.95 89.13,-42.76 127.96,-19.14 127.96,-127.95 0,-300.03 -312.57,-250.08 -207.93,-31.98zm-3806.54 143.94c-886.07,0 -1735.25,-85.28 -2525.03,-337.87 -378.25,-120.97 -761.61,-241.45 -1116.43,-418.98 -281.06,-140.63 -556.58,-277.01 -825.88,-437.64l-465.21 -302.49c-230.67,-152.82 -433.02,-332.23 -646.96,-504.6l-333.9 -305.86c-49.42,-47.57 -84.65,-67.53 -136.35,-119.54l-239.9 -255.92c-346.48,-342.46 -722.98,-898.85 -990.68,-1312.43 -102.81,-158.84 -180.11,-326.22 -278.01,-489.7 -199.74,-333.58 -477.42,-1054 -585.91,-1445.3 -262.31,-946.05 -348.48,-1532.23 -348.48,-2594.4 0,-810.43 145.55,-1499.2 345.1,-2197.92l124.79 -387.02c119.65,-365.41 281.69,-724.04 457.54,-1061.87l278.59 -489.12c136.04,-206.13 260.21,-420.88 409.18,-614.44l1019.07 -1140.09c152.38,-127.37 285.87,-267.42 477.62,-418.04 51.44,-40.4 89.77,-75.71 141.53,-114.37l604.2 -419.4c54.14,-34.05 106.32,-65.5 156.81,-99.1 51.34,-34.15 108.24,-63.36 160.78,-95.12 218.83,-132.3 447.3,-236.28 676.44,-347.17 979.23,-473.89 2200.04,-757.22 3321.22,-757.22 949.93,0 1660.77,91.3 2549.78,345.1 258,73.66 512.88,161.43 756.47,267.15 125.32,54.39 241.49,96.93 356.34,155.46 279.35,142.36 570.83,273.83 834.82,444.69l464.04 303.66c54.82,36.68 93.61,67.57 147.6,108.31 34.63,26.13 41.02,34.24 70.58,57.37 165.57,129.52 342.78,254.42 494.01,401.65l519.84 503.76c46.24,45.72 83.26,80.58 128.41,127.49 167.35,173.86 319.46,365.59 464.12,559.49 180.52,241.95 373.27,494.46 517.75,761.75 252.57,467.25 387.03,678 594.93,1196.39 48.92,121.97 97,243.94 140.39,371.42 88.68,260.52 162.95,518.25 229.93,793.67 427.54,1757.98 236.42,3766.76 -530.57,5403.53l-348.45 675.15c-64.71,112.41 -122.79,213.56 -192.92,318.89l-310.11 457.59c-138.4,201.74 -301.57,377.86 -455.08,568.53 -208.44,258.87 -515.21,545.42 -766.32,769.09 -552.15,491.82 -1178.46,903.4 -1843.2,1227.62 -295.45,144.1 -591.35,257.19 -900.17,379.34 -245.42,97.07 -514.2,166.36 -788.6,235.01 -513.49,128.48 -1186.63,233.5 -1813.72,233.5zm8716.66 -9260.45c-322.84,0 -377.11,-543.79 31.99,-543.79 1.15,51.93 15.27,109.12 31.99,143.94 -164.31,38.28 -159.94,39.68 -159.94,159.94 0,75.8 143.54,133.13 256,0.11 46.39,-54.87 184.65,-231.3 238.99,-272.82 185.26,-141.55 496.63,-118.64 496.63,192.75 0,140.32 -123.4,239.9 -287.89,239.9 -1.05,-47.07 -16.94,-128.58 -31.99,-159.94 66.81,0 100.73,-11.25 143.95,-31.98 57.7,-247.7 -181.05,-161.42 -258.65,-66.72 -139.46,170.2 -250.28,338.61 -461.08,338.61zm-18568.88 -671.74c33.1,15.88 550.54,58.36 638.54,65.19 279.01,21.66 465.04,25.86 465.04,302.67 0,338.73 -439.63,237.44 -702.37,206.56 -136.9,-16.1 -312.03,-35.21 -449.19,-46.63 0,-225.51 -54.56,-152.95 415.38,-127.48 171.24,9.28 392.23,70.67 560.25,31.52 41.9,-87.33 45.65,-153.21 -64.76,-175.13 -70.56,-14.02 -214.69,-28.92 -287.41,-32.49 -208.89,-10.25 -369.61,-48.28 -591.47,-48.28 0,-88.68 14.44,-106.34 15.99,-175.93zm18169.03 -591.77l1135.57 -79.97c6.07,72.92 32.42,157.14 47.98,223.91 -124.08,28.91 -963.33,410.34 -1055.59,431.84 -12.7,-54.51 -30.56,-95.4 -31.99,-159.94 68.63,-36.32 152.96,-61.92 223.91,-95.97 -1.65,-74.23 -26.25,-106.93 -31.99,-175.93 -110.75,0 -162.25,15.99 -255.9,15.99 -12.85,-55.15 -30.18,-94.54 -31.99,-159.93zm-17961.11 -367.86c117.55,2.62 964.25,239.9 1103.58,239.9 -3.67,44.14 -32.89,160.48 -47.98,191.93 -253.61,0 -565.59,44.55 -719.73,47.98 18.34,11.64 -9.67,0.42 32.83,15.15l638.92 144.79c-1.44,64.54 -19.29,105.44 -31.99,159.94l-822.04 -185.57c-69.69,-15.83 -234.83,-47.92 -281.54,-70.33 57.8,-120.46 -11.62,-156.4 79.98,-175.92l751.7 -32 -735.72 -175.93c5.28,-63.42 26.71,-96.52 31.99,-159.94zm17753.19 -383.86l796.51 -227.09c70.52,-19.12 196.61,-70.26 275.08,-76.79 58.87,122.68 79.97,252.41 79.97,383.85 0,148.34 -245.07,239.91 -415.84,239.91 -185.03,0 14.74,-150.86 -368.94,78.89 -64.02,38.34 -149.05,111.84 -222.83,129.03 -6.71,-80.6 -31.99,-77.31 -31.99,-175.93 56.48,-13.16 321.47,-182.44 399.85,-223.91l-18.42 -95.44c-152.65,35.6 -295.27,92.45 -445.4,127.43 -26.03,-54.24 -27.65,-114.43 -47.99,-159.95zm-17577.26 -223.91l1071.59 335.87c-1.85,83.27 -25.74,84.9 -31.99,159.94 -57.56,-4.79 -220.1,-59.63 -273.98,-77.88l-813.6 -257.99c17.96,-37.43 43.77,-109.28 47.98,-159.94zm17657.23 -271.89l734.7 -160.97c45.85,-10.01 67.97,-20.47 112.98,-30.96 23.5,48.98 40.47,110.96 63.98,159.94l-1119.58 223.91c-16.8,-72.11 -63.17,-151.8 -79.97,-223.91 69.85,-16.28 182.31,-94.62 248.92,-134.93 85.52,-51.76 160.54,-89.37 243.98,-139.88l498.72 -284.98c14.97,64.23 41.5,81.95 47.98,159.94 -118.43,62.67 -725.2,395.65 -751.71,431.84zm-17273.37 -655.75c68.23,18.21 179.25,106.53 240.66,143.19 102.37,61.12 668.61,435.13 718.97,448.58 -63.25,271.48 -97.16,222.75 -373.3,149.38l-810.25 -197.36c7.37,-88.54 40.62,-71.41 47.99,-159.94l863.66 223.91 -372.91 -234.85c-130.13,-77.62 -249.08,-160.33 -378.8,-228.97 25.13,-47.5 38.85,-96.45 63.98,-143.94zm16873.53 335.87c-32.21,-48.09 -64.83,-94.95 -79.97,-159.94 56.39,-29.84 159.08,-94.9 191.92,-143.94 -16.24,-69.73 -47.73,-90.22 -63.97,-159.95l-255.12 82.34c-13.57,-57.27 -40.74,-100.91 -64.76,-146.31l1071.59 -335.87c23.23,0 104.09,162.48 111.96,191.93 -35.71,23.9 -74.86,53.99 -111.85,80.08l-340.54 251.23c-81.03,60.86 -149.76,108.19 -230.8,169.05 -77.09,57.9 -153.31,121.05 -228.46,171.38zm-16521.67 -687.74c50.9,26.94 246.48,132.89 287.89,143.95 16.32,-70.03 75.87,-170.02 111.96,-223.92 45.66,24.17 71.38,50.79 127.95,63.98 -4.32,51.87 -83.85,186.79 -111.96,239.9 112.21,26.15 187.06,116.73 303.89,143.95 48.68,-92.01 87.39,-187.45 143.94,-271.89 45.4,24.01 89.04,51.18 143.95,63.97 -37.46,70.78 -73.37,140.52 -111.16,208.72l-112.76 223.11 -751 -384.56c-65.97,-38.34 -175.75,-108.4 -256.61,-127.24 76.61,-144.78 147.54,-287.5 223.91,-431.84 54.9,12.8 98.55,39.96 143.95,63.98 -26.94,50.9 -132.89,246.48 -143.95,287.89zm239.91 -735.72c13.16,-49.29 177.61,-355.48 361.24,-341.89 89.67,6.63 374.48,138.15 374.48,357.88 58.99,4.92 442.05,134.15 495.81,159.95 -32.16,48.02 -63.81,95.91 -95.96,143.94 -98.95,-47.48 -348.82,-133.14 -463.83,-159.94 -19.79,37.42 -27.47,41.64 -31.99,95.97 88.15,23.53 278.71,200.1 367.86,223.91 -5.18,62.25 -52.37,107.78 -79.97,159.94l-467 -316.69c-79.46,-52.96 -151.77,-96.92 -229.87,-153.99 -61.27,-44.78 -192.42,-116.73 -230.77,-169.08zm15881.91 351.87c42.63,80.57 129.17,208.47 143.95,271.89 -56.43,29.86 -71.43,57.95 -143.95,63.98 -17.59,-75.51 -166.49,-291.33 -223.91,-399.85 83.43,-44.15 162.79,-96.24 240.63,-143.22l734.99 -432.56c20.93,89.84 55.92,63.12 63.98,159.94 -74.79,17.43 -143.18,74.92 -207,112.88l-608.69 366.94zm-14906.29 -1167.55c-99.98,-8.32 -125.9,-154.26 -239.9,15.99 70.09,300.85 479.84,34.63 716.22,211.42 235.58,176.19 137.7,508.3 -172.43,508.3 -79.65,0 -142.48,-62.85 -191.93,-95.96 29.86,-44.59 63.97,-68.01 79.97,-127.95 85.5,22.83 56.76,63.97 159.94,63.97 109.35,0 169.55,-236.73 -78.94,-240.93 -104.8,-1.77 -217.08,6.07 -321.1,1.22 -466.87,-21.78 -419.99,-559.98 -95.77,-559.98 131.88,0 132.19,59.75 207.92,79.97 -6.7,80.57 -44.32,70.36 -63.98,143.95zm159.95 -623.76l108.22 -115.69 49.83 53.59c17.86,19.51 25.69,29.36 45.77,50.2 34.94,36.29 60.39,60.19 96.06,95.86 120.73,120.73 520.56,537.42 595.77,587.78l-124.19 131.71 -69.21 -82.25c-0.35,-0.33 -20.73,-18.05 -25.59,-22.4 -39,-34.94 -60.32,-56.54 -94.12,-97.81l-141.59 -146.3c-29.99,-29.87 -29.04,-23.05 -58.3,-53.65l-22.29 -25.69c-12.54,-14.74 -9.78,-12.4 -21.74,-26.24 -88.32,-102.28 -281.43,-263.7 -338.62,-349.11zm13706.74 -175.94c45.57,68.06 107.99,114.45 175.93,159.94 -16.02,68.77 -45.16,93.93 -95.96,127.95 -23.89,-15.99 -66.57,-47.34 -91.2,-68.74 -44.89,-39 -41.69,-59.44 -100.73,-75.2 -20.27,13.57 -191.15,183.93 -207.92,255.9l223.92 191.93 -99.2 108.81c-75.5,-49.58 -108.38,-94.27 -177.42,-152.08 -68.92,-57.7 -142.79,-136.8 -187.21,-148.66 17.7,-66.29 207.2,-238.4 275.77,-316.01 40.07,-45.35 49.74,-66.05 96.18,-111.73l379.77 -419.93 351.86 319.87 -99.2 108.82c-42.97,-27.8 -62.52,-60.18 -106.35,-95.2 -51.77,-41.37 -76.69,-53.37 -114.33,-109.58 -95.21,63.75 -128.7,160.16 -223.91,223.91zm-13274.91 -255.9c35.56,-48.53 244.54,-255.9 367.86,-255.9 92.82,0 170.02,62.84 215,120.87 100.77,130.02 456.74,434.83 456.74,566.87 0,230.88 -170.12,247.86 -271.9,399.84 -53.4,-35.76 -157.71,-142.39 -201.17,-198.67 -106.84,-138.37 -481.7,-506.33 -566.53,-633.01zm12507.2 351.86c-173.12,0 -165,-7.13 -344.9,-150.9 -45.47,-36.34 -32.3,-42.43 -86.93,-57.01 14.63,-54.81 45.5,-66.61 80.23,-111.7 28,-36.35 52.88,-71.22 81.91,-110.02 57.79,-77.24 115.67,-148.62 175.83,-224.02l349.76 -449.92c527.12,352.97 338.47,425.11 -70.81,952.79l-43.19 52.78c-2.19,2.47 -5.21,6.12 -7.44,8.55 -27.77,30.21 -101.26,89.45 -134.46,89.45zm-11659.52 -1071.58c52.67,-35.27 108.9,-94.07 175.92,-111.96l161.8 142.09c2.27,2.38 5.47,5.87 7.79,8.21 2.31,2.33 5.68,5.66 8.04,7.95 128.11,124.07 565.29,540.66 622.07,625.45 -26.41,36.05 -85.88,73.7 -127.95,95.96l-172.48 -163.43c-78.91,23.64 -81.9,65.97 -147.4,83.46 6.78,81.48 78.35,176.39 111.96,239.91 -48.02,32.16 -95.92,63.81 -143.95,95.96 -16.73,-62.66 1.59,0.5 -23.63,-56.33l-93.77 -194.12c-13.11,-24.33 -23.27,-39.41 -34.37,-61.6 -12.71,-25.42 -17.42,-40.04 -29.61,-66.35l-314.42 -645.2zm687.73 -495.81c122.22,-28.48 416.86,-328 595.35,-35.56l172.16 307.65c21.12,40.8 34.84,57.63 58.68,101.26 87.23,159.62 203.18,340.88 -43.02,489.78l-223.38 112.49 -213.06 -362.72c-26.29,-47.31 -37.57,-79.39 -65.58,-126.34 -51.25,-85.85 -89.9,-159.79 -140.28,-243.58 -49.62,-82.54 -89.81,-166.74 -140.87,-242.98zm1135.56 -415.84c4.62,55.48 86.22,250.24 111.96,303.88 45.06,-23.85 184.43,-91.35 239.91,-95.96 12.64,54.25 33.62,82.3 47.98,143.94 -53.05,12.36 -176.76,71.01 -223.91,95.96 46.38,96.66 81.57,207.23 127.95,303.89 108.09,-25.19 183.19,-101.92 303.88,-111.96 14.36,61.64 35.34,89.69 47.98,143.95 -119.9,27.93 -345.67,152.13 -447.83,175.93 -16.73,-71.85 -73.79,-187.84 -106.49,-261.36l-325.34 -778.24c153.15,-35.68 294.68,-140.26 447.83,-175.94 12.64,54.27 33.62,82.31 47.98,143.95 -84.77,40.68 -186.35,70.91 -271.9,111.96zm7309.2 399.84c102.86,23.97 177.47,89.96 271.9,111.96 -14.36,61.64 -35.34,89.69 -47.99,143.94 -148.3,-34.55 -288.53,-142.54 -431.83,-175.93 7.38,-88.65 171.83,-408.87 217.16,-518.55l230.67 -521.05c49.19,26.03 94.73,40.36 143.95,63.98 -5.15,61.86 -61.7,168.57 -90.73,229.15 -35.74,74.61 -70.02,149.57 -100.99,218.89l-146.05 333.77c-17.09,37.29 -35.66,69.06 -46.09,113.84zm-1311.5 -767.7c0,117.93 5.35,162.67 20.98,266.91 7.83,52.11 27.01,199.69 27.01,260.89 -59.72,-1.33 -124.52,-20.01 -175.94,-31.99 0,-174.08 -31.98,-273.73 -31.98,-479.82 -147.85,0 -87.65,-80.65 -132.33,187.55 -11.17,67.09 -41.7,174.78 -43.61,260.28 -70.46,-5.87 -39.02,-16 -159.93,-16l175.93 -1119.56c297.24,24.73 556.47,79.09 480.04,400.07 -8.78,36.84 -12.4,80.9 -23.36,120.59 -19.63,71.13 -70.65,133.41 -136.81,151.08zm847.68 751.71c-50.67,-4.22 -122.51,-30.03 -159.94,-47.98 22.43,-96.27 31.99,-133 31.99,-255.91 -56.1,-4.66 -134.81,-28.24 -175.94,-47.98 -8.14,34.98 -87.05,223.92 -111.95,223.92 -59.13,0 -76.56,-26.38 -143.95,-31.99l250.58 -517.13c45.74,-91.49 80.62,-164.06 124.87,-258.99 121.98,-261.69 100.81,-300.33 344.28,-183.51 -45.53,195.42 -104.72,882.52 -159.94,1119.57zm-4558.25 -1327.49c40.51,-19.44 400.59,-94.56 463.82,-95.96 9.72,116.83 73.56,144.04 -41.41,165.4 -25.3,4.7 -70.27,9.08 -111.66,17.39 -49.53,9.95 -70.65,21.12 -118.83,25.12 11.97,51.35 20.02,106.22 33.87,158.07 9.8,36.71 26.39,117.16 30.11,161.81 115.78,0 134.74,-31.99 239.91,-31.99 11.18,47.99 27.59,91.12 31.98,143.95 -68.76,16.02 -161.44,46.23 -239.9,47.98 17.13,73.53 34.49,146.36 49.64,222.26l46.32 241.56c-31.35,15.05 -112.87,30.94 -159.94,31.99 -7.57,-91.01 -200.65,-906.19 -223.91,-1087.58zm2686.96 303.88c101.47,0 133.54,15.99 239.92,15.99 0,232.04 13.46,143.95 -255.91,143.95 -2.47,110.87 -31.99,200.04 -31.99,335.87l319.64 19.43 -15.75 156.5c-128.39,0 -270.98,-23.18 -401.24,-30.59 -92.24,-5.25 -87.45,-18.45 -79.6,-128.48l96.99 -1008.48c27.56,13.23 420.69,47.98 479.81,47.98l-15.99 159.94c-323.8,-7.21 -297.87,-118.34 -329.41,118.42 -7.97,59.76 -6.47,107.51 -6.47,169.47zm-1759.32 -303.88c17.98,77.15 31.99,225.3 31.99,319.87 72.56,-1.61 184.82,-26.07 255.9,-31.98 1.57,70.47 16,74.78 16,159.94 -92.55,0 -133.07,15.99 -239.91,15.99 0,104.11 12.34,251.53 31.99,335.87 403.89,0 277.28,-123.53 335.87,127.95 -158.32,0 -312.99,47.98 -479.82,47.98 -3.62,-43.43 -12.05,-70.93 -20.89,-123.05l-107.06 -980.52c147.01,-34.25 336.22,-30.52 479.82,-63.98l0 159.94c-94.29,2.1 -200.7,31.99 -303.89,31.99zm655.75 -191.93c165.83,-38.63 504.22,-57.7 553.92,181.8 27.42,132.12 21.86,547.35 21.86,713.86 0,240.51 -351.34,223.91 -527.8,223.91l-32.07 -543.71c-10.87,-201.34 8,-389.48 -15.91,-575.86zm-10012.16 9500.36l0 639.75c0,384.25 45.26,748.19 100.76,1130.77 51.55,355.37 120.18,712 203.08,1044.44 79.48,318.71 180.24,653.29 285.9,945.63 80.26,222.07 162.78,449.08 263.2,664.44l202.8 420.96c179.28,339.47 352.6,668.84 556.51,994.9 155.74,249.04 335.44,486.82 510.32,721.21 142.7,191.25 400.63,510.19 568.08,679.44l775.73 759.68c37.36,36.28 51.5,39.43 88,71.95l430.29 353.4c120.58,90.21 230.99,179.73 359.33,264.43 277.81,183.35 549.87,370.24 843.12,532.35l203.61 116.27c444.92,246.7 915.71,450.27 1396.85,618.37 649.18,226.82 1313.53,393.76 1999.97,495.07l841.23 86.43c386.91,21.49 812.79,16.96 1198.95,0.35 581.8,-25.02 1342.03,-152.62 1887.42,-287.74 784.36,-194.32 1528.38,-492.92 2249.78,-853.04 76.08,-37.98 130.01,-72.04 197.17,-106.71l591.86 -351.78c30.72,-20.25 54.77,-32.3 88.87,-55.07 342.97,-228.99 671.78,-474.27 987.67,-739.67 305.05,-256.3 870.62,-780.85 1091.87,-1067.3 34.25,-44.34 37.58,-46.69 74.91,-85.03 325.18,-333.98 998.9,-1315.61 1211.35,-1747.52 100.82,-204.96 231.89,-414.59 317.64,-626 271.16,-668.54 472.23,-1066.8 643.22,-1835.83 237.96,-1070.29 302.66,-1661.96 302.66,-2736.17 0,-118.4 -12.96,-192.02 -15.97,-287.91 -8.62,-274.83 -42.46,-570.55 -80.81,-846.84 -73.59,-530.12 -177.95,-1037.82 -332.96,-1538.32 -118.99,-384.18 -257.56,-768.6 -417.49,-1133.92 -34.07,-77.83 -66.8,-142.58 -98.65,-221.22 -174.02,-429.75 -468.07,-891.66 -712.29,-1286.94 -28.17,-45.6 -35.64,-48.13 -64.21,-95.74 -171.79,-286.22 -514.36,-724.54 -736.94,-974.4l-531.21 -572.36c-306.92,-317.68 -645.35,-589.38 -986.97,-868.32 -525.87,-429.38 -1117.57,-767.45 -1721.82,-1077.11l-212.99 -106.89c-580.18,-294.34 -1439.77,-567.61 -2075.44,-707.49 -953.75,-209.89 -1593.99,-246.72 -2552.21,-246.72 -378.79,0 -756.29,45.49 -1132.91,98.61 -694.33,97.93 -1347,261.44 -1992.08,486.98l-665.34 262.3c-258.46,115.5 -584.17,262.52 -825.15,406.38 -73.14,43.66 -129.12,74.81 -203.62,116.26l-289.99 173.83c-46.5,27.77 -55.04,36.34 -96.11,63.83 -218.48,146.23 -429.69,275.87 -634.94,436.65l-349.62 274.14c-229.17,177.51 -539.42,467.72 -739.58,667.88 -107.06,107.05 -188.99,205.91 -296.03,311.74l-428.63 499c-248.47,332.57 -405.6,528.39 -653.24,898.17 -88.47,132.12 -154.8,251.2 -236.55,387.21l-273.03 494.68c-10.91,21.75 -14.97,34.14 -25.58,54.38l-226.29 477.44c-211.09,424.38 -441.25,1153.31 -556.45,1618.73 -84.63,341.91 -148.69,667.28 -204.16,1043.35 -57.15,387.42 -102.89,757.69 -102.89,1144.64z"/>
   <path class="fil1" d="M9043.69 9756.39c0,504.88 -1.88,881.32 80.13,1375.32 43.9,264.42 114.72,492.45 181.16,746.49 41.12,157.24 83.57,354.06 234.52,389.23 -2.13,-95.51 -48.63,-260.42 -70.78,-361.05 -27.71,-125.81 -52.8,-226.65 -77.34,-354.5 -60.79,-316.77 -91.79,-637.36 -91.79,-995.79 0,-240.66 8.1,-493.17 39.07,-712.65 131.08,-929.24 245.29,-1425.21 723.15,-2299.69l212.69 -347.1c24.27,-40.42 43.39,-77.58 71.74,-120.18 180.65,-271.46 390.38,-539.74 609.54,-781.92 2.22,-2.44 5.36,-5.99 7.59,-8.41 2.23,-2.42 5.46,-5.88 7.7,-8.29l169.44 -182.43c2.37,-2.28 5.92,-5.42 8.34,-7.65 113.17,-104.63 220.19,-220.12 341.76,-313.99l533.59 -394.05c527.33,-353.74 1080.86,-596.75 1680.36,-798.69l69.51 -26.46c23.99,-8.69 47.13,-16.78 71.53,-24.43 248.66,-78.03 508.98,-131.36 768.74,-174.9 378.83,-63.5 788.5,-52.76 1178.76,-52.76 528.79,0 1412.71,157.66 1887.75,367.38 94.89,41.89 167.05,75.39 261.12,122.74 77.69,39.11 159.19,129.6 234.22,149.63 -20.77,77.79 -103.88,127.74 -161.99,173.88 -196.24,155.8 -413.16,290.09 -608.07,447.53 -132.41,106.96 -238.9,221.49 -364.03,339.7 -2.39,2.26 -5.87,5.47 -8.21,7.78l-64.04 79.91c-40.01,59.74 -196.99,276.99 -201.12,326.67 43.89,11.72 63.66,34.9 98.31,61.62 34.01,26.22 59.13,43.61 93.56,66.39 31.82,21.06 65.64,41.6 96.08,63.86 43.7,31.95 39.08,37.54 92.75,67.18 66.91,36.95 132.02,70.99 204.43,115.46l376.88 262.87c257.18,210 479.79,448.23 671.84,719.63l327.9 519.76c153.05,280.17 357.36,518.43 357.36,938.15l47.98 0c0,-540.49 -329.06,-1347.16 -660.71,-1754.35l-691.43 -668.05c-107.09,-87.4 -242.11,-140.01 -340.99,-235.84 -2.1,-2.04 -5.22,-5.94 -7.18,-7.93 -35,-35.2 -50.27,-29.12 -89.95,-52.57 -55.5,-32.78 -113.74,-111.28 -176.98,-128.17 72.05,-309.31 596.77,-627.73 900.2,-747.16 501.51,-197.4 832.18,-308.43 1434.9,-308.43 87.25,0 350.89,24.49 399.85,47.98 -4.44,-199.32 -203.67,-355.4 -343.07,-472.62l-86.46 -73.48c-219.5,-174.89 -464.28,-321.71 -710.9,-456.66l-138.44 -69.47c-41.72,-22.7 -77.96,-43.46 -126.73,-65.19l-1108.32 -459.09c-58.22,-16.33 -99.15,-20.02 -155.33,-36.59l-618.93 -164.77c-486.33,-100.74 -1168.26,-139.78 -1667.48,-86.96l-358.69 41.16c-328.86,41.1 -650.05,106.57 -969.38,198.17l-147.93 43.99c-145.68,41.73 -297.71,111.13 -443.67,164.1 -329.28,119.49 -684.4,294.19 -979.76,491.68l-420.33 283.39c-49.07,34.01 -58.93,50.02 -108.49,83.44 -82.08,55.38 -146.71,115.27 -223.17,176.68 -112.04,89.97 -303.33,260.09 -398.88,368.83 -2.18,2.48 -5.29,6.04 -7.49,8.5 -2.2,2.46 -5.32,6.01 -7.54,8.45l-91.37 100.56c-321.05,332.76 -520,605.7 -778.4,996.91l-246.99 440.76c-13.29,25.46 -24.05,41.24 -39.86,72.09 -49.23,96.08 -86.44,167.63 -129.21,270.64 -117.87,283.94 -234.01,570.83 -313.23,870.32l-132.31 651.38c-7.68,50.53 -23.25,99.81 -27.01,164.92 -5.54,96.03 -18.94,113.27 -28.71,179.21l-51.76 747.93z"/>
   <path class="fil0" d="M16049 8572.85c453.02,676.51 1478.39,480.45 1770.45,628.63 293.41,148.87 352.14,613.06 548.93,1050.45l251.02 548.69c39.22,91.9 89.28,181.36 132.63,267.21 44.05,87.24 84.99,183.76 128.07,271.78 44.38,90.68 80.89,177.51 123.33,276.51 37.62,87.72 91.5,192.49 100.4,299.45l-502.54 249.16c-391.69,162.73 -717.83,270.6 -1154.05,349.37 -718.31,129.72 -1446.03,105.66 -2104.72,-243.91 -182.47,-96.84 -375.48,-246.89 -515.67,-395.98 -553.65,-588.8 -663.27,-1516.99 -554.1,-2278.69l64.91 -446.89 -224.17 399.58 -160.05 463.73c-243.19,952.97 -114.08,1633.25 -642.41,2508.38 -60.52,100.26 -194.64,306.19 -220.89,418.85 93.19,0 143.62,-13.2 230.31,-25.59 531.26,-75.95 1401.37,-101.31 1915.02,71.43 221.25,74.4 398.17,148.75 596.34,283.31 422.02,286.56 407.66,431.55 653.64,641.87 88.71,75.85 172.58,116.57 331.26,116.57 0,-288.77 143.25,-763.68 465.74,-893.74 236.24,-95.29 201.85,-62.32 383.63,-112.18 248.26,-68.1 365.17,-73.06 684,-179.67 418.29,-139.86 582.29,-194.76 998.25,-361.23 149.9,-59.98 835.94,-337.25 987.03,-372.45 -14.09,-169.28 -619.44,-1005.5 -749,-1250.23 -254.61,-480.95 -363.39,-738.6 -485.73,-1257.61 -63.1,-267.7 -12.9,-215.17 -98.14,-204.07 -234.31,30.49 -243.2,-157.24 -366.87,-322.53 -328.06,-438.46 -644.71,-677.59 -1198.04,-817.19 -325.61,-82.15 -723.8,-68.26 -1032.44,49.36 -169.31,64.53 -264.37,130.6 -356.14,267.63z"/>
   <path class="fil0" d="M11026.93 9468.5c0,731.84 84.8,986.7 273.84,1629.44 143.52,487.95 128.67,555.29 66.4,1029.92 -9.5,72.41 -7.86,149.53 -16.42,208.34 -15.96,109.62 4.01,127.35 44.04,187.13 165.36,-38.52 228.17,-219.81 240.52,-415.23 17.21,-272.43 47.37,-406.51 47.37,-720.33 0,-275.8 -55.34,-667.61 -81.44,-942.17 -56.66,-595.96 -176.96,-1195.68 -30.71,-1792.98 66.41,-271.23 150.92,-499.73 287.25,-736.35 16.76,-29.09 26.6,-52.19 45.54,-82.41 18.59,-29.66 34.4,-50.66 50.53,-77.43 199.7,-331.36 399.78,-583.32 715.73,-819.68l299.64 -212.16c42.17,-31.98 112.83,-83.02 136.91,-118.99 -312.69,6.97 -825.41,269.65 -1043.69,491.72 -57.58,58.58 -110.26,84.65 -158.3,145.59l-281.08 342.68c-154.65,205.48 -336.88,577.69 -414.4,817.13 -99.74,308.1 -181.73,667.03 -181.73,1065.78z"/>
   <path class="fil0" d="M9795.4 15722.11c0,338.26 38.79,679.55 237.45,930.1 152.6,192.45 315.43,327.21 600.77,390.86 586.19,130.74 1145.02,-122.7 1145.02,-761.18l-31.98 0c-10.96,131.65 -96.57,369.49 -195.51,476.24 -252.63,272.55 -1013.21,383.47 -1286.14,-450.04 -214.96,-656.45 64.2,-1769.53 681.95,-1769.53 255.78,0 401.16,64.22 547.22,284.46l127.18 240.68c17.37,43 28.09,86.39 43.41,132.52 18.62,56.09 35.32,79.47 49.9,142.03l31.99 0c0,-179.87 16.68,-714.25 -31.99,-815.69 -70.05,25.36 -48.96,95.97 -95.97,95.97 -161.04,0 -577,-320.03 -1183.73,-16.18 -134.07,67.15 -238.38,143.89 -332.09,259.68 -179.03,221.17 -307.48,551.33 -307.48,860.08z"/>
   <path class="fil0" d="M17968.27 15514.19c188.44,43.9 226.49,86.52 223.81,319.98 -1.29,112.55 16.5,151.7 16.64,255.25 0.66,469.29 -113.41,960.18 447.28,960.18 265.22,0 351.8,-122.2 479.82,-207.92 0,97.29 15.99,116.66 15.99,207.92 142.37,-3.17 321.46,-60.81 463.83,-63.98l0 -47.98c-184.89,0 -223.92,-139.25 -223.92,-303.88l0 -1167.56 -495.81 0 0 47.99c155.97,12.97 239.91,101.12 239.91,271.89l0 703.73c0,195.67 -66.21,388.14 -225.11,446.65 -63.12,23.24 -138.25,33.11 -195.01,22.77 -293.38,-53.48 -267.61,-335.71 -267.61,-661.34l0 -831.69 -479.82 0 0 47.99z"/>
   <path class="fil0" d="M12770.26 17001.61c-317.99,0 -479.82,-403.77 -479.82,-687.73 0,-239.36 -1.35,-405.76 127.48,-608.24 402.12,-632.03 1050.42,209.1 693.15,1029.02 -50.73,116.42 -183.25,266.95 -340.81,266.95zm-783.7 -815.68c0,258.29 35.29,436.14 219.57,628.1 493.78,514.35 1315.84,127.9 1315.84,-564.12 0,-378.69 -340.57,-799.7 -703.73,-799.7 -234.35,0 -443.35,34.13 -619.25,244.41 -93.93,112.29 -212.43,294.12 -212.43,491.31z"/>
   <path class="fil0" d="M13681.91 14522.56c13.51,162.32 223.92,-90.57 223.92,479.82 0,238.09 19.65,1656.35 -26.48,1812.82 -30.06,101.93 -91.29,151.71 -213.43,154.43l0 47.98 719.72 0 0 -47.98c-296.54,-6.61 -223.91,-350.8 -223.91,-591.78l0 -1631.37c0,-66.74 4.21,-145.65 1.48,-210.5 -6.64,-157.72 -119.89,-13.42 -481.3,-13.42z"/>
   <path class="fil0" d="M17536.43 15946.02l-703.72 0c7.99,-359.17 401.66,-636.89 607.46,-319.57 57.55,88.74 87.33,212.21 96.26,319.57zm-1007.61 207.92c0,277.59 3.94,453.43 196.54,683.13 203.99,243.29 670.85,281.34 909.8,103.33 63.5,-47.31 173.17,-203.81 173.17,-306.64 0,-23.39 -19.72,-23.47 -31.99,-31.99 -124.33,533.7 -959.63,442.56 -959.63,-431.84l0 -143.94 959.63 0c0,-331.91 -215.91,-575.78 -495.81,-575.78 -247.62,0 -377.42,35.25 -556,227.69 -90.72,97.75 -195.71,294.94 -195.71,476.04z"/>
   <path class="fil0" d="M15409.25 15866.05c0,319.66 334.54,422.29 560.38,591.18 197.51,147.69 174.83,544.38 -144.54,544.38 -230.06,0 -354.05,-315.23 -399.85,-511.8 -56.53,41.42 -32.11,71.02 -31.99,239.91 0.07,95.96 0,191.93 0,287.89 99.05,-26.45 0.64,-47.98 143.95,-47.98 67.19,0 397.82,217.2 644.03,-59.71 145.45,-163.59 159.89,-443.32 30.58,-614.9 -195.73,-259.72 -626.63,-240.06 -626.63,-572.91 0,-294.66 433.51,-382.1 559.79,159.94l31.99 0c0,-159.47 -16,-273.77 -16,-415.85 -61.91,16.54 -55.71,47.99 -79.97,47.99 -115.43,0 -30.3,-63.98 -319.88,-63.98 -201.71,0 -351.86,208.89 -351.86,415.84z"/>
   <path class="fil0" d="M14497.6 15562.17c154.19,0 207.92,104 207.92,255.9l0 879.66c0,173.77 -63,271.9 -239.91,271.9l0 47.98 735.72 0 0 -47.98c-181.06,-15.07 -239.91,-124.04 -239.91,-319.88l0 -1199.54 -385.76 46.07c-69.6,7.2 -72.19,-4.68 -78.06,65.89z"/>
   <path class="fil0" d="M17456.47 19896.5c188.91,0 87.45,-202.5 63.97,-287.88 -18.95,-68.92 -36.71,-122.08 -58.42,-197.49 -48.18,-167.43 -66.99,-330.31 -181.49,-330.31 -185.94,0 -64.27,241.5 -19.38,403.23 38.76,139.68 88.57,412.45 195.32,412.45z"/>
   <path class="fil0" d="M14833.47 1647.5c273.62,0 197.76,-92.55 191.4,-303.36 -2.36,-78.23 4.8,-162.93 0.61,-240.51 -4.29,-79.29 -16.08,-122.48 -16.08,-223.83 -68.87,-59.69 -28.99,-44.01 -191.92,-47.98 -24.88,117.44 15.99,586.81 15.99,815.68z"/>
   <path class="fil0" d="M9859.38 2287.26c6.15,73.91 51.37,124.06 85.46,186.44l298.39 533.28c134.56,-71.2 185.09,-97.45 109.48,-221.43 -41.19,-67.54 -279.25,-546.27 -349.39,-546.27 -104.03,0 -70.57,28.39 -143.94,47.98z"/>
   <path class="fil0" d="M10371.18 19240.75c50.38,11.74 93.87,47.99 127.95,47.99 91.36,0 230.28,-322.55 303.99,-463.72 110.88,-212.36 121.41,-221.83 -64.08,-319.98 -17.39,36.25 -18.86,47.01 -41.14,86.81 -20.97,37.46 -30.37,55.88 -49.52,94.42 -63.32,127.48 -260.61,483.28 -277.2,554.48z"/>
   <path class="fil0" d="M8307.97 3454.81c75.69,113.03 125.95,143.2 204.12,227.71l202.48 229.36c40.68,52.69 86.88,117 153.19,134.7 166.35,-111.39 77.48,-188.41 -12.06,-275.82 -71.37,-69.67 -327.32,-395.92 -387.79,-395.92 -121.69,0 -73.98,22.41 -159.94,79.97z"/>
   <path class="fil0" d="M13202.09 20120.42c180.44,15.01 190.54,98.94 258.32,-317.47 21.41,-131.55 61.56,-267.31 61.56,-418.25 -55.63,-37.25 -89.09,-56.75 -175.93,-63.97 -9.23,110.97 -142.02,713.46 -143.95,799.69z"/>
   <path class="fil0" d="M20399.34 3566.77c141.49,211.29 268.85,-47.88 300.28,-83.57l288.33 -369c42.75,-89.06 -28.07,-133.13 -108.8,-187.19 -100.07,149.44 -300.21,386.91 -425.21,550.42 -31.7,41.48 -42.35,43.43 -54.6,89.34z"/>
   <path class="fil0" d="M11330.81 13946.79l0 -95.97c56.02,0 129.51,1.7 136.46,51.84 8.67,62.55 -72.24,44.13 -136.46,44.13zm79.97 -175.93l-79.97 0 0 -63.98 79.97 0c45.04,0 29.62,6.92 47.99,31.99 -18.74,26.95 -2.3,31.99 -47.99,31.99zm-175.93 271.89c235.28,0 319.88,25.46 319.88,-159.94 0,-42.77 -23.09,-47.3 -47.98,-63.97 37.72,-56.34 53.63,-119.92 0.45,-176.39 -47.02,-49.94 -158.4,-31.53 -272.35,-31.53l0 431.83z"/>
   <path class="fil0" d="M9907.36 13802.84l-79.97 0 0 -95.96 79.97 0c36.85,0 47.98,11.13 47.98,47.98 0,36.85 -11.13,47.98 -47.98,47.98zm-175.93 239.91l95.96 0 0 -159.94c123.75,44.8 24.8,159.94 255.9,159.94 -31.16,-46.54 -78.63,-94.18 -111.95,-143.95 43.8,-65.42 79.96,-54.91 79.96,-159.93 0,-160.31 -170.27,-127.95 -319.87,-127.95l0 431.83z"/>
   <polygon class="fil0" points="10115.28,14042.75 10403.17,14042.75 10403.17,13946.79 10195.25,13946.79 10195.25,13866.82 10387.17,13866.82 10387.17,13770.86 10195.25,13770.86 10195.25,13706.88 10403.17,13706.88 10403.17,13610.92 10115.28,13610.92 "/>
   <path class="fil0" d="M10835.01 13914.8c0,191.68 335.87,176.31 335.87,-16l0 -287.88 -95.97 0 0 287.88c0,81.69 -143.94,81.69 -143.94,0l0 -287.88 -95.96 0 0 303.88z"/>
   <path class="fil0" d="M10643.08 13818.84l-95.96 0 0 -111.96c132.45,0 143.94,-12.71 143.94,63.98 0,36.85 -11.13,47.98 -47.98,47.98zm-191.93 223.91l95.97 0 0 -127.95c89.09,0 239.9,3.48 239.9,-159.94 0,-167.25 -169.21,-143.94 -335.87,-143.94 14.61,62.7 15.98,397.27 0,431.83z"/>
   <path class="fil0" d="M12594.33 13738.87c41.84,30.65 51.35,86.09 31.99,127.95 -87.76,-46.44 -40.25,-28.67 -31.99,-127.95zm-175.93 303.88l95.96 0c9.03,-38.78 16.74,-64.17 31.99,-95.96l127.95 0c9.03,38.77 16.73,64.17 31.99,95.96l95.96 0c-24.39,-104.72 -137.01,-348.45 -143.95,-431.83l-95.96 0c-20.66,43.06 -140.34,388.49 -143.94,431.83z"/>
   <path class="fil0" d="M14689.53 14586.54c0,53.86 -16.65,207.92 143.94,207.92 210.02,0 162,-319.88 31.99,-319.88 -68.54,0 -175.93,17.49 -175.93,111.96z"/>
   <path class="fil0" d="M12082.53 13754.86c0,119.99 -25.35,263.47 136.47,294.53 32.51,6.24 70.18,-1.04 108.84,-16.44 54.06,-21.54 61.47,-29.96 74.56,-86.16 -97.54,-51.61 -43.68,-31.98 -113,-0.63 -138.03,62.41 -110.91,-94.68 -110.91,-191.3 0,-62.29 55.62,-80.52 126.14,-46.17 57.56,28.03 -27.85,2.07 49.79,30.18 24.57,-35.35 2.62,-19.88 47.98,-31.99 -40.83,-152.91 -319.87,-121.15 -319.87,47.98z"/>
   <path class="fil0" d="M6740.58 5278.11c24.85,33.93 239.52,179.01 287.89,191.93 20.65,-77.36 100.39,-124.52 29.1,-204.19 -74.57,-83.34 -266.07,-206.32 -316.99,12.26z"/>
   <path class="fil0" d="M23758.05 7549.24c34.53,148.25 46.48,201.23 213.75,150.25 176.65,-53.84 161.51,-61.13 122.12,-230.22 -121.23,2.7 -225.21,70.76 -335.87,79.97z"/>
   <path class="fil0" d="M16512.83 1311.63c119.07,0 99.76,35.91 207.92,-15.99 23.28,-99.94 39.65,-186.33 15.99,-287.89 -51.41,-24.67 -81.43,-31.99 -159.94,-31.99 -18.16,77.97 -37.65,281.01 -63.97,335.87z"/>
   <polygon class="fil0" points="11618.7,14042.75 11890.6,14042.75 11890.6,13946.79 11698.67,13946.79 11698.67,13610.92 11618.7,13610.92 "/>
   <polygon class="fil0" points="11938.58,14042.75 12018.55,14042.75 12018.55,13610.92 11938.58,13610.92 "/>
   <path class="fil0" d="M23822.02 8428.9l-47.98 0c1.16,51.93 15.28,109.12 31.99,143.95l431.83 -175.93c-147.95,0 -253.99,31.98 -415.84,31.98z"/>
   <path class="fil0" d="M9155.65 2895.03l4.77 -4.77c-0.32,0.31 -6.36,3.17 -4.77,4.77zm207.92 399.84c50.98,-13.61 21.46,-4.95 62.03,-33.93 23.66,-16.91 43.06,-30.73 65.92,-46.04l-315.98 -323.77c10.21,73.75 162.56,294.45 188.03,403.74z"/>
   <path class="fil0" d="M22990.34 6237.74c20.05,37.9 37.09,65.22 47.98,111.96 56.2,-4.68 68.07,-21.4 107.65,-52.3l276.21 -203.6 -431.84 143.94z"/>
   <path class="fil0" d="M17568.42 1295.64c0,40.91 25.33,2.57 9.51,0 -0.19,-0.03 -9.51,-44.65 -9.51,0zm-191.92 431.84c72.33,1.6 63.56,15.99 143.94,15.99 0,-185.33 47.98,-299.31 47.98,-431.84l-191.92 415.85z"/>
   <path class="fil0" d="M10946.96 13578.93l95.96 0c33.11,-49.45 47.85,-35.53 63.98,-95.97 -114.8,2.56 -113.79,27.05 -159.94,95.97z"/>
  </g>
 </g>
</svg>
