<?xml version="1.0" standalone="no"?>
<!DOCTYPE svg PUBLIC "-//W3C//DTD SVG 20010904//EN"
 "http://www.w3.org/TR/2001/REC-SVG-20010904/DTD/svg10.dtd">
<svg version="1.0" xmlns="http://www.w3.org/2000/svg"
 width="1280.000000pt" height="1280.000000pt" viewBox="0 0 1280.000000 1280.000000"
 preserveAspectRatio="xMidYMid meet">

<g transform="translate(0.000000,1280.000000) scale(0.100000,-0.100000)"
fill="#000000" stroke="none">
<path d="M6560 10840 c0 -8 -55 -11 -220 -12 -14 0 -29 -3 -35 -8 -5 -4 -32
-8 -58 -8 -26 -1 -51 -3 -55 -6 -4 -2 -35 -8 -67 -11 -33 -4 -69 -9 -80 -12
-11 -2 -30 -6 -42 -9 -13 -2 -35 -6 -50 -10 -16 -3 -41 -8 -58 -11 -16 -3 -38
-9 -48 -15 -10 -5 -21 -7 -24 -4 -3 2 -17 0 -32 -6 -14 -5 -35 -12 -46 -14
-38 -7 -60 -13 -92 -23 -18 -5 -33 -7 -33 -3 0 3 -5 1 -12 -6 -7 -7 -22 -12
-34 -12 -13 0 -26 -5 -29 -10 -4 -6 -10 -8 -14 -5 -5 2 -17 -2 -27 -10 -10 -8
-29 -15 -40 -15 -12 0 -34 -7 -50 -14 -15 -8 -31 -13 -36 -10 -4 3 -8 0 -8 -6
0 -6 -4 -9 -9 -6 -4 3 -17 -1 -27 -9 -10 -8 -27 -15 -36 -15 -10 0 -18 -4 -18
-9 0 -6 -8 -10 -17 -10 -26 0 -93 -25 -93 -34 0 -5 -4 -6 -9 -3 -5 3 -14 -1
-21 -9 -7 -8 -19 -15 -28 -15 -19 0 -100 -38 -108 -51 -3 -5 -12 -9 -21 -9 -8
0 -27 -9 -41 -19 -15 -10 -30 -18 -34 -17 -4 0 -17 -7 -29 -17 -11 -10 -23
-16 -26 -13 -3 3 -12 -2 -20 -10 -8 -8 -18 -12 -22 -9 -5 2 -16 -4 -26 -15
-10 -11 -24 -20 -31 -20 -7 0 -14 -4 -16 -8 -1 -4 -24 -18 -50 -30 -27 -12
-48 -27 -48 -32 0 -6 -7 -10 -15 -10 -9 0 -25 -9 -37 -20 -11 -10 -36 -26 -54
-35 -19 -9 -45 -27 -59 -41 -14 -14 -25 -22 -25 -20 0 6 -38 -24 -70 -55 -10
-9 -32 -25 -50 -35 -18 -11 -43 -28 -56 -39 -12 -11 -34 -29 -49 -40 -15 -11
-32 -24 -38 -30 -72 -61 -87 -75 -80 -75 4 0 -6 -10 -21 -22 -16 -13 -39 -33
-52 -45 -13 -13 -27 -23 -31 -23 -12 0 -48 -43 -45 -53 1 -5 -1 -6 -5 -4 -5 3
-22 -10 -38 -29 -17 -20 -48 -54 -70 -76 -22 -23 -39 -45 -37 -49 1 -5 -4 -8
-10 -7 -7 2 -12 -3 -10 -10 1 -6 -1 -11 -5 -10 -5 2 -9 -1 -11 -7 -2 -5 -23
-28 -47 -51 -25 -22 -45 -45 -45 -50 0 -5 -13 -24 -30 -42 -16 -18 -30 -37
-30 -42 0 -5 -10 -16 -22 -24 -12 -9 -19 -16 -15 -16 8 0 -3 -16 -40 -56 -13
-14 -23 -29 -23 -34 0 -6 -4 -10 -10 -10 -5 0 -10 -9 -10 -21 0 -11 -4 -18 -9
-14 -5 3 -12 -4 -16 -15 -3 -11 -11 -20 -16 -20 -6 0 -7 -4 -4 -10 3 -5 -3
-17 -15 -27 -11 -10 -20 -23 -20 -30 0 -7 -9 -21 -20 -30 -11 -10 -20 -25 -20
-35 0 -10 -4 -18 -10 -18 -5 0 -10 -6 -10 -13 0 -12 -8 -25 -49 -73 -5 -7 -7
-15 -4 -18 4 -3 1 -6 -6 -6 -7 0 -10 -4 -7 -9 3 -5 -8 -26 -24 -46 -17 -21
-33 -50 -36 -64 -4 -14 -14 -37 -22 -51 -26 -41 -112 -214 -112 -226 0 -5 -11
-32 -23 -60 -13 -27 -32 -74 -43 -104 -10 -30 -23 -58 -29 -62 -5 -4 -6 -8 -1
-8 5 0 4 -6 -1 -12 -12 -16 -27 -68 -24 -85 1 -7 -3 -13 -9 -13 -6 0 -9 -3 -6
-8 2 -4 -4 -32 -15 -62 -11 -30 -21 -64 -24 -75 -12 -58 -15 -70 -25 -99 -5
-17 -12 -48 -16 -70 -3 -21 -8 -48 -10 -60 -11 -48 -16 -82 -15 -103 0 -12 -4
-25 -9 -28 -6 -4 -8 -10 -5 -14 2 -5 0 -23 -5 -42 -6 -19 -13 -68 -16 -109 -3
-41 -8 -82 -11 -90 -3 -8 -7 -31 -8 -50 -2 -19 -6 -60 -9 -90 -17 -169 -20
-243 -20 -530 -1 -274 5 -411 19 -510 11 -78 16 -110 26 -160 6 -30 12 -68 15
-85 2 -16 8 -41 14 -55 5 -14 12 -36 14 -50 3 -14 5 -25 6 -25 1 0 3 -7 5 -15
2 -8 6 -26 9 -40 3 -14 8 -38 12 -55 3 -16 10 -39 15 -50 4 -11 10 -31 12 -45
1 -14 6 -30 9 -36 4 -6 9 -26 10 -43 1 -18 6 -35 10 -37 4 -3 8 -13 8 -22 0
-24 40 -100 68 -128 12 -13 22 -20 22 -17 0 3 8 -1 17 -8 9 -8 14 -9 11 -4 -4
6 -9 32 -12 58 -3 26 -10 55 -14 65 -5 9 -10 34 -10 55 -1 20 -6 45 -11 56 -6
10 -12 33 -14 52 -2 19 -7 41 -10 49 -6 17 -17 69 -30 150 -2 14 -7 36 -10 50
-3 14 -9 44 -12 68 -3 23 -7 59 -10 80 -22 174 -29 416 -16 554 6 67 13 155
16 193 6 95 16 181 31 270 3 17 7 44 8 60 2 17 7 46 11 65 4 19 7 43 7 53 -1
9 2 17 6 17 4 0 8 8 8 18 1 9 4 28 7 42 31 133 34 149 29 155 -3 3 0 5 6 5 7
0 11 3 11 8 -4 15 14 92 21 92 3 0 7 6 7 13 1 20 7 42 15 47 4 3 9 17 11 30
10 55 20 90 26 90 4 0 7 10 8 22 1 12 11 40 22 62 21 43 29 67 27 77 0 4 8 16
18 28 11 12 16 21 11 21 -4 0 -2 6 4 13 6 8 8 17 4 20 -3 4 -1 7 5 7 7 0 12
11 12 25 0 14 5 25 10 25 6 0 10 6 10 13 0 19 24 67 33 67 5 0 5 5 2 10 -3 6
-1 10 4 10 6 0 11 3 10 8 -2 15 14 52 22 52 5 0 9 9 9 20 0 11 4 20 9 20 5 0
20 24 34 53 23 49 64 116 87 144 5 7 10 17 10 23 0 5 4 10 10 10 5 0 12 11 16
24 3 14 14 32 25 42 10 9 19 23 19 31 0 7 4 13 8 13 5 0 17 18 27 40 10 22 22
37 26 34 5 -3 9 4 9 16 0 12 4 18 11 15 6 -4 13 2 16 14 3 12 9 21 14 21 5 0
8 3 7 8 -2 4 10 21 25 39 16 17 27 34 25 37 -1 3 7 13 20 21 12 9 22 21 22 27
0 11 33 53 92 118 20 22 34 40 31 40 -3 0 13 18 36 40 22 22 39 40 36 40 -3 0
46 52 109 115 62 63 117 115 121 115 4 0 29 23 56 52 27 29 49 48 49 43 0 -6
5 -2 11 8 5 9 17 17 24 17 8 0 14 5 13 12 -2 6 10 18 27 27 16 8 36 20 43 28
7 7 18 13 24 13 6 0 8 3 5 7 -4 3 1 11 12 17 10 6 67 44 127 85 60 41 109 73
109 71 0 -1 12 4 27 11 15 6 25 16 22 20 -3 5 2 9 12 9 9 0 22 7 28 16 6 8 20
16 30 18 9 1 21 8 25 14 4 6 18 13 31 16 14 2 24 9 22 15 -1 6 5 11 13 11 26
0 30 1 45 15 24 21 89 55 105 55 8 0 15 5 15 10 0 6 5 10 10 10 6 0 43 15 83
34 40 18 115 50 167 70 52 21 113 45 135 54 21 9 43 18 47 18 4 1 11 3 16 4 4
1 10 2 15 1 4 0 7 4 7 11 0 6 3 9 6 5 4 -3 19 0 35 8 16 9 41 16 56 17 15 1
30 5 33 8 7 8 144 51 170 53 11 1 20 5 20 10 0 5 6 7 13 4 6 -2 29 2 50 9 20
7 37 11 37 9 0 -3 12 0 28 6 25 10 53 15 107 22 11 1 22 5 25 9 3 4 27 8 53 9
26 2 47 6 47 10 0 7 67 12 133 10 15 0 27 4 27 9 0 10 109 14 385 14 285 0
415 -4 415 -13 0 -4 21 -8 48 -9 58 -2 119 -9 151 -16 13 -3 42 -6 65 -7 22
-1 64 -8 91 -15 60 -16 110 -25 148 -26 15 -1 27 -6 27 -11 0 -6 3 -8 6 -4 3
3 17 2 31 -4 13 -5 38 -12 56 -15 44 -8 62 -12 62 -14 0 -1 14 -4 30 -6 17 -3
34 -9 40 -15 5 -5 19 -9 30 -9 12 0 25 -3 29 -7 3 -4 15 -8 25 -10 10 -1 31
-8 47 -14 16 -7 38 -14 49 -16 11 -2 22 -8 23 -13 2 -6 8 -8 13 -4 5 3 9 0 9
-5 0 -6 11 -11 24 -11 14 0 28 -5 31 -10 7 -11 88 -50 104 -50 6 0 11 -4 11
-10 0 -5 7 -10 15 -10 9 0 18 -7 21 -15 4 -8 11 -15 18 -15 14 0 76 -55 76
-68 0 -5 -18 -24 -41 -43 -22 -19 -57 -49 -76 -66 -20 -18 -42 -33 -49 -33 -8
0 -19 -9 -26 -20 -7 -11 -18 -20 -25 -20 -7 0 -13 -4 -13 -10 0 -5 -6 -10 -14
-10 -8 0 -16 -4 -18 -8 -4 -11 -97 -72 -108 -72 -5 0 -14 -9 -20 -21 -7 -11
-14 -19 -16 -16 -3 3 -18 -7 -33 -21 -48 -47 -91 -82 -97 -82 -4 0 -42 -36
-84 -80 -42 -44 -82 -80 -89 -80 -7 0 -9 -4 -6 -10 3 -5 2 -10 -3 -10 -5 0
-15 -14 -22 -30 -7 -17 -15 -28 -18 -25 -3 3 -16 -15 -28 -40 -12 -26 -26 -45
-30 -43 -5 2 -10 -7 -12 -19 -2 -13 -11 -28 -21 -35 -24 -18 -34 -48 -16 -48
8 0 18 -6 22 -13 4 -8 45 -37 91 -66 45 -29 82 -56 82 -60 0 -7 45 -33 60 -35
3 -1 23 -12 45 -25 22 -14 43 -24 48 -23 4 1 7 -2 7 -7 0 -5 24 -24 53 -41 28
-18 54 -36 57 -41 3 -4 12 -9 20 -11 8 -2 20 -7 26 -13 7 -5 27 -21 45 -35 18
-14 42 -35 54 -47 12 -13 26 -23 32 -23 5 0 25 -17 45 -37 19 -21 44 -45 55
-53 11 -8 30 -29 43 -47 13 -18 28 -29 33 -26 6 3 7 2 4 -4 -3 -5 7 -20 23
-32 17 -12 30 -26 30 -31 0 -5 15 -25 34 -44 18 -20 46 -55 62 -78 16 -24 33
-46 39 -50 5 -4 6 -8 1 -8 -5 0 1 -8 12 -19 12 -10 19 -21 15 -25 -3 -3 -1 -6
5 -6 7 0 12 -6 12 -14 0 -7 13 -27 29 -44 16 -16 27 -33 24 -36 -4 -3 -1 -6 6
-6 7 0 9 -4 6 -10 -3 -5 -1 -10 5 -10 6 0 8 -4 5 -10 -3 -5 -3 -10 2 -10 4 0
19 -21 33 -47 13 -27 30 -51 36 -56 7 -4 15 -21 19 -37 4 -17 10 -30 15 -30 5
0 14 -16 20 -35 6 -19 15 -35 20 -35 5 0 12 -10 16 -22 4 -13 17 -37 30 -54
13 -17 21 -34 17 -37 -3 -4 -1 -7 5 -7 7 0 12 -9 12 -19 0 -11 5 -21 10 -23 6
-2 12 -14 15 -27 2 -14 9 -27 14 -31 6 -3 11 -21 13 -39 1 -18 6 -35 10 -37 4
-3 8 -17 8 -32 0 -15 5 -34 10 -42 8 -12 10 -10 11 10 1 14 1 29 -1 35 -1 5
-3 25 -6 45 -2 19 -7 43 -10 52 -4 14 -7 27 -17 73 -2 6 -6 16 -10 22 -5 7
-10 32 -13 55 -3 23 -9 47 -14 53 -5 6 -11 22 -13 35 -4 27 -6 33 -49 135 -17
39 -31 75 -32 81 -1 7 -6 18 -12 25 -23 34 -43 77 -37 83 3 3 1 6 -6 6 -7 0
-9 5 -6 10 3 6 2 10 -3 10 -5 0 -22 26 -38 58 -16 31 -36 66 -46 76 -10 11
-18 26 -18 33 0 7 -4 13 -10 13 -5 0 -10 6 -10 13 0 6 -15 28 -33 48 -17 19
-43 50 -57 68 -33 44 -217 231 -227 231 -5 0 -19 14 -33 30 -14 17 -30 30 -37
30 -7 0 -16 6 -20 13 -9 14 -6 12 -168 122 -65 44 -120 88 -123 97 -2 10 -11
15 -23 13 -10 -2 -19 0 -19 6 0 5 -7 9 -15 9 -8 0 -19 9 -25 20 -6 11 -16 20
-23 20 -17 0 -57 45 -57 64 0 9 5 16 11 16 5 0 8 4 5 8 -3 5 3 18 13 29 10 11
22 29 25 41 4 12 12 20 17 17 5 -4 9 -2 9 2 0 13 90 110 90 98 0 -5 5 -2 11 8
5 9 15 17 20 17 6 0 24 14 41 30 16 17 36 30 44 30 8 0 14 4 14 8 0 8 59 46
72 47 4 0 13 6 20 13 6 6 18 12 25 12 7 0 22 9 33 20 12 12 25 18 29 15 5 -2
14 2 21 10 7 8 23 15 36 15 13 0 24 5 24 11 0 5 4 8 9 4 5 -3 12 -1 16 5 4 6
11 8 16 5 5 -4 9 -1 9 5 0 6 4 9 9 5 5 -3 12 -1 16 5 4 6 11 8 16 5 5 -4 9 -1
9 4 0 6 11 11 25 11 14 0 25 4 25 9 0 8 32 18 90 28 14 2 29 8 34 14 6 5 22 9
36 9 15 0 30 3 34 7 3 4 12 8 19 9 16 3 54 11 100 23 20 5 37 7 37 4 0 -3 6
-1 13 5 6 5 23 10 37 10 14 0 48 3 75 8 100 17 453 9 514 -12 10 -3 12 2 6 18
-3 13 -8 31 -9 40 -1 9 -13 31 -27 49 -32 42 -188 199 -198 199 -4 0 -25 18
-47 40 -21 22 -45 40 -51 40 -7 0 -13 5 -13 10 0 6 -5 10 -11 10 -5 0 -37 18
-69 40 -32 22 -64 40 -71 40 -7 0 -9 3 -6 6 4 4 -14 18 -40 31 -26 13 -50 28
-54 34 -3 6 -14 11 -23 13 -10 1 -21 8 -25 15 -5 7 -12 13 -17 13 -14 -1 -74
30 -74 37 0 4 -10 8 -22 8 -13 1 -24 7 -26 13 -2 5 -13 10 -23 10 -11 0 -17 5
-14 10 3 6 -3 10 -14 10 -12 0 -21 3 -21 8 0 4 -28 18 -62 31 -35 13 -70 30
-79 37 -9 8 -19 11 -22 7 -4 -3 -7 -1 -7 5 0 7 -11 12 -25 12 -14 0 -25 5 -25
10 0 6 -7 10 -15 10 -8 0 -23 4 -33 9 -50 26 -132 63 -144 65 -7 2 -20 5 -28
9 -8 3 -40 13 -70 22 -30 9 -57 21 -60 25 -3 5 -17 11 -32 14 -14 2 -36 9 -47
16 -12 6 -21 7 -21 3 0 -4 -5 -1 -10 7 -5 8 -22 16 -37 17 -51 4 -93 15 -93
25 0 5 -3 7 -7 5 -5 -3 -19 0 -33 6 -14 5 -32 11 -40 13 -26 5 -55 12 -55 14
0 1 -16 4 -35 7 -19 2 -38 10 -42 16 -4 7 -8 9 -8 6 0 -4 -17 -3 -37 2 -21 5
-47 12 -58 14 -70 16 -67 16 -145 29 -14 3 -25 5 -25 6 0 1 -16 3 -35 6 -19 2
-48 6 -65 9 -101 16 -239 24 -512 29 -131 3 -233 1 -233 -4z"/>
<path d="M4839 8453 c-13 -16 -12 -17 4 -4 9 7 17 15 17 17 0 8 -8 3 -21 -13z"/>
<path d="M9052 7298 c4 -60 30 -64 27 -4 -2 31 -7 46 -16 46 -10 0 -13 -12
-11 -42z"/>
<path d="M6041 6274 c0 -11 3 -14 6 -6 3 7 2 16 -1 19 -3 4 -6 -2 -5 -13z"/>
<path d="M6405 5510 c10 -11 20 -20 23 -20 3 0 -3 9 -13 20 -10 11 -20 20 -23
20 -3 0 3 -9 13 -20z"/>
<path d="M4212 5270 c0 -14 2 -19 5 -12 2 6 2 18 0 25 -3 6 -5 1 -5 -13z"/>
<path d="M4309 5173 l-24 -28 28 24 c25 23 32 31 24 31 -2 0 -14 -12 -28 -27z"/>
<path d="M4013 4523 c9 -2 25 -2 35 0 9 3 1 5 -18 5 -19 0 -27 -2 -17 -5z"/>
<path d="M3654 4315 c0 -77 2 -107 3 -67 2 40 2 103 0 140 -2 37 -3 4 -3 -73z"/>
<path d="M4434 4330 c0 -52 1 -74 3 -47 2 26 2 68 0 95 -2 26 -3 4 -3 -48z"/>
<path d="M4218 4393 c6 -2 18 -2 25 0 6 3 1 5 -13 5 -14 0 -19 -2 -12 -5z"/>
<path d="M3528 4343 c18 -2 45 -2 60 0 15 2 0 4 -33 4 -33 0 -45 -2 -27 -4z"/>
<path d="M4208 4293 c7 -3 16 -2 19 1 4 3 -2 6 -13 5 -11 0 -14 -3 -6 -6z"/>
<path d="M4988 4293 c6 -2 18 -2 25 0 6 3 1 5 -13 5 -14 0 -19 -2 -12 -5z"/>
<path d="M3978 4173 c6 -2 18 -2 25 0 6 3 1 5 -13 5 -14 0 -19 -2 -12 -5z"/>
<path d="M4768 4173 c7 -3 16 -2 19 1 4 3 -2 6 -13 5 -11 0 -14 -3 -6 -6z"/>
<path d="M3459 3703 l-24 -28 28 24 c25 23 32 31 24 31 -2 0 -14 -12 -28 -27z"/>
<path d="M4463 3435 c0 -33 2 -45 4 -27 2 18 2 45 0 60 -2 15 -4 0 -4 -33z"/>
<path d="M6314 2800 c0 -140 2 -198 3 -127 2 70 2 184 0 255 -1 70 -3 12 -3
-128z"/>
<path d="M8494 2770 c0 -124 2 -174 3 -112 2 61 2 163 0 225 -1 61 -3 11 -3
-113z"/>
<path d="M7451 2694 c0 -11 3 -14 6 -6 3 7 2 16 -1 19 -3 4 -6 -2 -5 -13z"/>
<path d="M5409 2433 c-13 -16 -12 -17 4 -4 9 7 17 15 17 17 0 8 -8 3 -21 -13z"/>
<path d="M8833 2353 c9 -2 25 -2 35 0 9 3 1 5 -18 5 -19 0 -27 -2 -17 -5z"/>
<path d="M3978 2283 c7 -3 16 -2 19 1 4 3 -2 6 -13 5 -11 0 -14 -3 -6 -6z"/>
</g>
</svg>
