<svg width="181" height="232" viewBox="0 0 181 232" fill="none" xmlns="http://www.w3.org/2000/svg">
<path d="M95.5625 0.747275C95.2038 0.774228 93.6663 0.935947 92.1031 1.09767C90.5656 1.23243 88.8744 1.4211 88.3875 1.50196C87.9006 1.58282 86.6963 1.77149 85.6969 1.93321C83.4419 2.2836 81.5969 2.66095 80.4438 2.98438C79.9569 3.11915 78.3425 3.5504 76.8563 3.9547C75.37 4.33204 73.8325 4.76329 73.3969 4.8711C72.9869 5.00587 72.2181 5.22149 71.7313 5.35626C70.6806 5.6797 68.5025 6.43438 67.7594 6.75782C67.4775 6.86563 66.555 7.24298 65.7094 7.56642C63.7106 8.34806 63.4288 8.45587 61.6863 9.29142C60.8663 9.66876 59.9181 10.0461 59.5594 10.1539C59.2006 10.2348 58.9188 10.4234 58.9188 10.5582C58.9188 10.693 58.7906 10.8008 58.6113 10.8008C58.2013 10.8008 53.9475 13.0379 53.845 13.2805C53.7938 13.4152 53.64 13.4961 53.5119 13.4961C53.3838 13.4961 52.5381 13.9813 51.6156 14.5473C50.6931 15.1402 49.745 15.6793 49.4631 15.7871C49.2069 15.868 48.6688 16.2453 48.2588 16.5957C47.8488 16.9731 47.3619 17.2695 47.2081 17.2695C47.0288 17.2695 46.875 17.3774 46.875 17.5391C46.875 17.6738 46.7213 17.8086 46.5675 17.8086C46.3881 17.8086 45.4913 18.4016 44.5688 19.1563C43.6463 19.884 42.775 20.477 42.5956 20.5039C42.4419 20.5039 42.2625 20.5848 42.2113 20.7195C42.1856 20.8274 41.4425 21.4742 40.5969 22.1211C38.1369 24.0617 35.3438 26.5414 35.3438 26.757C35.3438 26.8649 35.2413 26.9727 35.1131 26.9727C34.985 26.9727 34.4213 27.4578 33.8575 28.0508C33.3194 28.6438 32.7813 29.1289 32.6788 29.1289C32.4738 29.1289 29.0913 32.6867 28.0663 33.9805C27.6563 34.4926 26.4263 35.9211 25.3244 37.1609C24.1969 38.3738 23.3 39.4789 23.3 39.5867C23.3 39.6945 23.0438 40.0719 22.7106 40.4492C22.1213 41.1231 19.9431 44.1418 19.2 45.3008C18.995 45.6242 18.6875 46.0555 18.5594 46.2172C17.8675 47.0258 12.7938 55.6777 12.7938 56.0551C12.7938 56.1899 12.7169 56.3516 12.6144 56.4055C12.4863 56.4324 12.0506 57.268 11.5894 58.2383C11.1538 59.2086 10.2569 61.0953 9.64188 62.4699C9.00125 63.8176 8.41187 65.2192 8.30937 65.5695C8.20687 65.9199 7.89937 66.7285 7.6175 67.4024C6.82312 69.316 6.695 69.6125 6.36187 70.7715C6.1825 71.3645 5.95187 71.9574 5.84937 72.1192C5.69562 72.3617 5.02937 74.5988 4.59375 76.4317C4.46562 76.8629 4.1325 78.2106 3.825 79.3965C3.21 81.7145 3.08187 82.4153 2.31312 86.9434C1.28812 92.7653 0.954999 95.8379 0.391249 103.654C-0.0956262 110.393 -0.0956262 115.46 0.391249 121.848C0.852499 128.289 1.365 131.524 2.54375 135.998C2.6975 136.591 2.92812 137.561 3.05625 138.154C3.18437 138.747 3.5175 140.203 3.825 141.389C4.1325 142.575 4.51687 144.138 4.69625 144.893C5.1575 146.779 6.23375 148.909 7.0025 149.448C7.6175 149.852 7.66875 149.852 7.66875 149.448C7.66875 149.205 7.48937 148.262 7.25875 147.345C7.02812 146.456 6.74625 145.162 6.64375 144.488C6.54125 143.814 6.1825 142.116 5.90062 140.715C4.72187 135.27 4.44 133.195 4.05562 126.564C3.77375 121.578 3.95312 115.702 4.59375 108.506C4.97812 104.463 6.02875 97.7785 6.41312 96.9969C6.54125 96.7543 6.64375 96.2692 6.64375 95.9457C6.64375 95.6223 6.87437 94.4903 7.15625 93.4391C7.95062 90.5551 9.20625 86.2156 9.4625 85.5957C10.4875 82.9274 10.7438 82.1996 10.7438 81.8492C10.7438 81.6067 10.8719 81.418 11 81.418C11.1538 81.418 11.2563 81.2024 11.2563 80.9328C11.2563 80.6633 11.3588 80.3399 11.4613 80.1781C11.5894 80.0434 11.8456 79.5043 12.025 78.9922C12.5119 77.6445 14.3825 73.4938 14.5619 73.332C14.6388 73.2512 14.9206 72.766 15.1513 72.2539C16.2019 70.0168 19.5588 64.1949 20.6863 62.6856C20.7888 62.5238 21.1475 61.9578 21.4806 61.3918C21.8138 60.8258 22.1981 60.2328 22.3519 60.0442C22.5313 59.8824 22.9925 59.1817 23.4281 58.5078C23.8381 57.834 24.5813 56.8637 25.0169 56.3516C25.4781 55.8395 25.8625 55.3274 25.8625 55.2195C25.8625 55.1117 26.1444 54.7344 26.5031 54.357C26.8619 53.9797 27.1438 53.5485 27.1438 53.4137C27.1438 53.252 27.2975 53.0363 27.4769 52.9285C27.6306 52.8207 28.2969 52.0391 28.9375 51.2305C29.5781 50.4219 30.3213 49.4516 30.6031 49.1012C31.6794 47.7805 35.5488 43.7375 37.65 41.7969C38.8544 40.6918 40.1613 39.452 40.5969 39.0477C41.0069 38.6164 41.5194 38.293 41.6988 38.293C41.8525 38.293 42.0063 38.2121 42.0063 38.0774C42.0063 37.9695 42.4419 37.5922 42.98 37.2149C43.4925 36.8375 43.9794 36.4602 44.0563 36.3793C44.1331 36.2984 45.3888 35.382 46.875 34.3578C50.3344 31.9859 50.5138 31.8512 50.9494 31.6356C51.1544 31.5277 51.8975 31.0695 52.615 30.5574C53.3325 30.0723 54.05 29.668 54.2038 29.668C54.3831 29.668 54.5625 29.5602 54.6138 29.4254C54.7419 29.075 63.48 24.6817 66.555 23.4418C66.8625 23.307 67.4263 23.0645 67.8363 22.9027C70.3475 21.7977 72.3463 21.0699 75.0625 20.2344C75.7031 20.0188 76.3181 19.7762 76.4719 19.6414C76.6 19.5336 77.01 19.4258 77.3944 19.4258C77.7788 19.4258 78.1631 19.318 78.24 19.1832C78.3169 19.0484 78.7525 18.8867 79.2138 18.8059C79.675 18.725 80.5719 18.5094 81.2125 18.3477C81.8531 18.1859 82.7244 17.9703 83.1344 17.9164C83.57 17.8356 84.1338 17.6738 84.4156 17.5391C84.6975 17.4313 85.7994 17.1887 86.85 17C87.9006 16.8383 89.0025 16.6227 89.2844 16.5688C91.4625 16.0567 96.28 15.7871 103.122 15.7871C111.501 15.7871 116.268 16.1645 122.084 17.2695C122.93 17.4313 124.263 17.6738 125.031 17.7817C127.158 18.132 133.513 19.9109 135.666 20.7734C135.948 20.9082 136.588 21.1508 137.075 21.3125C139.33 22.175 144.327 24.8703 145.019 25.625C145.096 25.7059 145.454 25.9754 145.864 26.2449C146.761 26.8379 146.736 27.0805 145.711 28.1317C144.865 29.0481 141.534 31.8242 141.329 31.8242C141.252 31.8242 140.458 32.3902 139.535 33.091C138.638 33.8188 137.254 34.843 136.511 35.409C132.334 38.5895 127.107 44.1149 125.826 46.7024C125.621 47.1336 125.364 47.457 125.236 47.457C125.134 47.457 125.031 47.5918 125.031 47.7805C125.031 47.9422 124.801 48.3735 124.493 48.6969L123.955 49.3168L124.468 49.9098C124.775 50.2332 125.236 50.6375 125.518 50.7992C125.774 50.961 126.979 51.7965 128.158 52.686C129.311 53.5485 130.464 54.3301 130.669 54.411C130.874 54.4918 131.104 54.6266 131.181 54.7074C131.258 54.8152 131.848 55.1656 132.539 55.516C133.206 55.8664 133.744 56.2707 133.744 56.4055C133.744 56.5133 133.872 56.6211 134.051 56.6211C134.205 56.6211 134.743 56.9445 135.256 57.3488C135.768 57.7801 136.409 58.2383 136.716 58.4C137.024 58.5617 137.485 58.9121 137.741 59.1547C138.023 59.3973 138.971 60.2328 139.868 60.9875C142.072 62.8473 146.198 67.1867 147.53 69.0195C148.119 69.8281 149.17 71.2836 149.862 72.227C150.554 73.1703 151.271 74.2754 151.476 74.6527C151.656 75.0301 151.989 75.5692 152.194 75.8387C152.706 76.4586 153.962 78.7227 154.167 79.3156C154.244 79.5852 154.398 79.8008 154.5 79.8008C154.603 79.8008 154.884 80.259 155.115 80.7981C155.525 81.8492 156.319 83.3317 156.576 83.5742C156.653 83.6551 157.088 84.4367 157.549 85.3262C158.011 86.2156 158.498 87.0512 158.626 87.186C158.754 87.3477 158.856 87.6711 158.856 87.9406C158.856 88.2102 158.959 88.4258 159.061 88.4258C159.625 88.4258 160.906 93.3043 160.906 95.4336C160.906 96.7004 160.983 97.0508 161.291 97.0508C161.573 97.0508 161.649 96.8621 161.547 96.4309C161.47 96.1074 161.239 94.7328 161.034 93.4121C160.24 87.9406 158.626 82.3883 156.653 78.0758C156.448 77.6445 156.294 77.1324 156.294 76.9168C156.294 76.7281 156.191 76.5664 156.038 76.5664C155.909 76.5664 155.781 76.4317 155.781 76.2699C155.781 75.8656 152.783 70.4211 152.168 69.7473C151.912 69.4508 151.681 69.0465 151.681 68.8578C151.681 68.6692 151.579 68.4805 151.476 68.4266C151.348 68.3727 150.708 67.618 150.016 66.7285C148.248 64.4106 145.685 61.6883 143.481 59.7746C142.431 58.8582 141.508 58.0496 141.431 57.9688C141.073 57.5914 138.997 56.0012 136.819 54.4649C135.486 53.5215 134.333 52.686 134.256 52.6051C134.179 52.4973 133.488 52.0121 132.719 51.5C130.976 50.341 130.156 49.5055 130.156 48.9125C130.156 48.1309 131.694 45.786 133.334 44.1149C134.948 42.4168 135.281 42.1203 136.819 40.9883C137.306 40.6379 137.767 40.2606 137.844 40.1797C138.433 39.5328 144.891 36.2445 147.966 35.0586C148.811 34.7352 149.734 34.3578 150.016 34.25C150.298 34.1152 150.81 33.9535 151.169 33.8727C151.528 33.8188 152.271 33.6031 152.834 33.4414C158.241 31.8242 166.39 30.9078 170.259 31.5277C171.105 31.6625 172.258 31.8512 172.848 31.932L173.898 32.0938L173.616 30.9887C173.258 29.5871 168.901 24.8434 165.775 22.4176C164.571 21.5012 163.392 20.5848 163.136 20.3692C162.905 20.1535 162.623 19.9649 162.546 19.9649C162.469 19.9649 161.88 19.5875 161.239 19.1563C160.624 18.6981 160.061 18.3477 160.009 18.3477C159.933 18.3477 159.113 17.8356 158.164 17.2426C156.448 16.1375 150.195 12.7414 147.709 11.5824C143.328 9.53399 141.252 8.64454 140.868 8.64454C140.611 8.64454 140.406 8.50978 140.406 8.37501C140.406 8.21329 140.201 8.10548 139.919 8.10548C139.663 8.10548 138.818 7.8629 138.074 7.53946C137.306 7.21603 136.46 6.86563 136.178 6.75782C135.896 6.65001 135.256 6.38048 134.769 6.16485C134.282 5.92228 133.462 5.65274 132.975 5.57188C132.488 5.46407 131.438 5.14063 130.669 4.89806C129.9 4.62852 128.747 4.25118 128.106 4.06251C127.466 3.87384 126.697 3.63126 126.364 3.49649C126.031 3.36173 125.441 3.25392 125.031 3.25392C124.621 3.25392 124.237 3.1461 124.16 3.01134C124.083 2.90352 123.596 2.71485 123.058 2.60704C122.52 2.52618 121.521 2.33751 120.803 2.17579C115.704 1.09767 109.554 0.558603 102.353 0.612509C98.9706 0.612509 95.9213 0.693368 95.5625 0.747275Z" fill="#770F0F"/>
<path d="M62.9931 55.1387C50.8469 57.6992 39.4181 69.9898 34.575 85.7305C32.5762 92.1453 31.8844 97.1856 31.8844 104.732C31.91 112.63 32.5762 116.942 35.2412 126.834C37.7525 136.079 37.9062 136.78 37.9062 139.906C37.8806 141.47 37.7781 143.653 37.65 144.758C37.5219 145.863 37.2912 148.208 37.1375 149.96C36.8812 152.898 36.8812 153.167 37.3425 153.76C37.855 154.461 38.2394 154.38 39.3925 153.275C41.0837 151.685 41.75 147.83 41.9294 138.289C42.0831 130.85 41.8269 127.238 40.3406 114.975C40.1356 113.196 39.7769 109.261 39.5462 106.215C38.7006 95.191 39.9819 87.2938 44.005 78.8035C46.4906 73.5746 49.8731 68.3996 53.2556 64.6262C54.1781 63.602 56.2537 61.7422 57.8937 60.4484C59.5081 59.1816 61.6862 57.4836 62.7112 56.675C64.2231 55.4621 65.1712 54.5996 64.7612 54.7613C64.71 54.7883 63.9156 54.95 62.9931 55.1387Z" fill="black"/>
<path d="M122.725 82.1188C120.649 82.5231 118.497 83.2238 116.678 84.1402C114.525 85.1914 112.475 86.9973 112.475 87.8328C112.475 88.0754 112.834 88.7492 113.269 89.3152C115.319 91.9566 119.932 94.625 124.391 95.8109C126.774 96.4578 128.106 96.6195 135.409 97.3203C142.046 97.9402 143.584 99.3688 146.095 106.996C147.838 112.36 150.451 118.64 155.704 130.203C159.087 137.588 161.009 142.305 161.188 143.626C161.291 144.192 160.958 144.434 158.651 145.701C150.477 150.202 141.047 153.437 132.078 154.865C128.516 155.431 120.906 155.674 117.446 155.323C107.324 154.299 99.355 150.688 93.5125 144.488C88.6181 139.313 85.7994 133.545 84.1338 125.486C82.8781 119.341 82.9038 109.018 84.185 101.229C84.5438 99.1531 84.7231 97.8594 84.6719 97.8594C84.6206 97.8594 84.2106 98.5602 83.7238 99.3957C80.2388 105.649 78.2144 112.576 76.7281 123.465C75.985 129.017 75.8056 130.149 75.4213 132.629C73.8581 142.763 72.1925 147.992 68.6563 154.057C68.0669 155.108 67.375 156.294 67.1444 156.752C66.9138 157.183 66.6831 157.614 66.6063 157.695C66.4781 157.83 64.8125 161.172 64.8125 161.307C64.8125 161.388 66.0425 161.253 69.0406 160.93C72.7819 160.498 81.6225 159.852 83.775 159.852C86.645 159.852 93.0256 160.579 95.7931 161.199C104.429 163.194 111.219 167.668 117.036 175.242C119.266 178.126 120.726 179.15 123.417 179.635C124.365 179.797 124.339 179.878 124.878 176.509C125.083 175.242 125.544 173.328 125.903 172.25C127.696 166.752 130.541 164.434 137.075 162.978C143.507 161.577 144.609 161.253 150.656 159.178C155.858 157.399 158.933 156.213 168.466 152.224C172.566 150.526 176.999 148.72 178.331 148.235C179.664 147.777 180.817 147.345 180.868 147.291C181.15 147.049 178.126 141.712 172.335 132.359C165.929 122.009 162.469 113.384 160.65 103.25L160.394 101.768L158.856 101.741C156.986 101.714 156.268 101.255 155.525 99.5844C154.526 97.4551 151.374 93.2774 148.914 90.7977C145.198 87.0781 141.098 84.6793 135.666 82.9543C133.283 82.1996 132.77 82.1457 128.234 82.0649C125.569 82.0379 123.084 82.0649 122.725 82.1188Z" fill="black"/>
<path d="M31.1669 171.387C30.5775 172.061 30.6287 172.25 31.3206 172.25C31.6281 172.25 32.0894 171.927 32.3456 171.576C32.8069 170.902 32.8069 170.902 32.1919 170.902C31.8587 170.902 31.3975 171.118 31.1669 171.387Z" fill="black"/>
<path d="M11 176.428V180.066H11.6406C12.23 180.066 12.2812 179.986 12.2812 178.719C12.2812 177.802 12.3837 177.371 12.6144 177.371C12.7937 177.371 13.3831 177.964 13.9212 178.719C14.7156 179.797 15.0487 180.066 15.6637 180.066C16.4837 180.066 16.4837 179.986 15.305 178.422C14.485 177.29 14.4337 177.102 14.9462 177.102C15.5356 177.102 15.9456 176.32 15.9456 175.161C15.9456 174.271 15.7919 173.894 15.2537 173.409C14.6644 172.897 14.28 172.789 12.7681 172.789H11V176.428ZM14.28 174.379C14.485 174.487 14.5875 174.891 14.5362 175.242C14.485 175.781 14.3056 175.889 13.3831 175.97C12.3069 176.05 12.2812 176.023 12.2812 175.242C12.2812 174.811 12.435 174.379 12.6144 174.325C13.1012 174.11 13.9212 174.137 14.28 174.379Z" fill="black"/>
<path d="M17.15 176.428V180.066H19.4562C21.7369 180.066 21.7625 180.066 21.7625 179.393C21.7625 178.746 21.7112 178.719 20.0969 178.719H18.4312V177.91V177.102H19.9687C21.4294 177.102 21.5062 177.075 21.5062 176.428C21.5062 175.781 21.4294 175.754 19.9687 175.754H18.4312V174.945V174.137H20.0969C21.7112 174.137 21.7625 174.11 21.7625 173.463C21.7625 172.789 21.7369 172.789 19.4562 172.789H17.15V176.428Z" fill="black"/>
<path d="M22.7875 176.428V180.066H23.4281C24.0175 180.066 24.0688 179.959 24.0688 178.854V177.641H25.1963C26.7594 177.641 27.6563 176.859 27.6563 175.484C27.6563 174.918 27.5794 174.245 27.5025 174.002C27.2206 173.274 25.965 172.789 24.325 172.789H22.7875V176.428ZM25.6831 174.379C26.0163 174.514 26.375 174.837 26.4519 175.053C26.6825 175.7 25.7344 176.562 24.8375 176.562C24.12 176.562 24.0688 176.509 24.0688 175.511C24.0688 174.218 24.5044 173.921 25.6831 174.379Z" fill="black"/>
<path d="M28.6812 175.646C28.6812 178.422 28.7069 178.503 29.4244 179.285C30.4237 180.336 32.115 180.39 33.14 179.393C33.4987 179.042 33.8062 178.584 33.8319 178.395C33.8319 178.207 33.8831 177.506 33.96 176.832C34.0369 176.158 34.0112 174.972 33.9344 174.191C33.7806 172.924 33.7037 172.789 33.14 172.789C32.525 172.789 32.525 172.816 32.525 175.592C32.525 178.584 32.4737 178.719 31.1412 178.719C30.1419 178.719 29.9625 178.234 29.9625 175.43C29.9625 172.789 29.9625 172.789 29.3219 172.789H28.6812V175.646Z" fill="black"/>
<path d="M35.3438 176.428V180.066H36.8813C38.5213 180.066 39.7769 179.581 40.0588 178.854C40.315 178.126 40.2381 177.263 39.8538 176.67C39.5975 176.32 39.5719 175.996 39.7256 175.727C40.1356 175.053 39.9819 174.137 39.3156 173.463C38.7775 172.87 38.47 172.789 37.0094 172.789H35.3438V176.428ZM38.4188 174.406C39.0081 174.811 38.3931 175.592 37.4194 175.7C36.6763 175.781 36.625 175.727 36.625 174.972C36.625 174.245 36.7019 174.137 37.3425 174.137C37.7269 174.137 38.2138 174.271 38.4188 174.406ZM38.7006 177.263C39.2131 177.91 38.675 178.557 37.5475 178.665C36.6506 178.746 36.625 178.719 36.625 177.802C36.625 176.886 36.6763 176.832 37.4963 176.832C37.9575 176.832 38.4956 177.021 38.7006 177.263Z" fill="black"/>
<path d="M41.2375 176.428V180.066H43.4156C45.5681 180.066 45.5937 180.066 45.5937 179.393C45.5937 178.746 45.5169 178.719 44.0562 178.719H42.5187V175.754V172.789H41.8781H41.2375V176.428Z" fill="black"/>
<path d="M46.3625 176.428V180.066H47.0031H47.6437V176.428V172.789H47.0031H46.3625V176.428Z" fill="black"/>
<path d="M49.5912 173.463C48.9762 174.056 48.925 174.271 48.925 176.266C48.925 178.827 49.0275 179.15 49.9756 179.662C51.0519 180.255 52.2819 180.174 53.1531 179.393C53.7937 178.827 53.8706 178.692 53.5375 178.449C53.3325 178.287 52.9225 178.261 52.6406 178.341C52.3587 178.449 51.7181 178.53 51.2312 178.557L50.3344 178.584V176.428C50.3344 174.379 50.36 174.271 50.9237 174.191C51.2569 174.137 51.8719 174.245 52.3075 174.433C52.9225 174.703 53.1275 174.676 53.435 174.352C53.7937 173.975 53.7681 173.867 53.1275 173.355C52.1537 172.546 50.4881 172.573 49.5912 173.463Z" fill="black"/>
<path d="M56.2794 173.247C56.2025 173.517 55.69 175.134 55.1006 176.832C54.5112 178.53 54.05 179.959 54.05 179.986C54.05 180.039 54.3831 180.066 54.7931 180.066C55.4337 180.066 55.5875 179.932 55.7156 179.258C55.8694 178.503 55.9719 178.449 57.0481 178.449C58.0987 178.449 58.2269 178.53 58.4831 179.258C58.6881 179.851 58.9444 180.066 59.38 180.066C60.1231 180.066 60.0719 179.77 58.7137 175.754C57.8425 173.247 57.6631 172.924 57.0737 172.843C56.6125 172.789 56.3819 172.897 56.2794 173.247ZM57.4837 175.835L57.8425 177.102H57.0737C56.51 177.102 56.3306 176.994 56.4331 176.724C56.51 176.509 56.6637 175.889 56.7662 175.35C56.9712 174.191 57.0225 174.218 57.4837 175.835Z" fill="black"/>
<path d="M28.0919 187.613C24.6837 188.26 21.0194 190.012 18.7387 192.061C16.2531 194.325 13.9469 198.502 12.9219 202.653C11.8456 207.1 11.8969 213.461 13.0756 217.639C15.4331 226.048 21.7369 231.008 30.0394 231.008C32.9094 231.008 34.8569 230.604 37.0606 229.525C40.4687 227.881 42.6212 224.755 43.4156 220.334C43.8769 217.909 43.8769 217.801 43.5437 217.801C43.4156 217.801 43.2362 218.259 43.1594 218.798C42.2112 224.701 39.2644 228.097 34.2419 229.013C27.0669 230.334 21.3781 225.914 19.1487 217.262C18.6362 215.213 18.5594 214.378 18.5594 209.311C18.585 204.755 18.6619 203.3 19.0206 201.898C20.0969 197.775 21.5575 194.675 23.6587 192.034C25.9137 189.23 29.7062 187.721 32.8581 188.395C33.7037 188.584 34.78 188.934 35.2156 189.15C37.9831 190.659 40.2125 193.812 41.7244 198.395C42.6981 201.332 42.8262 201.629 43.0569 201.629C43.3131 201.629 43.3644 195.807 43.1081 191.441C42.9544 188.422 42.6725 187.748 42.1344 189.015C41.75 189.958 40.8019 190.012 38.9312 189.284C34.8056 187.667 30.9619 187.074 28.0919 187.613Z" fill="black"/>
<path d="M78.2656 187.775C74.7038 188.341 74.2938 188.422 74.2938 188.664C74.2938 188.799 74.6781 188.988 75.165 189.069C76.1388 189.257 77.2406 190.443 77.5738 191.602C77.6763 192.007 77.7531 200.039 77.7531 209.445C77.7531 225.267 77.7275 226.641 77.2919 227.504C76.7794 228.609 75.6775 229.391 74.7038 229.391C74.345 229.391 74.0375 229.498 74.0375 229.66C74.0375 229.795 74.2169 229.93 74.4219 229.93C74.9344 229.957 83.4931 229.957 84.6975 229.93C85.7481 229.93 85.6713 229.525 84.595 229.31C83.4931 229.067 82.3656 227.962 82.0325 226.749C81.8019 225.968 81.725 220.442 81.725 206.507V187.344L81.1613 187.371C80.8281 187.398 79.5469 187.559 78.2656 187.775Z" fill="black"/>
<path d="M91.1806 188.125C89.1819 190.228 91.4113 193.759 93.82 192.276C95.9981 190.955 94.9988 187.344 92.4619 187.344C92.18 187.344 91.5906 187.694 91.1806 188.125Z" fill="black"/>
<path d="M56.9456 204.055C53.7681 204.729 50.0525 207.936 48.4638 211.359C46.7725 215.025 46.7725 219.445 48.4638 223.164C49.4888 225.455 52.3075 228.474 54.3575 229.471C58.8163 231.682 64.2488 230.63 67.7338 226.884C72.4744 221.79 72.8331 214.108 68.605 208.718C65.4788 204.755 61.43 203.138 56.9456 204.055ZM60.7638 204.594C62.1475 204.998 64.095 206.993 65.0431 208.96C68.7844 216.938 66.2988 228.555 60.5331 229.957C58.6881 230.388 57.0481 229.822 55.485 228.124C53.6656 226.183 52.7431 224.027 52.1025 220.361C51.2825 215.429 52.1025 210.901 54.5625 207.154C56.1 204.809 58.3038 203.893 60.7638 204.594Z" fill="black"/>
<path d="M93.7688 203.92C93.5638 203.974 92.0263 204.216 90.3863 204.459C88.7206 204.729 87.3625 204.998 87.3625 205.106C87.3625 205.214 87.8494 205.456 88.4388 205.672C90.7706 206.534 91.0269 207.936 90.8988 218.475C90.8219 223.946 90.6938 226.534 90.4631 227.1C89.9763 228.366 89.1563 229.121 88.08 229.283C86.9525 229.498 86.7731 229.93 87.8238 229.957C90.4119 230.037 98.4581 229.93 98.5863 229.822C98.6631 229.741 98.4838 229.606 98.2275 229.498C96.69 228.986 95.8444 228.447 95.4088 227.693C94.9475 226.884 94.9219 226.129 94.845 215.294C94.7938 206.507 94.6913 203.785 94.4606 203.812C94.2813 203.839 93.9738 203.893 93.7688 203.92Z" fill="black"/>
<path d="M106.581 204.028C103.737 204.944 102.174 207.37 102.174 210.847C102.174 212.464 102.276 212.895 102.994 214.108C103.916 215.698 104.531 216.238 108.657 219.041C112.321 221.547 112.859 222.329 112.859 225.24C112.859 226.803 112.757 227.315 112.219 228.097C111.373 229.391 110.374 229.984 108.913 230.011C106.351 230.064 103.993 227.531 102.686 223.38L102.097 221.439L102.02 225.59C101.994 227.881 102.02 229.795 102.097 229.876C102.174 229.957 102.43 229.822 102.686 229.579C103.327 228.959 103.762 229.013 105.633 229.822C107.632 230.684 110.579 230.819 111.962 230.064C113.192 229.418 114.73 227.854 115.371 226.561C116.191 224.889 116.267 221.871 115.55 219.849C114.756 217.639 113.397 216.345 109.656 214.27C107.581 213.138 106.222 212.195 105.684 211.521C102.84 208.044 106.197 202.815 109.964 204.863C111.757 205.834 112.911 207.397 113.474 209.634C114.012 211.682 114.243 210.901 114.089 207.613C114.012 205.888 113.91 204.405 113.859 204.351C113.807 204.297 113.449 204.405 113.09 204.594C112.552 204.917 112.296 204.917 111.629 204.621C109.707 203.812 107.939 203.596 106.581 204.028Z" fill="black"/>
<path d="M128.363 204.189C124.775 205.268 121.982 208.205 120.649 212.329C119.804 214.863 119.804 219.499 120.624 222.248C122.341 228.178 127.133 231.304 133.231 230.496C135.461 230.199 136.998 229.418 138.305 227.935C139.228 226.857 140.586 223.838 140.278 223.515C140.099 223.326 140.099 223.326 139.279 225.159C138.126 227.693 135.563 229.094 132.744 228.744C128.183 228.178 125.288 224.296 124.57 217.801C124.442 216.534 124.391 215.052 124.442 214.486L124.57 213.488H132.232H139.894V212.707C139.894 212.275 139.663 211.143 139.381 210.173C138.279 206.427 135.512 204.163 131.771 203.92C130.413 203.839 129.311 203.92 128.363 204.189ZM133.231 205.321C134.513 206.265 135.691 208.691 135.948 210.847L136.101 212.41H130.413H124.698L124.878 211.143C125.057 209.634 125.979 207.451 126.902 206.319C128.593 204.216 131.207 203.812 133.231 205.321Z" fill="black"/>
<path d="M142.969 204.567C142.969 204.702 143.302 204.89 143.686 204.998C144.814 205.241 146.018 206.13 146.351 206.966C146.582 207.451 146.71 210.631 146.813 216.857C146.941 225.698 146.966 226.075 147.504 227.154C149.657 231.385 156.832 231.789 160.65 227.881C161.163 227.369 161.649 226.965 161.752 226.965C161.854 226.965 161.931 227.612 161.931 228.366C161.931 230.253 162.162 230.55 163.366 230.415C167.338 229.903 169.106 229.525 169.106 229.202C169.106 229.013 168.824 228.852 168.491 228.852C167.62 228.852 166.364 227.639 166.006 226.48C165.801 225.806 165.673 221.925 165.596 214.89L165.468 204.324H161.778C158.318 204.324 157.191 204.567 158.805 204.998C160.061 205.321 161.163 206.292 161.393 207.289C161.803 208.852 161.983 218.475 161.701 221.763C161.316 226.183 160.65 227.558 158.216 228.744C155.858 229.93 153.014 229.283 151.758 227.288C150.784 225.752 150.656 224.162 150.656 214.027V204.324H146.813C144.634 204.324 142.969 204.432 142.969 204.567Z" fill="black"/>
</svg>
