<?xml version="1.0" standalone="no"?>
<!DOCTYPE svg PUBLIC "-//W3C//DTD SVG 20010904//EN"
 "http://www.w3.org/TR/2001/REC-SVG-20010904/DTD/svg10.dtd">
<svg version="1.0" xmlns="http://www.w3.org/2000/svg"
 width="1280.000000pt" height="1280.000000pt" viewBox="0 0 1280.000000 1280.000000"
 preserveAspectRatio="xMidYMid meet">

<g transform="translate(0.000000,1280.000000) scale(0.100000,-0.100000)"
fill="#000000" stroke="none">
<path d="M6130 12794 c-670 -46 -1126 -127 -1655 -293 -729 -228 -1454 -613
-2050 -1090 -221 -177 -329 -273 -550 -495 -263 -263 -458 -491 -661 -771
-623 -859 -1019 -1861 -1158 -2925 -69 -530 -69 -1109 -1 -1640 148 -1134 590
-2196 1292 -3100 49 -63 98 -126 110 -140 332 -394 657 -709 1033 -1001 1120
-868 2484 -1333 3910 -1333 593 1 1129 72 1690 225 1302 356 2453 1115 3311
2184 205 255 395 537 575 852 60 106 239 461 273 543 132 313 223 563 291 799
269 930 326 1879 170 2831 -178 1087 -629 2098 -1324 2965 -252 314 -613 681
-917 930 -891 731 -1981 1221 -3079 1384 -226 33 -288 41 -465 57 -163 14
-680 26 -795 18z m417 -270 c58 -44 63 -63 73 -304 11 -247 7 -281 -43 -330
-37 -36 -94 -50 -205 -50 l-90 0 -6 248 c-3 136 -9 296 -12 355 l-5 109 130
-4 c113 -3 133 -6 158 -24z m-501 -29 c3 -25 4 -49 0 -52 -3 -3 -47 -11 -97
-17 l-91 -10 7 -76 c10 -119 5 -114 91 -106 l73 7 6 -35 c12 -64 7 -70 -69
-79 -39 -4 -71 -8 -72 -10 -2 -2 17 -191 20 -194 1 -1 44 2 95 8 51 6 94 9 96
7 2 -2 5 -25 7 -53 l3 -49 -110 -12 c-60 -7 -128 -15 -151 -19 l-40 -6 -12
108 c-6 59 -19 167 -27 238 -17 146 -35 310 -38 340 -2 17 6 21 53 27 30 4 84
12 120 17 128 17 128 17 136 -34z m957 34 c178 -15 167 -10 167 -70 l0 -51
-99 7 c-115 9 -105 18 -115 -111 l-6 -71 76 -6 c42 -3 77 -7 79 -9 2 -2 1 -25
-2 -52 l-6 -49 -78 6 -78 5 -5 -51 c-3 -29 -7 -73 -9 -99 l-4 -47 36 -5 c20
-3 65 -8 100 -12 l63 -6 -6 -30 c-3 -17 -6 -40 -6 -52 l0 -21 -152 14 c-84 7
-154 15 -156 16 -1 1 2 51 8 111 35 357 41 427 47 507 3 48 10 87 15 87 6 0
65 -5 131 -11z m-1434 -83 c6 -25 11 -49 11 -54 0 -5 -42 -17 -93 -27 l-93
-18 19 -91 c11 -50 22 -94 26 -99 4 -4 38 -1 74 7 37 7 69 11 71 7 2 -3 7 -27
11 -52 l7 -47 -63 -11 c-34 -6 -67 -15 -71 -19 -8 -8 36 -254 49 -275 6 -9
-34 -24 -77 -29 l-34 -3 -58 280 c-68 335 -81 405 -77 410 3 2 255 60 280 64
4 1 12 -19 18 -43z m1943 18 c150 -28 194 -75 184 -199 -9 -105 -23 -145 -67
-186 l-39 -36 16 -148 c8 -82 18 -153 21 -158 5 -8 -106 -1 -115 8 -1 1 -7 57
-13 123 -13 151 -19 176 -46 180 -24 4 -33 -28 -55 -188 l-12 -92 -50 6 c-27
3 -53 9 -56 13 -4 5 8 96 26 203 18 107 38 224 44 260 9 61 26 158 36 208 5
26 11 27 126 6z m653 -150 c63 -18 60 -9 41 -148 -8 -55 -29 -209 -47 -341
-18 -132 -33 -241 -33 -242 -1 -1 -26 5 -55 14 l-53 15 7 47 c3 25 8 60 11 77
6 31 4 32 -46 49 -28 9 -53 15 -54 14 -2 -2 -18 -33 -36 -69 -18 -36 -33 -66
-34 -67 -5 -6 -96 30 -96 37 0 5 71 151 157 325 109 219 161 314 170 310 8 -2
38 -12 68 -21z m449 -154 c52 -22 51 -14 1 -124 -69 -150 -195 -438 -195 -445
0 -5 35 -23 78 -41 42 -19 80 -36 83 -39 4 -3 -3 -27 -15 -53 l-21 -46 -135
60 c-74 33 -136 61 -138 63 -2 2 19 52 46 111 27 60 73 163 102 229 29 66 70
157 91 203 22 46 39 87 39 93 0 13 13 11 64 -11z m-4614 -212 c10 -24 16 -46
12 -49 -4 -3 -43 -21 -87 -39 -44 -19 -81 -35 -83 -36 -4 -2 54 -142 66 -162
7 -10 24 -6 78 17 l69 30 22 -47 c12 -26 19 -49 15 -53 -4 -3 -32 -16 -62 -28
-30 -13 -59 -27 -64 -31 -8 -8 46 -150 65 -174 5 -5 45 7 93 28 46 20 86 36
89 36 10 0 39 -92 31 -99 -19 -16 -258 -112 -268 -108 -6 3 -38 67 -70 143
-33 77 -92 217 -133 313 -41 95 -72 178 -70 184 3 11 241 115 265 116 7 1 22
-18 32 -41z m-591 -278 c61 -17 75 -37 245 -337 104 -184 87 -241 -101 -343
l-73 -39 -39 67 c-63 108 -277 484 -294 519 l-17 32 81 45 c111 63 143 72 198
56z m3416 -71 c848 -72 1627 -331 2345 -779 551 -343 1063 -823 1449 -1355
441 -608 722 -1244 890 -2010 22 -101 61 -354 78 -505 22 -194 26 -879 5
-1055 -83 -716 -240 -1253 -542 -1855 -349 -695 -887 -1336 -1525 -1815 -642
-482 -1432 -826 -2205 -959 -359 -62 -478 -71 -920 -71 -424 0 -537 8 -834 56
-951 155 -1817 557 -2557 1185 -154 132 -471 451 -599 604 -575 690 -955 1479
-1124 2331 -57 287 -82 496 -97 803 -41 884 152 1785 551 2571 192 377 392
681 669 1015 123 149 483 509 631 631 835 692 1759 1083 2835 1200 260 28 672
32 950 8z m-3758 -511 l252 -252 -37 -28 c-20 -15 -42 -28 -47 -28 -6 0 -33
23 -60 50 -27 28 -52 50 -55 50 -3 0 -25 -14 -48 -31 l-42 -30 36 -71 c19 -38
34 -71 32 -72 -2 -1 -20 -14 -40 -29 -20 -15 -39 -27 -42 -27 -3 0 -78 144
-166 320 l-160 319 57 41 c31 22 59 40 62 40 3 0 119 -113 258 -252z m7168
133 c99 -81 118 -112 113 -183 -5 -63 6 -46 -197 -302 -146 -184 -193 -195
-346 -80 -47 36 -85 68 -85 73 0 5 15 27 33 49 17 21 59 74 92 116 33 43 100
128 149 189 48 62 102 131 119 155 17 23 35 42 41 42 6 -1 43 -27 81 -59z
m-7760 -271 c18 -11 77 -69 131 -128 55 -59 117 -126 139 -150 22 -24 48 -57
58 -75 21 -39 22 -108 2 -146 -14 -28 -151 -161 -165 -161 -4 0 -23 17 -40 38
-31 34 -84 93 -214 232 -28 30 -90 98 -138 151 l-87 95 47 46 c91 88 139 118
189 118 28 0 58 -8 78 -20z m8226 -111 c57 -50 108 -95 113 -99 8 -8 -50 -80
-66 -80 -5 0 -38 27 -73 60 -35 33 -67 60 -71 60 -6 0 -70 -69 -108 -117 l-18
-24 56 -52 56 -52 -35 -38 -35 -39 -57 52 -58 52 -68 -74 -68 -73 72 -66 72
-67 -33 -40 -32 -41 -114 101 c-63 55 -113 104 -112 109 5 14 460 519 468 519
4 0 54 -41 111 -91z m-8484 -471 c134 -134 243 -248 243 -253 0 -6 -16 -26
-35 -45 l-36 -34 -251 251 -252 252 35 35 c18 19 38 35 44 35 5 1 119 -108
252 -241z m-432 -94 c18 -8 40 -23 49 -33 15 -16 13 -21 -15 -59 l-31 -42 -25
20 c-29 22 -73 26 -91 8 -20 -20 -14 -63 14 -89 24 -23 33 -24 187 -29 127 -4
170 -9 198 -23 137 -68 148 -240 21 -319 -46 -28 -143 -23 -189 12 -18 13 -33
28 -33 33 0 13 51 77 62 77 5 0 21 -9 37 -21 36 -27 76 -17 97 24 15 28 15 32
-4 56 -33 45 -57 51 -203 49 -146 -2 -176 5 -237 51 -98 73 -92 219 12 282 38
23 106 25 151 3z m-269 -456 c79 -47 122 -93 131 -141 l8 -40 150 -49 c83 -28
152 -52 154 -54 6 -5 -15 -42 -39 -72 l-19 -23 -132 45 c-72 26 -137 46 -145
46 -7 0 -18 -9 -24 -19 -8 -16 -3 -24 33 -48 23 -15 77 -52 120 -81 l77 -53
-30 -44 c-36 -52 -32 -52 -135 20 -33 24 -146 101 -250 171 -105 71 -201 137
-214 146 l-24 17 59 86 c58 86 90 117 129 128 40 11 97 -2 151 -35z m10099
-45 l25 -41 -137 -84 c-76 -47 -193 -117 -260 -157 l-121 -73 49 -81 c27 -45
45 -84 41 -88 -4 -3 -24 -16 -44 -28 l-37 -22 -14 23 c-76 122 -137 226 -137
234 1 11 590 366 602 362 5 -2 20 -22 33 -45z m-10490 -413 c4 -6 -12 -44 -34
-86 -23 -42 -41 -79 -41 -84 0 -8 147 -90 160 -90 3 0 21 29 39 65 19 36 36
65 38 65 4 0 86 -41 91 -45 2 -1 -14 -33 -34 -69 -20 -37 -35 -69 -33 -70 2
-2 42 -24 89 -49 l85 -46 45 85 c24 46 47 84 50 84 10 0 90 -40 90 -45 0 -4
-81 -157 -116 -220 -15 -26 -29 -39 -41 -38 -10 1 -76 33 -148 71 -71 38 -202
106 -290 152 -88 45 -164 86 -169 91 -4 4 16 54 47 111 30 56 62 118 71 136
l17 32 39 -20 c21 -11 42 -24 45 -30z m10789 -126 c33 -73 38 -61 -54 -126
-25 -18 -141 -104 -259 -191 -118 -87 -220 -161 -227 -164 -12 -4 -54 62 -54
86 0 5 24 26 53 47 28 21 56 41 60 44 11 10 -34 100 -50 100 -7 0 -36 -9 -65
-20 -29 -11 -59 -20 -66 -20 -13 0 -59 86 -51 95 3 3 41 16 85 29 43 14 144
45 224 71 80 26 192 62 250 80 58 19 110 34 115 34 6 0 23 -29 39 -65z
m-10829 -432 c61 -39 153 -98 205 -131 150 -94 139 -79 111 -148 -13 -32 -27
-61 -30 -65 -3 -4 -42 2 -86 12 -411 99 -583 142 -597 148 -16 6 -15 11 4 55
11 26 25 47 31 47 5 0 60 -13 121 -30 61 -16 169 -46 240 -65 71 -19 131 -33
133 -31 2 1 -96 63 -217 137 -121 74 -220 137 -220 140 0 4 9 27 20 53 l21 46
77 -49 c42 -27 127 -80 187 -119z m10996 71 c11 -25 16 -50 12 -54 -8 -8 -102
-61 -243 -137 -47 -25 -101 -55 -120 -66 -19 -12 -47 -28 -62 -35 -16 -8 -27
-16 -25 -17 1 -1 116 22 256 52 140 30 255 53 256 52 13 -18 34 -93 28 -98
-11 -10 -683 -141 -693 -135 -13 8 -52 127 -43 135 4 4 98 59 208 123 110 63
243 140 295 170 52 31 99 56 103 57 4 0 17 -21 28 -47z m190 -520 c57 -187 21
-259 -153 -303 -74 -20 -117 -17 -155 7 -26 17 -26 17 -163 -72 -146 -95 -137
-92 -150 -45 -6 23 -13 47 -16 54 -3 9 40 41 124 92 113 69 128 81 124 101 -2
13 -10 23 -17 23 -6 0 -65 -16 -131 -35 -65 -19 -124 -35 -130 -35 -10 0 -34
63 -34 91 0 10 59 31 183 66 100 28 243 69 317 91 74 23 144 41 156 41 18 1
25 -11 45 -76z m-11500 -32 c337 -104 480 -149 484 -153 3 -2 -3 -27 -12 -54
l-16 -51 -110 34 c-61 18 -181 56 -267 83 -85 27 -188 59 -227 70 -40 12 -73
25 -73 29 0 5 5 23 11 42 6 19 13 40 15 48 2 7 10 11 18 8 7 -3 87 -28 177
-56z m-31 -376 c286 -65 414 -96 418 -99 2 -3 -1 -30 -8 -60 l-11 -56 -46 0
c-25 0 -98 -5 -162 -11 -64 -5 -145 -13 -181 -16 -36 -3 -60 -7 -55 -8 6 -2
60 -15 120 -29 216 -50 277 -65 282 -69 2 -3 1 -26 -2 -51 -8 -53 -13 -55
-109 -31 -89 21 -290 68 -454 106 l-143 33 6 28 c3 15 8 41 11 57 7 37 14 38
262 47 179 6 228 15 154 29 -36 6 -257 57 -335 77 -38 9 -39 10 -32 46 13 74
8 71 78 55 34 -8 127 -30 207 -48z m11685 -186 c10 -40 14 -74 9 -78 -5 -4
-115 -52 -244 -106 -129 -53 -264 -111 -300 -127 -35 -16 -76 -32 -91 -35 -24
-4 -27 -2 -32 34 -12 67 -11 68 61 97 l69 26 -11 56 -10 55 -81 -6 -82 -7 -11
53 c-5 30 -9 55 -9 55 1 1 81 6 177 13 389 25 486 32 500 35 8 2 20 4 26 5 7
0 20 -31 29 -70z m-11870 -379 c105 -11 231 -24 282 -29 57 -6 104 -16 123
-28 107 -63 97 -244 -16 -298 -41 -19 -23 -20 -319 9 -82 9 -179 18 -215 21
-111 11 -105 7 -102 68 l4 53 136 -13 c75 -6 205 -19 287 -27 131 -13 153 -13
173 0 14 10 22 24 22 44 0 44 -29 56 -170 69 -222 22 -425 41 -431 41 -5 0 -2
44 7 88 5 26 -14 26 219 2z m11835 -31 c78 -18 120 -74 120 -161 0 -66 -25
-110 -79 -138 -57 -29 -99 -27 -106 5 -16 79 -18 74 19 81 45 8 70 36 62 68
-8 34 -38 48 -81 40 -28 -5 -53 -26 -123 -102 -48 -53 -96 -105 -107 -115 -58
-53 -169 -64 -234 -23 -49 31 -71 79 -71 153 0 92 50 151 142 167 40 7 41 6
54 -66 5 -34 4 -38 -14 -38 -78 0 -111 -85 -49 -125 47 -30 97 3 210 137 76
91 106 110 207 127 3 0 25 -4 50 -10z m-8407 -5927 c37 -35 53 -89 40 -140
-16 -61 -198 -403 -232 -436 -24 -23 -42 -30 -86 -34 -52 -4 -64 -1 -151 44
-52 27 -94 52 -94 57 0 4 20 45 44 90 24 45 74 141 111 212 37 72 90 174 118
227 l51 97 86 -46 c47 -25 97 -57 113 -71z m5023 59 c35 -16 47 -30 73 -83 40
-81 47 -124 28 -170 -16 -39 -14 -48 13 -48 40 0 101 -99 124 -203 21 -91 -71
-187 -179 -187 -56 0 -96 19 -128 62 -44 59 -43 71 9 96 26 13 48 22 49 20 1
-2 10 -17 19 -35 20 -40 46 -48 86 -28 24 13 30 22 29 48 0 30 -21 89 -45 130
-12 21 -40 24 -94 13 -34 -7 -36 -6 -48 27 -16 44 -15 67 2 67 7 0 25 9 40 21
33 26 34 60 4 119 -30 58 -50 70 -86 50 -23 -14 -27 -22 -27 -60 0 -43 -1 -45
-45 -61 l-45 -17 -12 30 c-37 87 7 177 102 212 54 20 82 19 131 -3z m-434
-482 c54 -173 100 -324 104 -335 5 -19 -1 -24 -46 -39 -28 -9 -53 -15 -55 -14
-1 2 -17 49 -33 104 -88 292 -124 401 -132 409 -8 8 -54 -1 -104 -20 -7 -3
-16 12 -22 35 -11 38 -10 40 18 52 29 12 88 72 88 89 0 11 60 40 75 36 5 -1
53 -144 107 -317z m-4157 261 c76 -27 140 -52 142 -54 5 -5 -27 -96 -33 -96
-2 0 -40 14 -86 30 -45 17 -85 30 -89 30 -6 0 -69 -160 -69 -175 0 -2 32 -14
71 -27 77 -24 78 -27 50 -100 l-10 -27 -66 24 c-36 14 -69 25 -74 25 -7 0 -71
-163 -71 -182 0 -3 37 -19 83 -33 45 -15 85 -31 90 -34 7 -7 -20 -101 -29
-101 -2 0 -21 6 -41 14 -21 8 -84 31 -140 51 -57 21 -103 40 -103 44 0 3 18
56 39 116 62 172 126 351 161 453 18 50 34 92 35 92 2 0 65 -22 140 -50z
m3597 -136 c14 -8 35 -26 46 -42 24 -33 152 -451 152 -494 0 -36 -20 -75 -57
-110 -79 -75 -210 -63 -263 24 -20 33 -23 43 -53 148 -9 30 -32 108 -52 174
-19 65 -35 136 -35 158 0 122 145 200 262 142z m-3008 -32 c17 -10 42 -34 54
-53 21 -29 23 -43 19 -97 -3 -35 -6 -65 -8 -67 -2 -2 -27 1 -55 7 l-51 10 5
46 c4 36 1 48 -13 59 -46 33 -95 0 -95 -65 0 -20 23 -83 57 -155 67 -143 76
-199 45 -269 -36 -81 -116 -121 -200 -99 -100 27 -158 132 -123 224 9 23 13
24 53 16 24 -4 46 -8 49 -9 4 0 4 -20 1 -45 -3 -35 0 -50 13 -65 25 -28 79
-27 99 2 28 40 19 84 -40 201 -62 122 -77 193 -54 261 15 47 56 95 95 112 37
18 107 11 149 -14z m2447 -89 c48 -40 69 -95 69 -181 0 -62 -8 -97 -51 -225
-28 -84 -53 -157 -55 -163 -3 -7 33 -3 96 11 71 16 103 19 105 11 14 -43 22
-86 17 -90 -4 -2 -72 -18 -152 -35 -80 -18 -152 -34 -161 -37 -12 -3 -18 7
-26 42 -10 44 -7 56 53 231 54 156 64 196 64 252 0 59 -3 71 -24 90 -50 47
-113 -1 -97 -72 10 -43 9 -44 -48 -53 -53 -8 -61 1 -61 74 0 110 63 172 177
172 52 0 66 -4 94 -27z m-1990 -8 c120 -23 144 -32 178 -70 53 -61 53 -70 -15
-423 -13 -68 -31 -137 -41 -153 -39 -66 -106 -82 -239 -58 -108 19 -103 11
-80 132 8 40 21 110 30 157 57 316 79 430 82 430 1 0 39 -7 85 -15z m771 -76
c11 -6 18 -21 18 -39 0 -58 -4 -60 -105 -60 l-92 0 -7 -52 c-3 -29 -6 -72 -6
-95 l0 -43 81 0 80 0 -3 -52 -3 -53 -76 3 c-90 4 -89 6 -89 -119 l0 -77 100
-7 100 -7 0 -49 0 -49 -156 0 -156 0 6 308 c4 169 9 330 12 357 l5 50 137 -3
c75 -2 144 -8 154 -13z"/>
<path d="M6384 12436 c-4 -9 -3 -122 1 -251 l7 -235 43 0 c70 0 75 11 74 163
-1 174 -11 303 -25 317 -7 7 -30 14 -53 17 -32 4 -42 2 -47 -11z"/>
<path d="M7466 12265 c-9 -52 -14 -100 -11 -105 9 -15 91 -12 103 3 6 7 16 43
23 80 12 63 11 69 -7 87 -10 10 -35 22 -55 25 l-35 7 -18 -97z"/>
<path d="M8038 12020 l-56 -119 35 -12 c19 -6 36 -9 38 -7 6 6 47 258 41 258
-1 0 -27 -54 -58 -120z"/>
<path d="M3312 11549 l-33 -21 19 -32 c10 -17 65 -113 121 -213 57 -101 107
-183 110 -183 17 0 70 41 76 59 5 15 -20 67 -91 194 -92 164 -131 217 -157
217 -7 0 -27 -10 -45 -21z"/>
<path d="M6500 10843 c-14 -1 -74 -7 -135 -13 -60 -5 -126 -12 -145 -15 -19
-3 -66 -10 -105 -16 -88 -13 -160 -27 -205 -39 -19 -5 -82 -21 -140 -36 -58
-14 -118 -30 -135 -34 -16 -5 -46 -13 -65 -18 -41 -12 -126 -40 -155 -52 -11
-4 -47 -18 -80 -30 -78 -29 -89 -33 -157 -64 -32 -14 -69 -28 -83 -32 -14 -3
-25 -10 -25 -15 0 -5 -5 -9 -12 -9 -16 0 -182 -83 -186 -92 -2 -5 -8 -8 -13
-8 -5 0 -38 -18 -74 -39 -36 -22 -73 -42 -84 -46 -10 -3 -31 -17 -47 -30 -16
-14 -35 -25 -41 -25 -7 0 -13 -4 -13 -10 0 -5 -6 -10 -12 -10 -7 0 -42 -22
-78 -50 -36 -27 -70 -49 -77 -50 -6 0 -13 -3 -15 -8 -1 -4 -30 -28 -63 -52
-96 -72 -205 -164 -205 -172 0 -4 -4 -8 -9 -8 -5 0 -27 -18 -49 -40 -21 -22
-42 -40 -46 -40 -8 0 -140 -132 -180 -180 -16 -19 -64 -72 -107 -118 -44 -45
-79 -86 -79 -90 0 -4 -10 -18 -23 -32 -23 -25 -108 -137 -137 -180 -8 -12 -20
-28 -25 -34 -27 -30 -225 -351 -225 -365 0 -5 -3 -11 -7 -13 -5 -1 -22 -32
-40 -68 -17 -36 -52 -106 -76 -157 -25 -50 -48 -102 -52 -115 -4 -13 -16 -43
-27 -68 -31 -71 -36 -82 -49 -125 -7 -22 -16 -44 -20 -50 -6 -9 -32 -92 -49
-160 -5 -16 -18 -66 -30 -110 -24 -86 -29 -112 -59 -280 -40 -216 -53 -330
-75 -620 -19 -250 -19 -438 0 -675 18 -239 38 -359 84 -525 6 -22 15 -58 20
-80 5 -22 18 -76 30 -120 12 -44 27 -102 34 -130 18 -70 60 -149 90 -169 24
-15 26 -15 26 0 0 9 -7 44 -16 78 -9 33 -20 81 -24 106 -4 25 -18 88 -29 140
-46 202 -57 279 -72 525 -11 185 -4 403 21 670 15 150 56 398 71 427 5 9 9 27
9 39 0 12 9 54 20 93 31 107 80 268 90 291 40 99 50 126 50 139 0 9 5 16 10
16 6 0 10 8 10 18 0 10 4 22 8 28 5 5 15 25 22 44 19 50 92 204 99 210 3 3 14
21 23 40 41 83 172 299 216 355 4 6 18 27 31 48 13 21 28 43 34 50 7 6 25 32
42 57 16 25 45 61 62 80 18 19 33 38 33 42 0 4 11 18 25 32 14 14 25 30 25 35
0 6 6 14 13 18 6 4 32 33 57 63 25 30 54 66 65 79 42 49 193 199 275 271 47
41 98 87 115 102 16 16 36 28 43 28 6 0 12 3 12 8 0 4 17 18 38 32 20 14 39
28 42 31 3 3 52 37 110 75 135 88 142 93 159 101 8 4 37 21 65 40 28 18 56 33
62 33 7 0 14 4 16 9 5 13 346 176 466 222 12 5 34 14 50 20 98 41 176 68 282
99 25 8 49 17 55 22 5 4 21 8 36 8 15 0 30 4 33 9 3 5 20 11 38 14 18 3 53 11
78 17 25 6 59 14 75 16 17 3 39 9 50 14 11 4 54 13 95 20 41 6 84 14 95 16 85
19 273 29 540 29 327 0 513 -14 740 -55 33 -6 85 -15 115 -19 83 -13 331 -79
415 -111 11 -5 36 -14 55 -20 88 -32 283 -132 310 -160 3 -3 17 -13 33 -23 35
-22 34 -31 -6 -70 -33 -34 -163 -137 -171 -137 -3 0 -34 -21 -70 -47 -35 -27
-89 -65 -118 -86 -163 -118 -367 -323 -417 -419 -8 -16 -18 -28 -23 -28 -4 0
-8 -5 -8 -12 0 -6 -9 -22 -21 -34 l-21 -23 20 -22 c12 -12 30 -27 41 -33 10
-6 57 -37 103 -70 45 -32 90 -61 98 -64 8 -3 17 -8 20 -11 3 -4 26 -17 53 -30
26 -13 47 -28 47 -33 0 -4 5 -8 12 -8 6 0 27 -12 47 -27 20 -16 45 -33 57 -39
12 -6 30 -19 40 -28 11 -9 48 -40 83 -68 86 -69 247 -230 299 -298 23 -30 64
-84 91 -119 27 -35 55 -76 63 -90 7 -14 20 -34 28 -44 20 -23 69 -107 77 -129
3 -10 9 -18 13 -18 4 0 15 -17 24 -37 16 -39 47 -94 57 -103 3 -3 20 -32 38
-65 18 -33 37 -64 42 -69 5 -6 9 -18 9 -28 0 -10 4 -18 8 -18 22 0 72 -181 72
-260 0 -47 3 -60 15 -60 11 0 14 7 10 23 -3 12 -12 63 -20 112 -31 203 -94
409 -171 569 -8 16 -14 35 -14 43 0 7 -4 13 -10 13 -5 0 -10 5 -10 11 0 15
-117 217 -141 242 -10 11 -19 26 -19 33 0 7 -4 14 -8 16 -5 2 -30 30 -57 63
-69 86 -169 187 -255 258 -41 34 -77 64 -80 67 -14 14 -95 73 -180 130 -52 35
-97 66 -100 69 -3 4 -30 22 -60 41 -68 43 -100 74 -100 96 0 29 60 116 124
178 63 63 76 74 136 116 19 13 37 27 40 30 23 24 275 146 395 190 33 12 69 26
80 30 11 5 31 11 45 14 14 2 43 10 65 16 211 60 529 94 680 71 33 -5 78 -12
101 -15 l41 -6 -11 41 c-14 52 -184 228 -306 318 -47 34 -93 68 -103 76 -9 8
-20 15 -23 15 -3 0 -26 14 -51 30 -24 17 -46 30 -48 30 -3 0 -35 19 -72 41
-67 41 -311 167 -408 210 -171 76 -252 109 -267 109 -10 0 -18 5 -18 10 0 6
-8 10 -19 10 -10 0 -43 9 -72 21 -30 12 -63 25 -74 29 -11 4 -36 14 -55 22
-19 9 -51 19 -70 22 -19 4 -60 16 -90 25 -30 10 -75 24 -100 31 -25 7 -55 16
-68 21 -13 5 -36 9 -52 9 -16 0 -31 4 -34 9 -3 4 -22 11 -43 15 -21 3 -60 10
-88 16 -199 40 -439 60 -720 58 -132 0 -251 -3 -265 -5z"/>
<path d="M5229 8825 c-474 -95 -920 -551 -1109 -1135 -78 -238 -105 -425 -105
-705 1 -293 27 -453 131 -820 98 -343 104 -369 104 -485 -1 -58 -5 -139 -10
-180 -5 -41 -14 -128 -20 -193 -10 -109 -10 -119 8 -141 20 -26 35 -23 80 18
66 59 92 202 99 556 6 276 -4 410 -62 865 -8 66 -22 212 -31 325 -33 409 17
702 174 1017 97 194 229 386 361 526 36 38 117 107 181 155 63 47 148 110 188
140 59 45 96 77 80 71 -2 -1 -33 -7 -69 -14z"/>
<path d="M7560 7824 c-81 -15 -165 -41 -236 -75 -84 -39 -164 -106 -164 -137
0 -9 14 -34 31 -55 80 -98 260 -197 434 -241 93 -24 145 -30 430 -56 259 -23
319 -76 417 -359 68 -199 170 -432 375 -861 132 -274 207 -449 214 -498 4 -21
-9 -30 -99 -77 -319 -167 -687 -287 -1037 -340 -139 -21 -436 -30 -571 -17
-395 38 -706 172 -934 402 -191 192 -301 406 -366 705 -49 228 -48 611 2 900
14 77 21 125 19 125 -2 0 -18 -26 -37 -57 -136 -232 -215 -489 -273 -893 -29
-206 -36 -248 -51 -340 -61 -376 -126 -570 -264 -795 -23 -39 -50 -83 -59
-100 -9 -16 -18 -32 -21 -35 -5 -5 -70 -129 -70 -134 0 -3 48 2 165 14 146 16
491 40 575 40 112 0 361 -27 469 -50 337 -74 602 -240 829 -521 87 -107 144
-145 249 -163 37 -6 36 -9 57 116 8 47 26 118 40 158 70 204 181 290 436 344
251 52 294 64 530 141 203 66 323 110 695 258 160 63 333 130 385 148 52 17
97 33 99 35 11 9 -107 207 -333 554 -250 384 -385 704 -456 1080 l-10 55 -60
1 c-73 1 -101 18 -130 80 -39 79 -162 234 -258 326 -145 138 -305 227 -517
291 -93 28 -113 30 -290 33 -104 1 -201 0 -215 -2z"/>
<path d="M3987 4512 c-23 -25 -21 -32 6 -32 12 0 30 12 40 25 18 25 18 25 -6
25 -13 0 -31 -8 -40 -18z"/>
<path d="M3200 4325 l0 -135 25 0 c23 0 25 3 25 50 0 34 4 50 13 50 7 0 30
-22 51 -50 31 -40 44 -50 68 -50 32 0 32 3 -14 61 -32 42 -34 49 -14 49 23 0
39 29 39 72 0 33 -6 47 -27 65 -23 19 -38 23 -97 23 l-69 0 0 -135z m128 76
c8 -4 12 -19 10 -32 -2 -20 -9 -24 -45 -27 -42 -3 -43 -2 -43 27 0 16 6 32 13
34 19 8 51 7 65 -2z"/>
<path d="M3440 4325 l0 -135 90 0 c89 0 90 0 90 25 0 24 -2 25 -65 25 l-65 0
0 30 0 30 60 0 c57 0 60 1 60 25 0 24 -3 25 -60 25 l-60 0 0 30 0 30 65 0 c63
0 65 1 65 25 0 25 -1 25 -90 25 l-90 0 0 -135z"/>
<path d="M3660 4325 l0 -135 25 0 c23 0 25 4 25 45 l0 45 44 0 c61 0 96 29 96
80 0 21 -3 46 -6 55 -11 27 -60 45 -124 45 l-60 0 0 -135z m113 76 c13 -5 27
-17 30 -25 9 -24 -28 -56 -63 -56 -28 0 -30 2 -30 39 0 48 17 59 63 42z"/>
<path d="M3890 4354 c0 -103 1 -106 29 -135 39 -39 105 -41 145 -4 14 13 26
30 27 37 0 7 2 33 5 58 3 25 2 69 -1 98 -6 47 -9 52 -31 52 -24 0 -24 -1 -24
-104 0 -111 -2 -116 -54 -116 -39 0 -46 18 -46 122 0 98 0 98 -25 98 l-25 0 0
-106z"/>
<path d="M4150 4325 l0 -135 60 0 c64 0 113 18 124 45 10 27 7 59 -8 81 -10
13 -11 25 -5 35 16 25 10 59 -16 84 -21 22 -33 25 -90 25 l-65 0 0 -135z m120
75 c23 -15 -1 -44 -39 -48 -29 -3 -31 -1 -31 27 0 27 3 31 28 31 15 0 34 -5
42 -10z m11 -106 c20 -24 -1 -48 -45 -52 -35 -3 -36 -2 -36 32 0 34 2 36 34
36 18 0 39 -7 47 -16z"/>
<path d="M4380 4325 l0 -135 85 0 c84 0 85 0 85 25 0 24 -3 25 -60 25 l-60 0
0 110 0 110 -25 0 -25 0 0 -135z"/>
<path d="M4580 4325 l0 -135 25 0 25 0 0 135 0 135 -25 0 -25 0 0 -135z"/>
<path d="M4706 4435 c-24 -22 -26 -30 -26 -104 0 -95 4 -107 41 -126 42 -22
90 -19 124 10 25 21 28 26 15 35 -8 6 -24 7 -35 4 -11 -4 -36 -7 -55 -8 l-35
-1 0 80 c0 76 1 80 23 83 13 2 37 -2 54 -9 24 -10 32 -9 44 3 14 14 13 18 -12
37 -38 30 -103 29 -138 -4z"/>
<path d="M4967 4443 c-3 -10 -23 -70 -46 -133 -23 -63 -41 -116 -41 -117 0 -2
13 -3 29 -3 25 0 31 5 36 30 6 28 10 30 52 30 41 0 46 -3 56 -30 8 -22 18 -30
35 -30 29 0 27 11 -26 160 -34 93 -41 105 -64 108 -18 2 -27 -2 -31 -15z m47
-96 l14 -47 -30 0 c-22 0 -29 4 -25 14 3 8 9 31 13 51 8 43 10 42 28 -18z"/>
<path d="M3867 3910 c-133 -24 -276 -89 -365 -165 -97 -84 -187 -239 -227
-393 -42 -165 -40 -401 6 -556 92 -312 338 -496 662 -496 112 0 188 15 274 55
133 61 217 177 248 341 18 90 18 94 5 94 -5 0 -12 -17 -15 -37 -37 -219 -152
-345 -348 -379 -280 -49 -502 115 -589 436 -20 76 -23 107 -23 295 1 169 4
223 18 275 42 153 99 268 181 366 88 104 236 160 359 135 33 -7 75 -20 92 -28
108 -56 195 -173 254 -343 38 -109 43 -120 52 -120 10 0 12 216 2 378 -6 112
-17 137 -38 90 -15 -35 -52 -37 -125 -10 -161 60 -311 82 -423 62z"/>
<path d="M5825 3904 c-139 -21 -155 -24 -155 -33 0 -5 15 -12 34 -15 38 -7 81
-51 94 -94 4 -15 7 -313 7 -662 0 -587 -1 -638 -18 -670 -20 -41 -63 -70 -101
-70 -14 0 -26 -4 -26 -10 0 -5 7 -10 15 -10 20 -1 354 -1 401 0 41 0 38 15 -4
23 -43 9 -87 50 -100 95 -9 29 -12 234 -12 751 l0 711 -22 -1 c-13 -1 -63 -7
-113 -15z"/>
<path d="M6329 3891 c-78 -78 9 -209 103 -154 85 49 46 183 -53 183 -11 0 -34
-13 -50 -29z"/>
<path d="M4993 3300 c-124 -25 -269 -144 -331 -271 -66 -136 -66 -300 0 -438
40 -85 150 -197 230 -234 174 -82 386 -43 522 96 185 189 199 474 34 674 -122
147 -280 207 -455 173z m149 -20 c54 -15 130 -89 167 -162 146 -296 49 -727
-176 -779 -72 -16 -136 5 -197 68 -71 72 -107 152 -132 288 -32 183 0 351 96
490 60 87 146 121 242 95z"/>
<path d="M6430 3305 c-8 -2 -68 -11 -132 -20 -65 -10 -118 -20 -118 -24 0 -4
19 -13 42 -21 91 -32 101 -84 96 -475 -3 -203 -8 -299 -17 -320 -19 -47 -51
-75 -93 -81 -44 -8 -51 -24 -10 -25 101 -3 415 1 420 5 3 3 -4 8 -14 12 -60
19 -93 39 -110 67 -18 30 -19 58 -22 460 -2 326 -6 427 -15 426 -7 -1 -19 -3
-27 -4z"/>
<path d="M6930 3301 c-111 -34 -172 -124 -172 -253 0 -60 4 -76 32 -121 36
-59 60 -79 221 -183 143 -93 164 -122 164 -230 0 -58 -4 -77 -25 -106 -33 -48
-72 -70 -129 -71 -100 -2 -192 92 -243 246 l-23 72 -3 -154 c-1 -85 0 -156 3
-159 3 -3 13 2 23 11 25 23 42 21 115 -9 78 -32 193 -37 247 -9 48 24 108 82
133 130 32 62 35 174 7 249 -31 82 -84 130 -230 207 -81 42 -134 77 -155 102
-111 129 20 323 167 247 70 -36 115 -94 137 -177 21 -76 30 -47 24 75 -3 64
-7 119 -9 121 -2 2 -16 -2 -30 -9 -21 -12 -31 -12 -57 -1 -75 30 -144 38 -197
22z"/>
<path d="M7780 3295 c-140 -40 -249 -149 -301 -302 -33 -94 -33 -266 -1 -368
67 -220 254 -336 492 -306 87 11 147 40 198 95 36 40 89 152 77 164 -7 7 -7 7
-39 -61 -45 -94 -145 -146 -255 -133 -178 21 -291 165 -319 406 -5 47 -7 102
-5 123 l5 37 299 0 299 0 0 29 c0 16 -9 58 -20 94 -43 139 -151 223 -297 232
-53 3 -96 0 -133 -10z m190 -42 c50 -35 96 -125 106 -205 l6 -58 -222 0 -223
0 7 47 c7 56 43 137 79 179 66 78 168 93 247 37z"/>
<path d="M8350 3281 c0 -5 13 -12 28 -16 44 -9 91 -42 104 -73 9 -18 14 -136
18 -367 5 -328 6 -342 27 -382 84 -157 364 -172 513 -27 20 19 39 34 43 34 4
0 7 -24 7 -52 0 -70 9 -81 56 -76 155 19 224 33 224 45 0 7 -11 13 -24 13 -34
0 -83 45 -97 88 -8 25 -13 169 -16 430 l-5 392 -144 0 c-135 0 -179 -9 -116
-25 49 -12 92 -48 101 -85 16 -58 23 -415 12 -537 -15 -164 -41 -215 -136
-259 -92 -44 -203 -20 -252 54 -38 57 -43 116 -43 492 l0 360 -150 0 c-85 0
-150 -4 -150 -9z"/>
<path d="M2912 11043 c35 -68 66 -123 70 -123 4 0 18 10 32 23 l26 22 -95 100
-95 100 62 -122z"/>
<path d="M10083 11018 c-48 -62 -116 -148 -151 -192 -61 -76 -62 -79 -45 -99
28 -31 62 -40 88 -23 36 24 265 326 265 350 0 20 -46 76 -62 76 -4 0 -46 -51
-95 -112z"/>
<path d="M2343 10833 l-31 -27 110 -120 c61 -67 138 -149 171 -184 l60 -63 28
27 c55 52 52 58 -148 272 -125 133 -136 139 -190 95z"/>
<path d="M1384 9739 c-19 -10 -61 -67 -52 -73 1 -1 38 -25 80 -54 43 -29 81
-52 86 -52 5 0 17 15 27 33 27 51 15 78 -54 120 -32 21 -61 37 -63 36 -1 0
-12 -5 -24 -10z"/>
<path d="M11625 9116 c-66 -22 -122 -42 -124 -44 -3 -1 3 -18 13 -38 15 -33
18 -35 36 -23 10 8 59 42 109 77 50 35 91 65 91 68 0 2 -1 3 -2 3 -2 -1 -57
-20 -123 -43z"/>
<path d="M12070 8273 c-47 -14 -87 -27 -89 -29 -11 -10 21 -82 41 -91 26 -11
131 16 156 41 17 17 8 106 -11 105 -7 0 -50 -12 -97 -26z"/>
<path d="M12080 7703 c-95 -6 -99 -8 -90 -49 5 -19 10 -37 12 -38 1 -2 57 18
123 45 l120 48 -55 -1 c-30 -1 -80 -3 -110 -5z"/>
<path d="M3808 1343 c-14 -27 -63 -120 -108 -208 -46 -88 -87 -165 -92 -172
-7 -8 0 -17 21 -27 39 -21 74 -20 93 2 9 9 57 97 108 194 63 122 90 184 85
197 -5 17 -61 61 -77 61 -3 0 -16 -21 -30 -47z"/>
<path d="M7882 1024 c-34 -24 -33 -30 69 -367 34 -110 56 -135 103 -117 51 19
50 41 -15 262 -60 203 -77 238 -118 238 -9 0 -27 -7 -39 -16z"/>
<path d="M5435 733 c-15 -82 -33 -184 -41 -228 -8 -44 -16 -87 -18 -96 -4 -21
53 -33 89 -19 27 10 33 29 59 180 10 52 24 130 32 173 9 42 12 86 9 98 -7 22
-42 39 -79 39 -22 0 -25 -8 -51 -147z"/>
</g>
</svg>
