<?xml version="1.0" encoding="UTF-8"?>
<!DOCTYPE svg PUBLIC "-//W3C//DTD SVG 1.1//EN" "http://www.w3.org/Graphics/SVG/1.1/DTD/svg11.dtd">
<!-- Creator: CorelDRAW 2020 (64 Bit) -->
<svg xmlns="http://www.w3.org/2000/svg" xml:space="preserve" width="297mm" height="210mm" version="1.1" style="shape-rendering:geometricPrecision; text-rendering:geometricPrecision; image-rendering:optimizeQuality; fill-rule:evenodd; clip-rule:evenodd"
viewBox="0 0 29700 21000"
 xmlns:xlink="http://www.w3.org/1999/xlink"
 xmlns:xodm="http://www.corel.com/coreldraw/odm/2003">
 <defs>
  <style type="text/css">
   <![CDATA[
    .str0 {stroke:#FF2E34;stroke-width:20;stroke-miterlimit:22.9256}
    .fil0 {fill:black;fill-rule:nonzero}
    .fil1 {fill:#FF2E34;fill-rule:nonzero}
   ]]>
  </style>
 </defs>
 <g id="Camada_x0020_1">
  <metadata id="CorelCorpID_0Corel-Layer"/>
  <path class="fil0" d="M14423.91 428.44c-1056.32,72.52 -1775.24,200.22 -2609.26,461.94 -1149.33,359.46 -2292.35,966.45 -3232,1718.48 -348.43,279.06 -518.7,430.41 -867.13,780.41 -414.64,414.64 -722.07,774.11 -1042.12,1215.55 -982.22,1354.29 -1606.55,2934.03 -1825.69,4611.52 -108.79,835.59 -108.79,1748.44 -1.58,2585.61 233.34,1787.85 930.19,3462.18 2036.95,4887.42 77.26,99.32 154.51,198.65 173.43,220.72 523.43,621.17 1035.82,1117.8 1628.61,1578.17 1765.78,1368.47 3916.25,2101.59 6164.46,2101.59 934.92,-1.58 1779.97,-113.51 2664.44,-354.73 2052.72,-561.27 3867.37,-1757.9 5220.08,-3443.27 323.2,-402.03 622.75,-846.63 906.53,-1343.26 94.6,-167.11 376.81,-726.81 430.41,-856.08 208.11,-493.47 351.58,-887.62 458.79,-1259.69 424.1,-1466.23 513.97,-2962.41 268.02,-4463.32 -280.63,-1713.75 -991.68,-3307.69 -2087.41,-4674.59 -397.3,-495.04 -966.45,-1073.65 -1445.73,-1466.22 -1404.74,-1152.49 -3123.22,-1925.02 -4854.31,-2182 -356.31,-52.03 -454.06,-64.64 -733.12,-89.86 -256.98,-22.07 -1072.08,-40.99 -1253.38,-28.38l0.01 -0.01zm657.43 425.68c91.44,69.36 99.33,99.32 115.09,479.28 17.35,389.41 11.04,443.02 -67.79,520.27 -58.33,56.76 -148.2,78.83 -323.2,78.83l-141.89 0 -9.46 -390.99c-4.73,-214.42 -14.19,-466.67 -18.92,-559.69l-7.88 -171.85 204.95 6.31c178.16,4.72 209.69,9.46 249.11,37.84l-0.01 0zm-789.87 45.71c4.73,39.42 6.31,77.26 0,81.98 -4.72,4.73 -74.1,17.35 -152.92,26.81l-143.47 15.76 11.03 119.82c15.77,187.62 7.88,179.74 143.47,167.12l115.09 -11.03 9.46 55.17c18.92,100.91 11.04,110.36 -108.78,124.55 -61.49,6.31 -111.94,12.61 -113.52,15.77 -3.15,3.16 26.8,301.13 31.54,305.86 1.58,1.58 69.37,-3.16 149.77,-12.61 80.41,-9.46 148.2,-14.19 151.36,-11.04 3.15,3.16 7.88,39.42 11.03,83.56l4.73 77.25 -173.43 18.92c-94.59,11.03 -201.8,23.65 -238.06,29.96l-63.06 9.46 -18.92 -170.27c-9.46,-93.02 -29.96,-263.29 -42.57,-375.23 -26.8,-230.18 -55.18,-488.74 -59.91,-536.04 -3.16,-26.8 9.46,-33.11 83.56,-42.57 47.29,-6.3 132.43,-18.91 189.19,-26.8 201.8,-26.8 201.8,-26.8 214.41,53.6zm1508.8 -53.6c280.63,23.65 263.29,15.77 263.29,110.36l0 80.41 -156.08 -11.04c-181.31,-14.18 -165.55,-28.37 -181.31,175l-9.46 111.94 119.82 9.46c66.22,4.73 121.4,11.04 124.55,14.19 3.15,3.16 1.58,39.41 -3.16,81.98l-9.46 77.25 -122.97 -9.46 -122.98 -7.88 -7.88 80.41c-4.73,45.72 -11.04,115.09 -14.19,156.08l-6.31 74.1 56.76 7.88c31.53,4.73 102.48,12.62 157.66,18.92l99.32 9.46 -9.46 47.3c-4.73,26.8 -9.46,63.06 -9.46,81.98l0 33.11 -239.64 -22.08c-132.43,-11.03 -242.79,-23.65 -245.94,-25.22 -1.58,-1.58 3.15,-80.41 12.61,-175 55.18,-562.84 64.64,-673.2 74.1,-799.33 4.73,-75.67 15.77,-137.16 23.65,-137.16 9.46,0 102.48,7.88 206.53,17.34l0.01 0zm-2260.83 130.86c9.46,39.41 17.35,77.25 17.35,85.13 0,7.89 -66.22,26.8 -146.62,42.57l-146.63 28.38 29.96 143.47c17.34,78.83 34.68,148.2 40.99,156.08 6.31,6.31 59.91,1.58 116.67,-11.03 58.33,-11.04 108.79,-17.35 111.94,-11.04 3.15,4.73 11.03,42.57 17.34,81.98l11.04 74.11 -99.33 17.34c-53.6,9.46 -105.63,23.65 -111.94,29.96 -12.61,12.61 56.76,400.45 77.26,433.56 9.46,14.19 -53.61,37.84 -121.4,45.72l-53.6 4.73 -91.45 -441.45c-107.2,-528.16 -127.7,-638.51 -121.39,-646.4 4.72,-3.15 402.03,-94.59 441.44,-100.9 6.31,-1.58 18.92,29.96 28.38,67.79l-0.01 0zm3063.31 -28.38c236.49,44.14 305.86,118.24 290.09,313.74 -14.19,165.54 -36.26,228.61 -105.63,293.25l-61.48 56.75 25.22 233.34c12.61,129.28 28.38,241.22 33.11,249.1 7.88,12.61 -167.12,1.58 -181.31,-12.61 -1.58,-1.58 -11.03,-89.87 -20.49,-193.92 -20.5,-238.07 -29.96,-277.48 -72.53,-283.79 -37.84,-6.31 -52.03,44.15 -86.71,296.4l-18.92 145.05 -78.83 -9.46c-42.57,-4.73 -83.56,-14.19 -88.29,-20.5 -6.31,-7.88 12.61,-151.35 40.99,-320.05 28.38,-168.69 59.91,-353.15 69.37,-409.91 14.19,-96.17 40.99,-249.1 56.76,-327.93 7.88,-40.99 17.34,-42.57 198.65,-9.46l0 0zm1029.51 236.49c99.33,28.38 94.6,14.19 64.64,233.33 -12.61,86.72 -45.72,329.51 -74.1,537.62 -28.38,208.11 -52.03,379.95 -52.03,381.53 -1.57,1.58 -40.99,-7.88 -86.71,-22.07l-83.56 -23.65 11.04 -74.1c4.72,-39.42 12.61,-94.6 17.34,-121.4 9.46,-48.88 6.31,-50.45 -72.52,-77.25 -44.15,-14.19 -83.56,-23.65 -85.14,-22.08 -3.15,3.16 -28.38,52.03 -56.76,108.79 -28.38,56.76 -52.03,104.05 -53.6,105.63 -7.88,9.46 -151.35,-47.3 -151.35,-58.33 0,-7.89 111.93,-238.07 247.52,-512.4 171.85,-345.27 253.83,-495.04 268.02,-488.74 12.61,3.16 59.91,18.92 107.21,33.11l0 0.01zm707.89 242.79c81.98,34.69 80.41,22.08 1.58,195.5 -108.79,236.49 -307.44,690.55 -307.44,701.58 0,7.88 55.18,36.26 122.98,64.64 66.22,29.96 126.12,56.76 130.86,61.49 6.3,4.72 -4.73,42.56 -23.65,83.55l-33.11 72.53 -212.84 -94.6c-116.67,-52.03 -214.42,-96.17 -217.57,-99.32 -3.15,-3.16 29.96,-81.99 72.53,-175 42.56,-94.6 115.09,-256.99 160.81,-361.04 45.72,-104.06 110.36,-247.53 143.47,-320.05 34.68,-72.52 61.48,-137.16 61.48,-146.62 0,-20.5 20.5,-17.35 100.9,17.34l0 0zm-7274.38 334.24c15.77,37.84 25.23,72.52 18.92,77.25 -6.31,4.73 -67.79,33.11 -137.16,61.49 -69.37,29.95 -127.71,55.18 -130.86,56.76 -6.31,3.15 85.13,223.87 104.05,255.4 11.03,15.77 37.84,9.46 122.98,-26.8l108.78 -47.29 34.69 74.1c18.91,40.99 29.95,77.25 23.65,83.56 -6.31,4.72 -50.46,25.22 -97.75,44.14 -47.3,20.5 -93.02,42.57 -100.9,48.87 -12.62,12.62 72.52,236.49 102.48,274.33 7.88,7.88 70.94,-11.04 146.62,-44.15 72.52,-31.53 135.58,-56.75 140.31,-56.75 15.77,0 61.49,145.04 48.88,156.08 -29.96,25.22 -406.76,176.58 -422.53,170.27 -9.46,-4.73 -59.91,-105.63 -110.36,-225.45 -52.02,-121.4 -145.04,-342.12 -209.68,-493.47 -64.64,-149.78 -113.51,-280.63 -110.36,-290.09 4.73,-17.35 379.96,-181.31 417.8,-182.89 11.03,-1.57 34.68,28.38 50.45,64.64l-0.01 0zm-931.76 438.29c96.17,26.8 118.24,58.34 386.27,531.31 163.96,290.09 137.16,379.96 -159.24,540.77l-115.09 61.49 -61.49 -105.63c-99.32,-170.28 -436.71,-763.07 -463.51,-818.26l-26.81 -50.45 127.71 -70.94c175,-99.33 225.45,-113.52 312.16,-88.29l0 0zm5385.63 111.94c1336.95,113.51 2565.11,521.85 3697.1,1228.16 868.7,540.77 1675.91,1297.53 2284.47,2136.28 695.28,958.56 1138.3,1961.27 1403.16,3168.94 34.69,159.23 96.17,558.11 122.98,796.17 34.68,305.86 40.99,1385.83 7.88,1663.31 -130.86,1128.83 -378.38,1975.46 -854.51,2924.57 -550.23,1095.73 -1398.43,2106.32 -2404.3,2861.51 -1012.16,759.91 -2257.67,1302.26 -3476.37,1511.94 -566,97.75 -753.61,111.94 -1450.47,111.94 -668.47,0 -846.62,-12.61 -1314.87,-88.29 -1499.34,-244.37 -2864.66,-878.16 -4031.34,-1868.26 -242.79,-208.11 -742.57,-711.04 -944.37,-952.26 -906.54,-1087.84 -1505.65,-2331.77 -1772.09,-3675.02 -89.86,-452.48 -129.28,-781.99 -152.92,-1266.01 -64.64,-1393.7 239.64,-2814.2 868.7,-4053.4 302.7,-594.38 618.02,-1073.66 1054.73,-1600.24 193.93,-234.91 761.5,-802.48 994.83,-994.83 1316.45,-1090.99 2773.22,-1707.44 4469.63,-1891.9 409.91,-44.15 1059.47,-50.45 1497.76,-12.61zm-5924.82 805.64l397.3 397.3 -58.34 44.14c-31.53,23.65 -66.21,44.15 -74.1,44.15 -9.46,0 -52.03,-36.26 -94.59,-78.83 -42.57,-44.15 -81.98,-78.83 -86.72,-78.83 -4.73,0 -39.41,22.07 -75.67,48.87l-66.22 47.3 56.76 111.93c29.95,59.92 53.6,111.94 50.45,113.52 -3.16,1.58 -31.54,22.07 -63.06,45.72 -31.54,23.65 -61.49,42.57 -66.22,42.57 -4.73,0 -122.98,-227.03 -261.72,-504.51l-252.25 -502.93 89.87 -64.64c48.87,-34.69 93.02,-63.06 97.74,-63.06 4.73,0 187.62,178.15 406.76,397.3l0.01 0zm11300.98 -209.69c156.08,127.7 186.04,176.57 178.15,288.51 -7.88,99.33 9.47,72.53 -310.58,476.13 -230.19,290.09 -304.28,307.44 -545.5,126.13 -74.1,-56.76 -134.01,-107.21 -134.01,-115.09 0,-7.89 23.65,-42.57 52.03,-77.26 26.8,-33.1 93.02,-116.67 145.05,-182.88 52.03,-67.79 157.66,-201.8 234.91,-297.97 75.67,-97.75 160.81,-206.54 187.61,-244.38 26.81,-36.26 55.18,-66.22 64.65,-66.22 9.46,1.58 67.79,42.57 127.7,93.02l-0.01 0.01zm-12234.32 427.25c28.38,17.35 121.39,108.79 206.53,201.81 86.71,93.02 184.46,198.65 219.15,236.49 34.68,37.84 75.67,89.86 91.44,118.24 33.1,61.49 34.68,170.27 3.15,230.19 -22.07,44.14 -238.06,253.82 -260.13,253.82 -6.31,0 -36.27,-26.8 -63.07,-59.91 -48.87,-53.6 -132.43,-146.62 -337.38,-365.76 -44.15,-47.3 -141.9,-154.51 -217.57,-238.07l-137.17 -149.77 74.11 -72.53c143.47,-138.73 219.14,-186.04 297.97,-186.04 44.15,0 91.44,12.62 122.98,31.54l-0.01 -0.01zm12969.01 175c89.86,78.83 170.27,149.78 178.15,156.09 12.61,12.61 -78.83,126.12 -104.05,126.12 -7.88,0 -59.91,-42.57 -115.09,-94.59 -55.18,-52.03 -105.63,-94.6 -111.94,-94.6 -9.46,0 -110.36,108.78 -170.27,184.46l-28.38 37.84 88.29 81.98 88.29 81.98 -55.18 59.91 -55.18 61.49 -89.86 -81.98 -91.44 -81.98 -107.21 116.67 -107.21 115.09 113.52 104.05 113.51 105.63 -52.03 63.07 -50.45 64.64 -179.73 -159.24c-99.33,-86.71 -178.16,-163.97 -176.58,-171.85 7.88,-22.07 725.23,-818.25 737.84,-818.25 6.31,0 85.14,64.64 175,143.47l0 0zm-13375.77 742.58c211.26,211.26 383.11,390.99 383.11,398.88 0,9.46 -25.23,40.99 -55.18,70.94l-56.76 53.61 -395.72 -395.73 -397.3 -397.3 55.18 -55.18c28.38,-29.95 59.91,-55.18 69.37,-55.18 7.88,-1.57 187.61,170.28 397.3,379.96zm-681.09 148.2c28.38,12.61 63.06,36.26 77.25,52.03 23.65,25.22 20.5,33.1 -23.65,93.02l-48.87 66.21 -39.41 -31.53c-45.73,-34.68 -115.1,-40.99 -143.48,-12.61 -31.53,31.53 -22.07,99.32 22.08,140.31 37.84,36.27 52.03,37.84 294.82,45.73 200.23,6.3 268.02,14.19 312.16,36.26 216,107.21 233.34,378.38 33.11,502.93 -72.53,44.15 -225.45,36.26 -297.98,-18.92 -28.37,-20.49 -52.03,-44.14 -52.03,-52.03 0,-20.49 80.41,-121.39 97.75,-121.39 7.89,0 33.11,14.19 58.34,33.1 56.75,42.57 119.82,26.8 152.92,-37.84 23.65,-44.14 23.65,-50.45 -6.3,-88.29 -52.03,-70.94 -89.87,-80.4 -320.05,-77.25 -230.18,3.16 -277.48,-7.88 -373.65,-80.41 -154.5,-115.09 -145.05,-345.27 18.92,-444.59 59.91,-36.27 167.11,-39.42 238.06,-4.73l0.01 0zm-424.1 718.92c124.55,74.1 192.34,146.62 206.53,222.3l12.61 63.06 236.49 77.25c130.86,44.15 239.64,81.99 242.8,85.14 9.46,7.88 -23.65,66.22 -61.49,113.52l-29.95 36.26 -208.11 -70.95c-113.52,-40.99 -216,-72.52 -228.61,-72.52 -11.03,0 -28.38,14.19 -37.84,29.95 -12.61,25.23 -4.73,37.84 52.03,75.68 36.26,23.65 121.4,81.98 189.19,127.7l121.4 83.56 -47.3 69.37c-56.76,81.98 -50.45,81.98 -212.84,-31.54 -52.03,-37.84 -230.18,-159.23 -394.14,-269.59 -165.55,-111.94 -316.9,-216 -337.39,-230.19l-37.84 -26.8 93.02 -135.58c91.44,-135.59 141.89,-184.46 203.38,-201.81 63.06,-17.34 152.92,3.16 238.06,55.18l0 0.01zm15921.96 70.95l39.41 64.64 -215.99 132.43c-119.82,74.1 -304.28,184.46 -409.91,247.52l-190.77 115.09 77.25 127.71c42.57,70.94 70.95,132.43 64.64,138.74 -6.3,4.72 -37.84,25.22 -69.37,44.14l-58.33 34.69 -22.07 -36.27c-119.82,-192.34 -216,-356.31 -216,-368.92 1.58,-17.34 930.19,-577.03 949.11,-570.73 7.88,3.16 31.53,34.69 52.03,70.95l0 0.01zm-16538.41 651.13c6.31,9.46 -18.91,69.37 -53.6,135.59 -36.26,66.22 -64.64,124.55 -64.64,132.43 0,12.61 231.76,141.89 252.25,141.89 4.73,0 33.11,-45.72 61.49,-102.48 29.95,-56.76 56.76,-102.48 59.91,-102.48 6.31,0 135.59,64.64 143.47,70.95 3.16,1.58 -22.07,52.03 -53.6,108.78 -31.53,58.34 -55.18,108.79 -52.03,110.36 3.16,3.16 66.22,37.84 140.32,77.26l134 72.52 70.95 -134.01c37.84,-72.52 74.1,-132.43 78.83,-132.43 15.77,0 141.89,63.06 141.89,70.94 0,6.31 -127.7,247.53 -182.88,346.85 -23.65,40.99 -45.72,61.49 -64.64,59.92 -15.77,-1.58 -119.82,-52.03 -233.33,-111.94 -111.94,-59.91 -318.47,-167.12 -457.22,-239.64 -138.73,-70.95 -258.56,-135.59 -266.44,-143.47 -6.3,-6.31 25.23,-85.14 74.1,-175 47.3,-88.29 97.75,-186.04 111.94,-214.42l26.8 -50.45 61.49 31.53c33.1,17.35 66.21,37.84 70.94,47.3zm17009.81 198.65c52.03,115.09 59.91,96.17 -85.13,198.65 -39.42,28.38 -222.3,163.97 -408.34,301.13 -186.04,137.16 -346.85,253.83 -357.89,258.56 -18.91,6.31 -85.13,-97.74 -85.13,-135.58 0,-7.89 37.84,-40.99 83.56,-74.11 44.14,-33.1 88.29,-64.64 94.59,-69.36 17.35,-15.77 -53.6,-157.66 -78.83,-157.66 -11.03,0 -56.75,14.18 -102.48,31.53 -45.72,17.34 -93.02,31.53 -104.05,31.53 -20.5,0 -93.02,-135.58 -80.41,-149.77 4.73,-4.73 64.64,-25.23 134.01,-45.73 67.79,-22.07 227.03,-70.94 353.16,-111.93 126.12,-40.99 302.7,-97.75 394.14,-126.13 91.44,-29.96 173.43,-53.6 181.31,-53.6 9.46,0 36.26,45.72 61.48,102.48l0.01 -0.01zm-17072.87 681.09c96.17,61.48 241.22,154.5 323.2,206.53 236.49,148.2 219.14,124.55 175,233.33 -20.5,50.46 -42.57,96.17 -47.3,102.48 -4.73,6.31 -66.22,-3.15 -135.58,-18.91 -647.98,-156.09 -919.15,-223.88 -941.23,-233.34 -25.22,-9.46 -23.65,-17.34 6.31,-86.71 17.34,-40.99 39.41,-74.1 48.87,-74.1 7.89,0 94.6,20.49 190.77,47.29 96.17,25.23 266.44,72.53 378.38,102.48 111.94,29.96 206.54,52.03 209.69,48.88 3.15,-1.58 -151.36,-99.33 -342.12,-216 -190.77,-116.67 -346.85,-215.99 -346.85,-220.72 0,-6.31 14.19,-42.57 31.53,-83.56l33.11 -72.52 121.4 77.25c66.21,42.57 200.22,126.13 294.82,187.62l0 0zm17336.16 -111.95c17.35,39.42 25.23,78.83 18.92,85.14 -12.61,12.61 -160.81,96.17 -383.11,216 -74.1,39.41 -159.24,86.71 -189.19,104.05 -29.96,18.92 -74.1,44.14 -97.75,55.18 -25.22,12.61 -42.57,25.22 -39.41,26.8 1.58,1.58 182.88,-34.69 403.61,-81.98 220.72,-47.3 402.02,-83.56 403.6,-81.98 20.5,28.38 53.6,146.62 44.15,154.5 -17.35,15.77 -1076.81,222.3 -1092.58,212.84 -20.49,-12.61 -81.98,-200.23 -67.79,-212.84 6.31,-6.3 154.51,-93.02 327.93,-193.92 173.43,-99.32 383.11,-220.72 465.09,-268.02 81.98,-48.87 156.09,-88.29 162.39,-89.86 6.31,0 26.8,33.1 44.15,74.1l-0.01 -0.01zm299.55 819.83c89.87,294.82 33.11,408.34 -241.21,477.71 -116.67,31.53 -184.46,26.8 -244.38,-11.03 -40.99,-26.8 -40.99,-26.8 -256.98,113.51 -230.18,149.78 -216,145.05 -236.49,70.95 -9.46,-36.26 -20.5,-74.1 -25.22,-85.14 -4.73,-14.19 63.06,-64.64 195.49,-145.05 178.16,-108.78 201.81,-127.7 195.5,-159.23 -3.16,-20.5 -15.77,-36.27 -26.81,-36.27 -9.46,0 -102.48,25.23 -206.53,55.18 -102.48,29.96 -195.49,55.18 -204.95,55.18 -15.77,0 -53.61,-99.32 -53.61,-143.47 0,-15.76 93.02,-48.87 288.52,-104.05 157.66,-44.15 383.11,-108.79 499.78,-143.47 116.67,-36.26 227.03,-64.64 245.94,-64.64 28.38,-1.58 39.42,17.34 70.95,119.82l0 0zm-18130.76 50.45c531.31,163.97 756.76,234.92 763.07,241.22 4.73,3.16 -4.73,42.57 -18.92,85.14l-25.22 80.41 -173.43 -53.61c-96.17,-28.38 -285.36,-88.29 -420.95,-130.86 -134.01,-42.56 -296.4,-93.01 -357.89,-110.35 -63.06,-18.92 -115.09,-39.42 -115.09,-45.73 0,-7.88 7.89,-36.26 17.35,-66.22 9.46,-29.95 20.49,-63.06 23.65,-75.67 3.15,-11.03 15.76,-17.34 28.38,-12.61 11.03,4.73 137.16,44.14 279.05,88.29l0 -0.01zm-48.87 592.8c450.9,102.48 652.71,151.35 659.01,156.08 3.16,4.73 -1.58,47.3 -12.61,94.6l-17.34 88.29 -72.53 0c-39.41,0 -154.5,7.88 -255.41,17.34 -100.9,7.89 -228.6,20.5 -285.36,25.23 -56.76,4.73 -94.6,11.03 -86.71,12.61 9.46,3.15 94.59,23.65 189.19,45.72 340.54,78.83 436.71,102.48 444.59,108.79 3.16,4.73 1.58,40.99 -3.15,80.41 -12.61,83.55 -20.5,86.71 -171.85,48.87 -140.32,-33.11 -457.21,-107.21 -715.77,-167.12l-225.45 -52.03 9.46 -44.14c4.73,-23.65 12.61,-64.64 17.34,-89.87 11.04,-58.33 22.08,-59.91 413.07,-74.1 282.21,-9.46 359.46,-23.65 242.8,-45.72 -56.76,-9.46 -405.19,-89.86 -528.16,-121.4 -59.92,-14.19 -61.49,-15.77 -50.45,-72.52 20.49,-116.67 12.61,-111.94 122.97,-86.72 53.6,12.62 200.23,47.3 326.35,75.68l0.01 0zm18422.43 293.25c15.76,63.06 22.07,116.67 14.19,122.97 -7.89,6.31 -181.31,81.98 -384.69,167.12 -203.38,83.56 -416.22,175 -472.98,200.23 -55.18,25.22 -119.82,50.45 -143.47,55.17 -37.84,6.31 -42.57,3.16 -50.45,-53.6 -18.92,-105.63 -17.34,-107.21 96.17,-152.92l108.79 -40.99 -17.35 -88.3 -15.77 -86.71 -127.7 9.46 -129.28 11.04 -17.34 -83.56c-7.89,-47.3 -14.19,-86.71 -14.19,-86.71 1.57,-1.58 127.7,-9.47 279.05,-20.5 613.3,-39.41 766.23,-50.45 788.3,-55.18 12.61,-3.15 31.53,-6.31 40.99,-7.88 11.03,0 31.53,48.87 45.72,110.36l0.01 0zm-18714.1 597.52c165.54,17.35 364.19,37.84 444.6,45.73 89.86,9.46 163.96,25.22 193.92,44.14 168.69,99.33 152.92,384.69 -25.23,469.83 -64.64,29.95 -36.26,31.53 -502.93,-14.19 -129.28,-14.19 -282.2,-28.38 -338.96,-33.11 -175,-17.34 -165.55,-11.03 -160.81,-107.21l6.3 -83.56 214.42 20.5c118.24,9.46 323.2,29.95 452.48,42.57 206.53,20.49 241.22,20.49 272.75,0 22.07,-15.77 34.69,-37.84 34.69,-69.37 0,-69.37 -45.73,-88.29 -268.02,-108.79 -350.01,-34.68 -670.05,-64.64 -679.51,-64.64 -7.88,0 -3.16,-69.37 11.03,-138.74 7.89,-40.99 -22.07,-40.99 345.27,-3.15l0 -0.01zm18658.92 48.88c122.97,28.38 189.19,116.67 189.19,253.83 0,104.05 -39.42,173.42 -124.55,217.56 -89.87,45.73 -156.09,42.57 -167.12,-7.88 -25.22,-124.55 -28.38,-116.67 29.96,-127.7 70.94,-12.61 110.36,-56.76 97.74,-107.21 -12.61,-53.6 -59.91,-75.68 -127.7,-63.06 -44.14,7.88 -83.56,40.99 -193.92,160.81 -75.68,83.55 -151.36,165.54 -168.7,181.3 -91.44,83.56 -266.44,100.9 -368.92,36.26 -77.25,-48.87 -111.93,-124.54 -111.93,-241.21 0,-145.05 78.83,-238.07 223.87,-263.29 63.06,-11.04 64.64,-9.47 85.14,104.05 7.88,53.6 6.3,59.91 -22.08,59.91 -122.97,0 -175,134.01 -77.25,197.07 74.1,47.3 152.93,-4.72 331.08,-215.99 119.82,-143.47 167.12,-173.43 326.36,-200.23 4.72,0 39.41,6.31 78.83,15.77l0 0.01zm-13254.38 9344.43c58.34,55.18 83.56,140.32 63.06,220.73 -25.22,96.17 -312.16,635.36 -365.76,687.39 -37.84,36.26 -66.22,47.29 -135.59,53.6 -81.98,6.31 -100.9,1.58 -238.06,-69.37 -81.98,-42.57 -148.2,-81.98 -148.2,-89.86 0,-6.31 31.53,-70.95 69.37,-141.9 37.84,-70.94 116.67,-222.3 175,-334.23 58.33,-113.52 141.89,-274.33 186.04,-357.89l80.4 -152.93 135.59 72.53c74.1,39.41 152.93,89.86 178.16,111.93l-0.01 0zm7919.2 -93.02c55.18,25.23 74.1,47.3 115.1,130.86 63.06,127.71 74.1,195.5 44.14,268.02 -25.22,61.49 -22.07,75.68 20.5,75.68 63.06,0 159.23,156.08 195.49,320.04 33.11,143.48 -111.94,294.82 -282.21,294.82 -88.29,0 -151.35,-29.95 -201.8,-97.74 -69.37,-93.02 -67.79,-111.94 14.19,-151.36 40.99,-20.49 75.67,-34.68 77.25,-31.53 1.58,3.15 15.77,26.8 29.95,55.18 31.54,63.06 72.53,75.67 135.59,44.14 37.84,-20.49 47.3,-34.68 45.72,-75.67 0,-47.3 -33.1,-140.32 -70.94,-204.96 -18.92,-33.1 -63.06,-37.84 -148.2,-20.49 -53.6,11.03 -56.76,9.46 -75.68,-42.57 -25.22,-69.37 -23.65,-105.63 3.16,-105.63 11.03,0 39.41,-14.19 63.06,-33.11 52.03,-40.99 53.61,-94.59 6.31,-187.61 -47.3,-91.44 -78.83,-110.36 -135.59,-78.83 -36.26,22.07 -42.57,34.68 -42.57,94.59 0,67.8 -1.57,70.95 -70.94,96.17l-70.95 26.81 -18.92 -47.3c-58.33,-137.17 11.04,-279.06 160.81,-334.24 85.14,-31.53 129.29,-29.95 206.54,4.73l-0.01 0zm-684.24 759.92c85.14,272.75 157.66,510.81 163.97,528.16 7.88,29.96 -1.58,37.84 -72.53,61.48 -44.14,14.19 -83.55,23.66 -86.71,22.08 -1.58,-3.16 -26.8,-77.25 -52.03,-163.97 -138.74,-460.36 -195.49,-632.21 -208.11,-644.82 -12.61,-12.61 -85.14,1.58 -163.97,31.53 -11.03,4.73 -25.22,-18.92 -34.68,-55.18 -17.34,-59.91 -15.77,-63.06 28.38,-81.98 45.72,-18.92 138.74,-113.51 138.74,-140.31 0,-17.35 94.59,-63.07 118.24,-56.76 7.88,1.58 83.56,227.03 168.69,499.78l0.01 -0.01zm-6553.87 -411.49c119.82,42.57 220.72,81.98 223.87,85.14 7.88,7.88 -42.57,151.35 -52.03,151.35 -3.15,0 -63.06,-22.07 -135.58,-47.3 -70.95,-26.8 -134.01,-47.29 -140.32,-47.29 -9.46,0 -108.79,252.25 -108.79,275.9 0,3.16 50.46,22.07 111.94,42.57 121.4,37.84 122.98,42.57 78.83,157.66l-15.77 42.57 -104.05 -37.84c-56.76,-22.08 -108.79,-39.42 -116.67,-39.42 -11.03,0 -111.94,256.99 -111.94,286.95 0,4.72 58.34,29.95 130.86,52.02 70.95,23.65 134.01,48.88 141.9,53.61 11.03,11.03 -31.54,159.23 -45.73,159.23 -3.15,0 -33.1,-9.46 -64.64,-22.07 -33.1,-12.61 -132.43,-48.87 -220.72,-80.41 -89.86,-33.1 -162.39,-63.06 -162.39,-69.37 0,-4.72 28.38,-88.29 61.49,-182.88 97.74,-271.17 198.65,-553.38 253.83,-714.19 28.37,-78.83 53.6,-145.05 55.18,-145.05 3.15,0 102.48,34.68 220.72,78.83l0.01 -0.01zm5670.99 214.42c22.07,12.61 55.17,40.99 72.52,66.22 37.84,52.03 239.64,711.04 239.64,778.83 0,56.76 -31.53,118.24 -89.86,173.43 -124.55,118.24 -331.09,99.32 -414.65,-37.84 -31.53,-52.03 -36.26,-67.79 -83.56,-233.34 -14.19,-47.29 -50.45,-170.27 -81.98,-274.32 -29.95,-102.48 -55.18,-214.42 -55.18,-249.1 0,-192.35 228.61,-315.32 413.07,-223.88l0 0zm-4742.38 50.45c26.8,15.77 66.22,53.6 85.13,83.56 33.11,45.72 36.27,67.79 29.96,152.92 -4.73,55.18 -9.46,102.48 -12.61,105.64 -3.16,3.15 -42.57,-1.58 -86.72,-11.04l-80.4 -15.77 7.88 -72.52c6.31,-56.76 1.58,-75.67 -20.5,-93.02 -72.52,-52.03 -149.77,0 -149.77,102.48 0,31.54 36.26,130.86 89.86,244.37 105.63,225.46 119.82,313.75 70.95,424.11 -56.76,127.7 -182.88,190.76 -315.32,156.08 -157.66,-42.57 -249.1,-208.11 -193.92,-353.16 14.19,-36.26 20.49,-37.84 83.56,-25.22 37.84,6.31 72.52,12.61 77.25,14.19 6.3,0 6.3,31.53 1.58,70.95 -4.73,55.18 0,78.83 20.49,102.48 39.41,44.14 124.55,42.56 156.08,-3.16 44.15,-63.06 29.96,-132.43 -63.06,-316.89 -97.75,-192.35 -121.4,-304.28 -85.14,-411.49 23.65,-74.1 88.3,-149.78 149.78,-176.58 58.34,-28.38 168.69,-17.34 234.91,22.07l0.01 0zm3857.91 140.31c75.67,63.07 108.78,149.78 108.78,285.37 0,97.75 -12.61,152.93 -80.4,354.73 -44.15,132.43 -83.56,247.52 -86.72,256.99 -4.73,11.03 52.03,4.72 151.36,-17.35 111.93,-25.22 162.38,-29.96 165.54,-17.34 22.07,67.79 34.68,135.58 26.8,141.89 -6.31,3.15 -113.51,28.38 -239.64,55.18 -126.13,28.38 -239.64,53.6 -253.83,58.33 -18.92,4.73 -28.38,-11.03 -40.99,-66.21 -15.77,-69.37 -11.03,-88.3 83.56,-364.2 85.13,-245.94 100.9,-309.01 100.9,-397.3 0,-93.02 -4.73,-111.93 -37.84,-141.89 -78.83,-74.1 -178.15,1.58 -152.93,113.51 15.77,67.79 14.19,69.37 -75.67,83.56 -83.56,12.61 -96.17,-1.58 -96.17,-116.67 0,-173.42 99.32,-271.17 279.06,-271.17 81.98,0 104.05,6.3 148.2,42.57l-0.01 0zm-3137.41 12.62c189.19,36.26 227.03,50.45 280.63,110.36 83.56,96.17 83.56,110.35 -23.65,666.89 -20.49,107.21 -48.87,216 -64.64,241.22 -61.49,104.05 -167.12,129.28 -376.8,91.44 -170.28,-29.95 -162.39,-17.34 -126.13,-208.11 12.61,-63.06 33.11,-173.43 47.3,-247.52 89.86,-498.21 124.54,-677.93 129.28,-677.93 1.57,0 61.48,11.03 134.01,23.65l0 0zm1215.55 119.82c17.34,9.46 28.38,33.1 28.38,61.48 0,91.44 -6.31,94.6 -165.55,94.6l-145.05 0 -11.03 81.98c-4.73,45.72 -9.46,113.51 -9.46,149.78l0 67.79 127.7 0 126.13 0 -4.73 81.98 -4.73 83.56 -119.82 -4.73c-141.89,-6.31 -140.31,-9.46 -140.31,187.61l0 121.4 157.66 11.04 157.66 11.03 0 77.25 0 77.25 -245.95 0 -245.95 0 9.46 -485.59c6.31,-266.44 14.19,-520.27 18.92,-562.84l7.89 -78.83 215.99 4.73c118.24,3.15 227.03,12.61 242.8,20.49l-0.01 0.02z"/>
  <path class="fil0" d="M14824.36 992.85c-6.3,14.19 -4.73,192.35 1.58,395.73l11.03 370.5 67.79 0c110.36,0 118.25,-17.35 116.67,-256.99 -1.57,-274.32 -17.34,-477.71 -39.41,-499.78 -11.03,-11.03 -47.29,-22.07 -83.56,-26.8 -50.45,-6.31 -66.22,-3.16 -74.1,17.34z"/>
  <path class="fil0" d="M16530.23 1262.45c-14.19,81.98 -22.08,157.66 -17.35,165.54 14.19,23.65 143.47,18.92 162.39,-4.73 9.46,-11.03 25.22,-67.79 36.26,-126.12 18.92,-99.33 17.35,-108.79 -11.03,-137.17 -15.77,-15.76 -55.18,-34.68 -86.71,-39.41l-55.18 -11.03 -28.38 152.92 0 0z"/>
  <path class="fil0" d="M17432.04 1648.72l-88.3 187.61 55.18 18.92c29.96,9.46 56.76,14.19 59.92,11.03 9.46,-9.46 74.1,-406.76 64.64,-406.76 -1.58,0 -42.57,85.14 -91.44,189.19l0 0.01z"/>
  <path class="fil0" d="M9981.08 2391.29l-52.03 33.1 29.96 50.46c15.76,26.8 102.48,178.15 190.76,335.81 89.87,159.24 168.7,288.51 173.43,288.51 26.8,0 110.36,-64.64 119.82,-93.01 7.88,-23.66 -31.53,-105.64 -143.47,-305.86 -145.05,-258.57 -206.53,-342.12 -247.52,-342.12 -11.04,0 -42.57,15.76 -70.95,33.1l0 0.01z"/>
  <path class="fil1 str0" d="M15007.24 3504.36c-22.07,1.58 -116.66,11.03 -212.83,20.49 -94.6,7.89 -198.65,18.92 -228.61,23.65 -29.96,4.73 -104.05,15.77 -165.54,25.23 -138.74,20.49 -252.26,42.56 -323.2,61.48 -29.96,7.89 -129.28,33.11 -220.73,56.76 -91.44,22.07 -186.03,47.3 -212.83,53.6 -25.23,7.88 -72.53,20.5 -102.49,28.38 -64.64,18.92 -198.65,63.06 -244.37,81.98 -17.34,6.31 -74.1,28.38 -126.12,47.3 -122.98,45.72 -140.32,52.03 -247.53,100.9 -50.45,22.07 -108.78,44.14 -130.86,50.45 -22.07,4.73 -39.41,15.77 -39.41,23.65 0,7.88 -7.88,14.19 -18.92,14.19 -25.22,0 -286.94,130.86 -293.24,145.05 -3.16,7.88 -12.62,12.61 -20.5,12.61 -7.88,0 -59.91,28.38 -116.67,61.49 -56.76,34.68 -115.09,66.21 -132.43,72.52 -15.77,4.73 -48.87,26.8 -74.1,47.3 -25.23,22.07 -55.18,39.41 -64.64,39.41 -11.04,0 -20.5,6.3 -20.5,15.77 0,7.88 -9.46,15.76 -18.92,15.76 -11.03,0 -66.21,34.69 -122.97,78.83 -56.76,42.57 -110.36,77.25 -121.4,78.83 -9.46,0 -20.49,4.73 -23.65,12.61 -1.58,6.31 -47.29,44.15 -99.32,81.98 -151.36,113.52 -323.2,258.57 -323.2,271.18 0,6.3 -6.31,12.61 -14.19,12.61 -7.88,0 -42.57,28.38 -77.25,63.06 -33.11,34.69 -66.22,63.07 -72.53,63.07 -12.61,0 -220.72,208.11 -283.78,283.78 -25.23,29.96 -100.91,113.52 -168.7,186.04 -69.37,70.95 -124.55,135.59 -124.55,141.89 0,6.31 -15.76,28.38 -36.26,50.45 -36.26,39.42 -170.27,216 -215.99,283.79 -12.61,18.92 -31.54,44.15 -39.42,53.6 -42.56,47.3 -354.73,553.38 -354.73,575.46 0,7.88 -4.73,17.34 -11.03,20.49 -7.88,1.58 -34.69,50.45 -63.06,107.21 -26.81,56.76 -81.99,167.12 -119.82,247.52 -39.42,78.83 -75.68,160.81 -81.99,181.31 -6.3,20.5 -25.22,67.79 -42.56,107.21 -48.88,111.94 -56.76,129.28 -77.26,197.07 -11.03,34.69 -25.22,69.37 -31.53,78.83 -9.46,14.19 -50.45,145.05 -77.25,252.25 -7.88,25.23 -28.38,104.06 -47.3,173.43 -37.84,135.59 -45.72,176.58 -93.02,441.45 -63.06,340.54 -83.56,520.27 -118.24,977.48 -29.96,394.14 -29.96,690.55 0,1064.2 28.38,376.8 59.91,565.99 132.43,827.7 9.46,34.69 23.65,91.44 31.54,126.13 7.88,34.68 28.37,119.82 47.29,189.19 18.92,69.37 42.57,160.81 53.6,204.95 28.38,110.36 94.6,234.92 141.9,266.44 37.84,23.66 40.99,23.66 40.99,0 0,-14.18 -11.04,-69.36 -25.23,-122.97 -14.19,-52.03 -31.53,-127.7 -37.84,-167.12 -6.3,-39.41 -28.37,-138.73 -45.72,-220.72 -72.52,-318.47 -89.86,-439.87 -113.51,-827.71 -17.35,-291.67 -6.31,-635.36 33.1,-1056.31 23.65,-236.49 88.29,-627.48 111.94,-673.2 7.88,-14.19 14.19,-42.57 14.19,-61.49 0,-18.92 14.19,-85.13 31.53,-146.62 48.88,-168.69 126.13,-422.52 141.9,-458.78 63.06,-156.09 78.83,-198.65 78.83,-219.15 0,-14.19 7.88,-25.22 15.76,-25.22 9.46,0 15.77,-12.62 15.77,-28.38 0,-15.77 6.31,-34.69 12.61,-44.15 7.89,-7.88 23.65,-39.41 34.69,-69.37 29.95,-78.83 145.04,-321.62 156.08,-331.08 4.73,-4.73 22.07,-33.11 36.26,-63.06 64.64,-130.86 271.17,-471.4 340.54,-559.69 6.31,-9.46 28.38,-42.57 48.88,-75.67 20.49,-33.11 44.14,-67.8 53.6,-78.83 11.03,-9.47 39.41,-50.46 66.22,-89.87 25.22,-39.41 70.94,-96.17 97.74,-126.12 28.38,-29.96 52.03,-59.92 52.03,-66.22 0,-6.31 17.35,-28.38 39.42,-50.45 22.07,-22.08 39.41,-47.3 39.41,-55.18 0,-9.46 9.46,-22.08 20.49,-28.38 9.47,-6.31 50.46,-52.03 89.87,-99.33 39.41,-47.29 85.13,-104.05 102.48,-124.55 66.22,-77.25 304.28,-313.74 433.56,-427.25 74.1,-64.64 154.51,-137.17 181.31,-160.81 25.22,-25.23 56.75,-44.15 67.79,-44.15 9.46,0 18.92,-4.73 18.92,-12.61 0,-6.3 26.8,-28.38 59.91,-50.45 31.53,-22.07 61.48,-44.15 66.22,-48.87 4.72,-4.73 81.98,-58.34 173.42,-118.25 212.84,-138.73 223.88,-146.62 250.68,-159.23 12.61,-6.31 58.34,-33.11 102.48,-63.07 44.15,-28.38 88.29,-52.03 97.75,-52.03 11.03,0 22.07,-6.3 25.22,-14.19 7.89,-20.49 545.5,-277.48 734.69,-350 18.92,-7.88 53.6,-22.07 78.83,-31.53 154.5,-64.64 277.48,-107.21 444.6,-156.09 39.41,-12.61 77.25,-26.8 86.71,-34.68 7.88,-6.31 33.11,-12.61 56.76,-12.61 23.65,0 47.29,-6.31 52.03,-14.19 4.72,-7.88 31.53,-17.35 59.91,-22.07 28.38,-4.73 83.56,-17.35 122.97,-26.8 39.42,-9.47 93.02,-22.08 118.25,-25.23 26.8,-4.73 61.48,-14.19 78.83,-22.07 17.34,-6.31 85.13,-20.5 149.77,-31.53 64.64,-9.47 132.43,-22.08 149.78,-25.23 134.01,-29.95 430.41,-45.72 851.36,-45.72 515.54,0 808.79,22.07 1166.67,86.71 52.03,9.46 134.01,23.65 181.31,29.96 130.86,20.49 521.85,124.55 654.28,175 17.35,7.88 56.76,22.07 86.72,31.53 138.73,50.45 446.17,208.11 488.74,252.25 4.73,4.73 26.8,20.5 52.03,36.27 55.18,34.68 53.6,48.87 -9.46,110.36 -52.03,53.6 -256.99,215.99 -269.6,215.99 -4.73,0 -53.6,33.11 -110.36,74.1 -55.18,42.57 -140.31,102.48 -186.04,135.59 -256.98,186.04 -578.6,509.24 -657.43,660.59 -12.61,25.22 -28.38,44.14 -36.27,44.14 -6.3,0 -12.61,7.89 -12.61,18.92 0,9.46 -14.19,34.69 -33.1,53.6l-33.11 36.27 31.53 34.68c18.92,18.92 47.3,42.57 64.64,52.03 15.77,9.46 89.87,58.33 162.39,110.36 70.95,50.45 141.89,96.17 154.51,100.9 12.61,4.73 26.8,12.61 31.53,17.35 4.73,6.3 40.99,26.8 83.56,47.29 40.99,20.5 74.1,44.15 74.1,52.03 0,6.31 7.88,12.61 18.92,12.61 9.46,0 42.57,18.92 74.1,42.57 31.53,25.22 70.95,52.03 89.86,61.49 18.92,9.46 47.3,29.95 63.07,44.14 17.34,14.19 75.67,63.06 130.85,107.21 135.59,108.79 389.42,362.62 471.41,469.82 36.26,47.3 100.9,132.44 143.47,187.62 42.56,55.18 86.71,119.82 99.32,141.89 11.04,22.08 31.54,53.61 44.15,69.37 31.53,36.26 108.78,168.7 121.4,203.38 4.72,15.77 14.18,28.38 20.49,28.38 6.31,0 23.65,26.8 37.84,58.33 25.22,61.49 74.1,148.2 89.86,162.39 4.73,4.73 31.54,50.45 59.92,102.48 28.37,52.03 58.33,100.9 66.21,108.79 7.89,9.46 14.19,28.38 14.19,44.14 0,15.77 6.31,28.38 12.62,28.38 34.68,0 113.51,285.37 113.51,409.91 0,74.11 4.73,94.6 23.65,94.6 17.34,0 22.07,-11.03 15.77,-36.26 -4.73,-18.92 -18.92,-99.33 -31.54,-176.58 -48.87,-320.05 -148.2,-644.82 -269.59,-897.08 -12.61,-25.22 -22.08,-55.18 -22.08,-67.79 0,-11.03 -6.3,-20.5 -15.76,-20.5 -7.89,0 -15.77,-7.88 -15.77,-17.34 0,-23.65 -184.46,-342.12 -222.3,-381.53 -15.77,-17.35 -29.96,-40.99 -29.96,-52.03 0,-11.04 -6.3,-22.08 -12.61,-25.23 -7.88,-3.15 -47.29,-47.29 -89.86,-99.32 -108.79,-135.59 -266.44,-294.82 -402.03,-406.76 -64.64,-53.6 -121.4,-100.9 -126.13,-105.63 -22.07,-22.08 -149.77,-115.09 -283.78,-204.96 -81.98,-55.18 -152.93,-104.05 -157.66,-108.78 -4.73,-6.31 -47.3,-34.69 -94.6,-64.65 -107.21,-67.79 -157.66,-116.66 -157.66,-151.35 0,-45.72 94.6,-182.88 195.5,-280.63 99.32,-99.32 119.82,-116.67 214.41,-182.88 29.96,-20.5 58.34,-42.57 63.07,-47.3 36.26,-37.84 433.56,-230.18 622.75,-299.55 52.03,-18.92 108.78,-40.99 126.12,-47.3 17.35,-7.88 48.88,-17.34 70.95,-22.07 22.07,-3.16 67.79,-15.77 102.48,-25.22 332.66,-94.6 834.01,-148.2 1072.08,-111.94 52.03,7.88 122.98,18.92 159.24,23.65l64.64 9.46 -17.35 -64.64c-22.07,-81.98 -290.09,-359.46 -482.43,-501.35 -74.1,-53.61 -146.62,-107.21 -162.39,-119.82 -14.19,-12.62 -31.53,-23.65 -36.26,-23.65 -4.73,0 -40.99,-22.08 -80.41,-47.3 -37.84,-26.8 -72.52,-47.3 -75.67,-47.3 -4.73,0 -55.18,-29.95 -113.52,-64.64 -105.63,-64.64 -490.32,-263.29 -643.24,-331.08 -269.6,-119.82 -397.3,-171.85 -420.96,-171.85 -15.76,0 -28.37,-7.88 -28.37,-15.76 0,-9.47 -12.62,-15.77 -29.96,-15.77 -15.77,0 -67.79,-14.19 -113.51,-33.11 -47.3,-18.92 -99.33,-39.41 -116.67,-45.72 -17.35,-6.31 -56.76,-22.07 -86.72,-34.69 -29.95,-14.19 -80.4,-29.95 -110.36,-34.68 -29.95,-6.31 -94.59,-25.22 -141.89,-39.41 -47.3,-15.77 -118.24,-37.84 -157.66,-48.88 -39.41,-11.03 -86.71,-25.22 -107.21,-33.1 -20.49,-7.89 -56.75,-14.19 -81.98,-14.19 -25.22,0 -48.87,-6.31 -53.6,-14.19 -4.73,-6.31 -34.68,-17.35 -67.79,-23.65 -33.11,-4.73 -94.6,-15.77 -138.74,-25.23 -313.74,-63.06 -692.12,-94.59 -1135.14,-91.44 -208.11,0 -395.72,4.73 -417.8,7.89l-0.02 -0.02z"/>
  <path class="fil0" d="M13003.4 6685.91c-747.3,149.78 -1450.46,868.71 -1748.44,1789.43 -122.97,375.23 -165.54,670.05 -165.54,1111.5 1.58,461.94 42.57,714.19 206.53,1292.8 154.51,540.77 163.97,581.76 163.97,764.64 -1.58,91.44 -7.89,219.15 -15.77,283.79 -7.88,64.64 -22.07,201.8 -31.53,304.28 -15.77,171.85 -15.77,187.61 12.61,222.3 31.53,40.99 55.18,36.26 126.12,-28.38 104.06,-93.02 145.05,-318.47 156.09,-876.58 9.46,-435.14 -6.31,-646.4 -97.75,-1363.75 -12.61,-104.05 -34.68,-334.24 -48.87,-512.39 -52.03,-644.83 26.8,-1106.77 274.32,-1603.39 152.93,-305.86 361.04,-608.56 569.15,-829.29 56.76,-59.91 184.46,-168.69 285.36,-244.37 99.33,-74.1 233.34,-173.43 296.4,-220.72 93.02,-70.95 151.35,-121.4 126.13,-111.94 -3.16,1.58 -52.03,11.04 -108.79,22.07l0.01 0z"/>
  <path class="fil0" d="M16678.43 8264.08c-127.71,23.65 -260.14,64.64 -372.08,118.24 -132.43,61.48 -258.56,167.11 -258.56,215.99 0,14.19 22.07,53.6 48.87,86.72 126.13,154.5 409.91,310.58 684.24,379.95 146.62,37.84 228.61,47.3 677.93,88.29 408.34,36.26 502.93,119.82 657.44,566 107.21,313.74 268.02,681.08 591.22,1357.44 208.11,431.99 326.35,707.89 337.39,785.14 6.3,33.11 -14.19,47.3 -156.08,121.4 -502.94,263.29 -1083.12,452.48 -1634.93,536.04 -219.14,33.1 -687.39,47.29 -900.23,26.8 -622.75,-59.92 -1113.07,-271.18 -1472.53,-633.79 -301.13,-302.71 -474.55,-640.1 -577.03,-1111.5 -77.26,-359.46 -75.68,-963.29 3.15,-1418.93 22.07,-121.39 33.11,-197.07 29.96,-197.07 -3.16,0 -28.38,40.99 -58.34,89.87 -214.41,365.76 -338.96,770.95 -430.4,1407.89 -45.73,324.78 -56.76,391 -80.41,536.04 -96.17,592.79 -198.65,898.65 -416.22,1253.38 -36.26,61.49 -78.83,130.86 -93.02,157.66 -14.19,25.23 -28.38,50.46 -33.1,55.18 -7.89,7.89 -110.36,203.38 -110.36,211.27 0,4.72 75.67,-3.16 260.13,-22.08 230.19,-25.22 774.11,-63.06 906.54,-63.06 176.58,0 569.15,42.57 739.42,78.83 531.31,116.67 949.1,378.38 1306.99,821.4 137.17,168.7 227.03,228.61 392.57,256.99 58.34,9.46 56.76,14.19 89.87,-182.89 12.61,-74.1 40.99,-186.04 63.06,-249.1 110.36,-321.62 285.36,-457.21 687.39,-542.35 395.72,-81.98 463.52,-100.9 835.59,-222.3 320.05,-104.05 509.24,-173.42 1095.73,-406.76 252.26,-99.32 525.01,-204.95 606.99,-233.33 81.98,-26.8 152.92,-52.03 156.08,-55.18 17.34,-14.19 -168.69,-326.36 -525,-873.43 -394.15,-605.41 -606.99,-1109.92 -718.93,-1702.72l-15.77 -86.71 -94.59 -1.58c-115.09,-1.58 -159.24,-28.38 -204.96,-126.12 -61.48,-124.55 -255.41,-368.93 -406.76,-513.97 -228.61,-217.57 -480.86,-357.89 -815.1,-458.79 -146.62,-44.14 -178.15,-47.3 -457.21,-52.03 -163.96,-1.58 -316.89,0 -338.96,3.16l0.01 0.01z"/>
  <path class="fil0" d="M11045.28 13485.74c-36.26,39.41 -33.11,50.45 9.46,50.45 18.92,0 47.29,-18.92 63.06,-39.41 28.38,-39.42 28.38,-39.42 -9.46,-39.42 -20.49,0 -48.87,12.62 -63.06,28.38l0 0z"/>
  <path class="fil0" d="M9804.5 13780.56l0 212.84 39.42 0c36.26,0 39.41,-4.73 39.41,-78.83 0,-53.6 6.3,-78.83 20.49,-78.83 11.04,0 47.3,34.68 80.41,78.83 48.88,63.06 69.37,78.83 107.21,78.83 50.45,0 50.45,-4.73 -22.07,-96.17 -50.45,-66.22 -53.6,-77.25 -22.08,-77.25 36.27,0 61.49,-45.73 61.49,-113.52 0,-52.03 -9.46,-74.1 -42.57,-102.48 -36.26,-29.95 -59.91,-36.26 -152.93,-36.26l-108.78 0 0 212.84 0 0zm201.81 -119.82c12.61,6.3 18.92,29.96 15.77,50.45 -3.16,31.53 -14.19,37.84 -70.95,42.57 -66.22,4.73 -67.79,3.15 -67.79,-42.57 0,-25.22 9.46,-50.45 20.49,-53.6 29.96,-12.61 80.41,-11.04 102.48,3.15l0 0z"/>
  <path class="fil0" d="M10182.89 13780.56l0 212.84 141.89 0c140.31,0 141.89,0 141.89,-39.41 0,-37.84 -3.15,-39.42 -102.48,-39.42l-102.48 0 0 -47.29 0 -47.3 94.6 0c89.86,0 94.59,-1.58 94.59,-39.41 0,-37.84 -4.72,-39.41 -94.59,-39.41l-94.6 0 0 -47.3 0 -47.3 102.48 0c99.33,0 102.48,-1.57 102.48,-39.41 0,-39.41 -1.58,-39.41 -141.89,-39.41l-141.89 0 0 212.84 0 -0.02z"/>
  <path class="fil0" d="M10529.73 13780.56l0 212.84 39.42 0c36.26,0 39.41,-6.31 39.41,-70.95l0 -70.94 69.37 0c96.17,0 151.35,-45.73 151.35,-126.13 0,-33.11 -4.73,-72.52 -9.46,-86.71 -17.34,-42.57 -94.59,-70.95 -195.49,-70.95l-94.6 0 0 212.84 0 0zm178.16 -119.82c20.49,7.88 42.57,26.8 47.3,39.41 14.19,37.84 -44.15,88.29 -99.33,88.29 -44.14,0 -47.3,-3.15 -47.3,-61.48 0,-75.68 26.81,-93.02 99.33,-66.22z"/>
  <path class="fil0" d="M10892.35 13734.84c0,162.38 1.58,167.11 45.72,212.84 61.49,61.48 165.55,64.64 228.61,6.3 22.07,-20.49 40.99,-47.29 42.57,-58.33 0,-11.04 3.15,-52.03 7.88,-91.45 4.73,-39.41 3.16,-108.78 -1.58,-154.5 -9.46,-74.1 -14.19,-81.98 -48.87,-81.98 -37.84,0 -37.84,1.58 -37.84,163.97 0,175 -3.16,182.88 -85.14,182.88 -61.48,0 -72.52,-28.38 -72.52,-192.35 0,-154.5 0,-154.5 -39.41,-154.5l-39.42 0 0 167.12 0 0z"/>
  <path class="fil0" d="M11302.26 13780.56l0 212.84 94.6 0c100.9,0 178.15,-28.38 195.49,-70.95 15.77,-42.57 11.04,-93.02 -12.61,-127.7 -15.76,-20.5 -17.34,-39.41 -7.88,-55.18 25.22,-39.41 15.77,-93.02 -25.22,-132.43 -33.11,-34.69 -52.03,-39.42 -141.9,-39.42l-102.48 0 0 212.84 0 0zm189.19 -118.24c36.26,23.65 -1.58,69.37 -61.48,75.67 -45.73,4.73 -48.88,1.58 -48.88,-42.57 0,-42.56 4.73,-48.87 44.15,-48.87 23.65,0 53.6,7.88 66.22,15.77l-0.01 0zm17.35 167.11c31.53,37.84 -1.58,75.68 -70.95,81.98 -55.18,4.73 -56.76,3.16 -56.76,-50.45 0,-53.6 3.16,-56.76 53.6,-56.76 28.38,0 61.49,11.04 74.11,25.23l0 0z"/>
  <path class="fil0" d="M11664.88 13780.56l0 212.84 134.01 0c132.43,0 134.01,0 134.01,-39.41 0,-37.84 -4.73,-39.42 -94.6,-39.42l-94.6 0 0 -173.42 0 -173.43 -39.41 0 -39.41 0 0 212.84z"/>
  <polygon class="fil0" points="11980.19,13780.56 11980.19,13993.4 12019.61,13993.4 12059.02,13993.4 12059.02,13780.56 12059.02,13567.72 12019.61,13567.72 11980.19,13567.72 "/>
  <path class="fil0" d="M12178.84 13607.13c-37.84,34.69 -40.99,47.3 -40.99,163.97 0,149.77 6.31,168.69 64.64,198.65 66.22,34.68 141.9,29.95 195.5,-15.77 39.41,-33.11 44.14,-40.99 23.65,-55.18 -12.61,-9.46 -37.84,-11.03 -55.18,-6.3 -17.35,6.3 -56.76,11.03 -86.71,12.61l-55.18 1.58 0 -126.13c0,-119.82 1.57,-126.13 36.26,-130.86 20.49,-3.15 58.33,3.16 85.13,14.19 37.84,15.77 50.46,14.19 69.37,-4.73 22.08,-22.07 20.5,-28.38 -18.91,-58.33 -59.92,-47.3 -162.39,-45.73 -217.57,6.3l-0.01 0z"/>
  <path class="fil0" d="M12590.33 13594.52c-4.73,15.77 -36.26,110.36 -72.52,209.68 -36.26,99.33 -64.64,182.89 -64.64,184.47 0,3.15 20.49,4.72 45.72,4.72 39.41,0 48.87,-7.88 56.76,-47.29 9.46,-44.15 15.76,-47.3 81.98,-47.3 64.64,0 72.52,4.73 88.29,47.3 12.61,34.68 28.38,47.29 55.18,47.29 45.72,0 42.57,-17.34 -40.99,-252.25 -53.6,-146.62 -64.64,-165.54 -100.9,-170.27 -28.38,-3.15 -42.57,3.16 -48.88,23.65zm74.1 151.35l22.08 74.11 -47.3 0c-34.68,0 -45.72,-6.31 -39.41,-22.08 4.73,-12.61 14.19,-48.87 20.49,-80.4 12.61,-67.8 15.77,-66.22 44.15,28.37l-0.01 0z"/>
  <path class="fil0" d="M10856.09 14434.84c-209.69,37.84 -435.14,140.32 -575.46,260.14 -152.92,132.43 -294.82,376.8 -357.88,619.6 -66.22,260.14 -63.07,632.21 9.46,876.58 145.05,491.9 532.88,781.99 1043.7,781.99 176.58,0 296.4,-23.65 431.98,-86.71 209.69,-96.17 342.12,-279.06 391,-537.62 28.38,-141.89 28.38,-148.2 7.88,-148.2 -7.88,0 -18.92,26.8 -23.65,58.34 -58.33,345.27 -239.64,543.92 -548.65,597.52 -441.45,77.26 -791.45,-181.3 -928.61,-687.39 -31.54,-119.82 -36.27,-168.69 -36.27,-465.09 1.58,-266.44 6.31,-351.58 28.38,-433.56 66.22,-241.22 156.09,-422.52 285.37,-577.03 138.73,-163.97 372.07,-252.26 565.99,-212.84 52.03,11.03 118.24,31.53 145.05,44.14 170.27,88.29 307.43,272.75 400.45,540.77 59.92,171.85 67.8,189.19 81.98,189.19 15.77,0 18.92,-340.54 3.16,-595.95 -9.46,-176.58 -26.8,-215.99 -59.91,-141.89 -23.65,55.18 -81.98,58.33 -197.07,15.77 -253.83,-94.6 -490.32,-129.29 -666.9,-97.75l0 -0.01z"/>
  <path class="fil0" d="M13943.05 14444.3c-219.15,33.11 -244.38,37.84 -244.38,52.03 0,7.88 23.66,18.92 53.61,23.65 59.91,11.03 127.7,80.41 148.2,148.2 6.3,23.65 11.03,493.47 11.03,1043.7 0,925.46 -1.58,1005.86 -28.38,1056.31 -31.53,64.64 -99.32,110.36 -159.24,110.36 -22.07,0 -40.99,6.31 -40.99,15.77 0,7.88 11.04,15.77 23.65,15.77 31.54,1.57 558.11,1.57 632.22,0 64.64,0 59.91,-23.65 -6.31,-36.27 -67.79,-14.19 -137.16,-78.83 -157.66,-149.77 -14.19,-45.73 -18.92,-368.92 -18.92,-1184.02l0 -1120.95 -34.68 1.57c-20.5,1.58 -99.33,11.04 -178.16,23.65l0.01 0z"/>
  <path class="fil0" d="M14737.65 14464.8c-122.98,122.98 14.19,329.51 162.39,242.8 134.01,-77.26 72.52,-288.52 -83.56,-288.52 -17.35,0 -53.6,20.5 -78.83,45.72l0 0z"/>
  <path class="fil0" d="M12631.33 15396.56c-195.5,39.41 -424.1,227.03 -521.85,427.26 -104.05,214.41 -104.05,472.97 0,690.54 63.06,134.01 236.49,310.59 362.61,368.93 274.33,129.28 608.57,67.79 822.98,-151.36 291.67,-297.97 313.75,-747.3 53.61,-1062.62 -192.35,-231.75 -441.45,-326.35 -717.35,-272.75zm234.91 31.53c85.14,23.65 204.96,140.32 263.29,255.41 230.18,466.67 77.25,1146.18 -277.48,1228.16 -113.51,25.23 -214.42,-7.88 -310.59,-107.2 -111.93,-113.52 -168.69,-239.64 -208.11,-454.06 -50.45,-288.52 0,-553.38 151.36,-772.53 94.59,-137.16 230.18,-190.77 381.53,-149.78z"/>
  <path class="fil0" d="M14896.88 15388.68c-12.61,3.15 -107.21,17.34 -208.11,31.53 -102.48,15.77 -186.04,31.53 -186.04,37.84 0,6.31 29.96,20.5 66.22,33.11 143.47,50.45 159.24,132.43 151.35,748.87 -4.72,320.05 -12.61,471.41 -26.8,504.51 -29.95,74.1 -80.4,118.25 -146.62,127.71 -69.37,12.61 -80.41,37.84 -15.77,39.41 159.24,4.73 654.29,-1.58 662.17,-7.88 4.73,-4.73 -6.3,-12.62 -22.07,-18.92 -94.6,-29.96 -146.62,-61.49 -173.43,-105.63 -28.37,-47.3 -29.95,-91.44 -34.68,-725.23 -3.16,-513.97 -9.46,-673.21 -23.65,-671.63 -11.04,1.58 -29.96,4.73 -42.57,6.31z"/>
  <path class="fil0" d="M15685.18 15394.98c-175,53.6 -271.18,195.5 -271.18,398.88 0,94.6 6.31,119.82 50.45,190.77 56.76,93.02 94.6,124.55 348.43,288.51 225.45,146.62 258.56,192.35 258.56,362.62 0,91.44 -6.3,121.39 -39.41,167.11 -52.03,75.68 -113.52,110.36 -203.38,111.94 -157.66,3.16 -302.7,-145.05 -383.11,-387.84l-36.26 -113.51 -4.73 242.79c-1.58,134.01 0,245.95 4.73,250.68 4.73,4.73 20.49,-3.15 36.26,-17.34 39.41,-36.27 66.22,-33.11 181.31,14.19 122.97,50.45 304.28,58.33 389.41,14.19 75.68,-37.84 170.27,-129.29 209.69,-204.96 50.45,-97.75 55.18,-274.33 11.03,-392.57 -48.87,-129.28 -132.43,-204.96 -362.62,-326.36 -127.7,-66.21 -211.26,-121.39 -244.37,-160.81 -175,-203.37 31.54,-509.23 263.29,-389.41 110.36,56.75 181.31,148.2 216,279.05 33.1,119.82 47.29,74.11 37.84,-118.24 -4.73,-100.9 -11.04,-187.61 -14.19,-190.77 -3.16,-3.15 -25.23,3.16 -47.3,14.19 -33.11,18.92 -48.87,18.92 -89.86,1.58 -118.25,-47.29 -227.03,-59.91 -310.59,-34.68l0 -0.01z"/>
  <path class="fil0" d="M17025.27 15404.44c-220.72,63.07 -392.57,234.92 -474.55,476.13 -52.03,148.2 -52.03,419.38 -1.58,580.19 105.64,346.85 400.46,529.73 775.69,482.43 137.16,-17.34 231.75,-63.06 312.16,-149.77 56.76,-63.07 140.32,-239.64 121.4,-258.57 -11.03,-11.03 -11.03,-11.03 -61.49,96.17 -70.94,148.2 -228.6,230.19 -402.02,209.69 -280.64,-33.11 -458.79,-260.14 -502.94,-640.1 -7.88,-74.1 -11.03,-160.81 -7.88,-193.92l7.88 -58.33 471.41 0 471.4 0 0 -45.73c0,-25.22 -14.19,-91.44 -31.54,-148.2 -67.79,-219.14 -238.06,-351.57 -468.24,-365.76 -83.56,-4.73 -151.36,0 -209.69,15.77l-0.01 0zm299.56 66.22c78.83,55.18 151.35,197.07 167.11,323.2l9.46 91.44 -350 0 -351.58 0 11.04 -74.1c11.03,-88.29 67.79,-215.99 124.55,-282.21 104.05,-122.97 264.86,-146.62 389.41,-58.33l0.01 0z"/>
  <path class="fil0" d="M17923.93 15426.52c0,7.88 20.5,18.91 44.15,25.22 69.37,14.19 143.47,66.22 163.96,115.09 14.19,28.38 22.08,214.42 28.38,578.61 7.89,517.12 9.46,539.19 42.57,602.25 132.43,247.53 573.88,271.18 808.79,42.57 31.53,-29.95 61.49,-53.6 67.79,-53.6 6.31,0 11.04,37.84 11.04,81.98 0,110.36 14.18,127.7 88.29,119.82 244.37,-29.96 353.15,-52.03 353.15,-70.95 0,-11.03 -17.34,-20.49 -37.84,-20.49 -53.6,0 -130.86,-70.95 -152.93,-138.74 -12.61,-39.41 -20.49,-266.44 -25.22,-677.93l-7.88 -618.02 -227.03 0c-212.84,0 -282.21,14.19 -182.88,39.41 77.25,18.92 145.04,75.67 159.23,134.01 25.23,91.44 36.26,654.28 18.92,846.63 -23.65,258.56 -64.64,338.96 -214.42,408.33 -145.04,69.37 -320.04,31.54 -397.3,-85.13 -59.91,-89.87 -67.79,-182.89 -67.79,-775.69l0 -567.57 -236.49 0c-134.01,0 -236.49,6.31 -236.49,14.19l0 0.01z"/>
  <path class="fil0" d="M9350.45 3189.04c55.18,107.21 104.05,193.92 110.36,193.92 6.3,0 28.37,-15.76 50.45,-36.26l40.99 -34.68 -149.78 -157.66 -149.78 -157.66 97.75 192.34 0.01 0z"/>
  <path class="fil0" d="M20656.16 3228.46c-75.68,97.74 -182.88,233.33 -238.06,302.7 -96.17,119.82 -97.75,124.55 -70.95,156.08 44.15,48.87 97.75,63.06 138.74,36.26 56.76,-37.84 417.79,-513.97 417.79,-551.8 0,-31.54 -72.52,-119.82 -97.74,-119.82 -6.31,0 -72.53,80.41 -149.78,176.58z"/>
  <path class="fil0" d="M8453.37 3520.12l-48.88 42.57 173.43 189.19c96.17,105.63 217.57,234.91 269.6,290.09l94.59 99.33 44.15 -42.57c86.71,-81.98 81.98,-91.44 -233.34,-428.83 -197.07,-209.69 -214.41,-219.15 -299.55,-149.78l0 0z"/>
  <path class="fil0" d="M6941.42 5244.91c-29.96,15.77 -96.17,105.63 -81.98,115.09 1.57,1.58 59.91,39.42 126.12,85.14 67.79,45.72 127.71,81.98 135.59,81.98 7.88,0 26.8,-23.65 42.57,-52.03 42.57,-80.41 23.65,-122.97 -85.14,-189.19 -50.45,-33.1 -96.17,-58.33 -99.32,-56.75 -1.58,0 -18.92,7.88 -37.84,15.76z"/>
  <path class="fil0" d="M23087.26 6227.12c-104.06,34.69 -192.35,66.22 -195.5,69.37 -4.73,1.58 4.73,28.38 20.5,59.92 23.65,52.02 28.38,55.17 56.75,36.26 15.77,-12.61 93.02,-66.22 171.85,-121.4 78.83,-55.18 143.47,-102.48 143.47,-107.21 0,-3.15 -1.57,-4.73 -3.15,-4.73 -3.16,1.58 -89.87,31.54 -193.92,67.79z"/>
  <path class="fil0" d="M23788.84 7556.19c-74.1,22.07 -137.17,42.57 -140.32,45.72 -17.34,15.77 33.11,129.28 64.64,143.47 40.99,17.35 206.54,-25.22 245.95,-64.64 26.8,-26.8 12.61,-167.11 -17.35,-165.54 -11.03,0 -78.83,18.92 -152.92,40.99z"/>
  <path class="fil0" d="M23804.6 8454.85c-149.77,9.46 -156.08,12.61 -141.89,77.25 7.89,29.96 15.77,58.33 18.92,59.91 1.58,3.16 89.86,-28.38 193.92,-70.94l189.19 -75.68 -86.71 1.58c-47.3,1.58 -126.13,4.73 -173.43,7.88l0 0z"/>
  <path class="fil0" d="M10763.07 18481.94c-22.07,42.57 -99.33,189.19 -170.27,327.93 -72.53,138.74 -137.17,260.14 -145.05,271.18 -11.03,12.61 0,26.8 33.11,42.57 61.48,33.1 116.67,31.53 146.62,-3.16 14.19,-14.19 89.86,-152.93 170.27,-305.86 99.32,-192.34 141.89,-290.09 134.01,-310.58 -7.88,-26.81 -96.17,-96.17 -121.4,-96.17 -4.73,0 -25.22,33.1 -47.3,74.1l0.01 -0.01z"/>
  <path class="fil0" d="M17186.09 18984.88c-53.6,37.84 -52.03,47.29 108.79,578.6 53.6,173.43 88.29,212.84 162.38,184.46 80.41,-29.95 78.83,-64.64 -23.65,-413.06 -94.59,-320.05 -121.39,-375.23 -186.04,-375.23 -14.18,0 -42.56,11.03 -61.48,25.22l0 0.01z"/>
  <path class="fil0" d="M13328.18 19443.66c-23.65,129.28 -52.03,290.1 -64.64,359.46 -12.62,69.37 -25.23,137.17 -28.38,151.36 -6.31,33.1 83.55,52.03 140.31,29.95 42.57,-15.76 52.03,-45.72 93.02,-283.78 15.77,-81.98 37.84,-204.96 50.45,-272.75 14.19,-66.22 18.92,-135.59 14.19,-154.51 -11.03,-34.68 -66.22,-61.48 -124.55,-61.48 -34.68,0 -39.41,12.61 -80.4,231.75z"/>
 </g>
</svg>
