<?xml version="1.0" standalone="no"?>
<!DOCTYPE svg PUBLIC "-//W3C//DTD SVG 20010904//EN"
 "http://www.w3.org/TR/2001/REC-SVG-20010904/DTD/svg10.dtd">
<svg version="1.0" xmlns="http://www.w3.org/2000/svg"
 width="1280.000000pt" height="1280.000000pt" viewBox="0 0 1280.000000 1280.000000"
 preserveAspectRatio="xMidYMid meet">

<g transform="translate(0.000000,1280.000000) scale(0.100000,-0.100000)"
fill="#000000" stroke="none">


<path d="M5229 8825 c-474 -95 -920 -551 -1109 -1135 -78 -238 -105 -425 -105
-705 1 -293 27 -453 131 -820 98 -343 104 -369 104 -485 -1 -58 -5 -139 -10
-180 -5 -41 -14 -128 -20 -193 -10 -109 -10 -119 8 -141 20 -26 35 -23 80 18
66 59 92 202 99 556 6 276 -4 410 -62 865 -8 66 -22 212 -31 325 -33 409 17
702 174 1017 97 194 229 386 361 526 36 38 117 107 181 155 63 47 148 110 188
140 59 45 96 77 80 71 -2 -1 -33 -7 -69 -14z"/>
<path d="M7560 7824 c-81 -15 -165 -41 -236 -75 -84 -39 -164 -106 -164 -137
0 -9 14 -34 31 -55 80 -98 260 -197 434 -241 93 -24 145 -30 430 -56 259 -23
319 -76 417 -359 68 -199 170 -432 375 -861 132 -274 207 -449 214 -498 4 -21
-9 -30 -99 -77 -319 -167 -687 -287 -1037 -340 -139 -21 -436 -30 -571 -17
-395 38 -706 172 -934 402 -191 192 -301 406 -366 705 -49 228 -48 611 2 900
14 77 21 125 19 125 -2 0 -18 -26 -37 -57 -136 -232 -215 -489 -273 -893 -29
-206 -36 -248 -51 -340 -61 -376 -126 -570 -264 -795 -23 -39 -50 -83 -59
-100 -9 -16 -18 -32 -21 -35 -5 -5 -70 -129 -70 -134 0 -3 48 2 165 14 146 16
491 40 575 40 112 0 361 -27 469 -50 337 -74 602 -240 829 -521 87 -107 144
-145 249 -163 37 -6 36 -9 57 116 8 47 26 118 40 158 70 204 181 290 436 344
251 52 294 64 530 141 203 66 323 110 695 258 160 63 333 130 385 148 52 17
97 33 99 35 11 9 -107 207 -333 554 -250 384 -385 704 -456 1080 l-10 55 -60
1 c-73 1 -101 18 -130 80 -39 79 -162 234 -258 326 -145 138 -305 227 -517
291 -93 28 -113 30 -290 33 -104 1 -201 0 -215 -2z"/>
<path d="M3987 4512 c-23 -25 -21 -32 6 -32 12 0 30 12 40 25 18 25 18 25 -6
25 -13 0 -31 -8 -40 -18z"/>
<path d="M3200 4325 l0 -135 25 0 c23 0 25 3 25 50 0 34 4 50 13 50 7 0 30
-22 51 -50 31 -40 44 -50 68 -50 32 0 32 3 -14 61 -32 42 -34 49 -14 49 23 0
39 29 39 72 0 33 -6 47 -27 65 -23 19 -38 23 -97 23 l-69 0 0 -135z m128 76
c8 -4 12 -19 10 -32 -2 -20 -9 -24 -45 -27 -42 -3 -43 -2 -43 27 0 16 6 32 13
34 19 8 51 7 65 -2z"/>
<path d="M3440 4325 l0 -135 90 0 c89 0 90 0 90 25 0 24 -2 25 -65 25 l-65 0
0 30 0 30 60 0 c57 0 60 1 60 25 0 24 -3 25 -60 25 l-60 0 0 30 0 30 65 0 c63
0 65 1 65 25 0 25 -1 25 -90 25 l-90 0 0 -135z"/>
<path d="M3660 4325 l0 -135 25 0 c23 0 25 4 25 45 l0 45 44 0 c61 0 96 29 96
80 0 21 -3 46 -6 55 -11 27 -60 45 -124 45 l-60 0 0 -135z m113 76 c13 -5 27
-17 30 -25 9 -24 -28 -56 -63 -56 -28 0 -30 2 -30 39 0 48 17 59 63 42z"/>
<path d="M3890 4354 c0 -103 1 -106 29 -135 39 -39 105 -41 145 -4 14 13 26
30 27 37 0 7 2 33 5 58 3 25 2 69 -1 98 -6 47 -9 52 -31 52 -24 0 -24 -1 -24
-104 0 -111 -2 -116 -54 -116 -39 0 -46 18 -46 122 0 98 0 98 -25 98 l-25 0 0
-106z"/>
<path d="M4150 4325 l0 -135 60 0 c64 0 113 18 124 45 10 27 7 59 -8 81 -10
13 -11 25 -5 35 16 25 10 59 -16 84 -21 22 -33 25 -90 25 l-65 0 0 -135z m120
75 c23 -15 -1 -44 -39 -48 -29 -3 -31 -1 -31 27 0 27 3 31 28 31 15 0 34 -5
42 -10z m11 -106 c20 -24 -1 -48 -45 -52 -35 -3 -36 -2 -36 32 0 34 2 36 34
36 18 0 39 -7 47 -16z"/>
<path d="M4380 4325 l0 -135 85 0 c84 0 85 0 85 25 0 24 -3 25 -60 25 l-60 0
0 110 0 110 -25 0 -25 0 0 -135z"/>
<path d="M4580 4325 l0 -135 25 0 25 0 0 135 0 135 -25 0 -25 0 0 -135z"/>
<path d="M4706 4435 c-24 -22 -26 -30 -26 -104 0 -95 4 -107 41 -126 42 -22
90 -19 124 10 25 21 28 26 15 35 -8 6 -24 7 -35 4 -11 -4 -36 -7 -55 -8 l-35
-1 0 80 c0 76 1 80 23 83 13 2 37 -2 54 -9 24 -10 32 -9 44 3 14 14 13 18 -12
37 -38 30 -103 29 -138 -4z"/>
<path d="M4967 4443 c-3 -10 -23 -70 -46 -133 -23 -63 -41 -116 -41 -117 0 -2
13 -3 29 -3 25 0 31 5 36 30 6 28 10 30 52 30 41 0 46 -3 56 -30 8 -22 18 -30
35 -30 29 0 27 11 -26 160 -34 93 -41 105 -64 108 -18 2 -27 -2 -31 -15z m47
-96 l14 -47 -30 0 c-22 0 -29 4 -25 14 3 8 9 31 13 51 8 43 10 42 28 -18z"/>
<path d="M3867 3910 c-133 -24 -276 -89 -365 -165 -97 -84 -187 -239 -227
-393 -42 -165 -40 -401 6 -556 92 -312 338 -496 662 -496 112 0 188 15 274 55
133 61 217 177 248 341 18 90 18 94 5 94 -5 0 -12 -17 -15 -37 -37 -219 -152
-345 -348 -379 -280 -49 -502 115 -589 436 -20 76 -23 107 -23 295 1 169 4
223 18 275 42 153 99 268 181 366 88 104 236 160 359 135 33 -7 75 -20 92 -28
108 -56 195 -173 254 -343 38 -109 43 -120 52 -120 10 0 12 216 2 378 -6 112
-17 137 -38 90 -15 -35 -52 -37 -125 -10 -161 60 -311 82 -423 62z"/>
<path d="M5825 3904 c-139 -21 -155 -24 -155 -33 0 -5 15 -12 34 -15 38 -7 81
-51 94 -94 4 -15 7 -313 7 -662 0 -587 -1 -638 -18 -670 -20 -41 -63 -70 -101
-70 -14 0 -26 -4 -26 -10 0 -5 7 -10 15 -10 20 -1 354 -1 401 0 41 0 38 15 -4
23 -43 9 -87 50 -100 95 -9 29 -12 234 -12 751 l0 711 -22 -1 c-13 -1 -63 -7
-113 -15z"/>
<path d="M6329 3891 c-78 -78 9 -209 103 -154 85 49 46 183 -53 183 -11 0 -34
-13 -50 -29z"/>
<path d="M4993 3300 c-124 -25 -269 -144 -331 -271 -66 -136 -66 -300 0 -438
40 -85 150 -197 230 -234 174 -82 386 -43 522 96 185 189 199 474 34 674 -122
147 -280 207 -455 173z m149 -20 c54 -15 130 -89 167 -162 146 -296 49 -727
-176 -779 -72 -16 -136 5 -197 68 -71 72 -107 152 -132 288 -32 183 0 351 96
490 60 87 146 121 242 95z"/>
<path d="M6430 3305 c-8 -2 -68 -11 -132 -20 -65 -10 -118 -20 -118 -24 0 -4
19 -13 42 -21 91 -32 101 -84 96 -475 -3 -203 -8 -299 -17 -320 -19 -47 -51
-75 -93 -81 -44 -8 -51 -24 -10 -25 101 -3 415 1 420 5 3 3 -4 8 -14 12 -60
19 -93 39 -110 67 -18 30 -19 58 -22 460 -2 326 -6 427 -15 426 -7 -1 -19 -3
-27 -4z"/>
<path d="M6930 3301 c-111 -34 -172 -124 -172 -253 0 -60 4 -76 32 -121 36
-59 60 -79 221 -183 143 -93 164 -122 164 -230 0 -58 -4 -77 -25 -106 -33 -48
-72 -70 -129 -71 -100 -2 -192 92 -243 246 l-23 72 -3 -154 c-1 -85 0 -156 3
-159 3 -3 13 2 23 11 25 23 42 21 115 -9 78 -32 193 -37 247 -9 48 24 108 82
133 130 32 62 35 174 7 249 -31 82 -84 130 -230 207 -81 42 -134 77 -155 102
-111 129 20 323 167 247 70 -36 115 -94 137 -177 21 -76 30 -47 24 75 -3 64
-7 119 -9 121 -2 2 -16 -2 -30 -9 -21 -12 -31 -12 -57 -1 -75 30 -144 38 -197
22z"/>
<path d="M7780 3295 c-140 -40 -249 -149 -301 -302 -33 -94 -33 -266 -1 -368
67 -220 254 -336 492 -306 87 11 147 40 198 95 36 40 89 152 77 164 -7 7 -7 7
-39 -61 -45 -94 -145 -146 -255 -133 -178 21 -291 165 -319 406 -5 47 -7 102
-5 123 l5 37 299 0 299 0 0 29 c0 16 -9 58 -20 94 -43 139 -151 223 -297 232
-53 3 -96 0 -133 -10z m190 -42 c50 -35 96 -125 106 -205 l6 -58 -222 0 -223
0 7 47 c7 56 43 137 79 179 66 78 168 93 247 37z"/>
<path d="M8350 3281 c0 -5 13 -12 28 -16 44 -9 91 -42 104 -73 9 -18 14 -136
18 -367 5 -328 6 -342 27 -382 84 -157 364 -172 513 -27 20 19 39 34 43 34 4
0 7 -24 7 -52 0 -70 9 -81 56 -76 155 19 224 33 224 45 0 7 -11 13 -24 13 -34
0 -83 45 -97 88 -8 25 -13 169 -16 430 l-5 392 -144 0 c-135 0 -179 -9 -116
-25 49 -12 92 -48 101 -85 16 -58 23 -415 12 -537 -15 -164 -41 -215 -136
-259 -92 -44 -203 -20 -252 54 -38 57 -43 116 -43 492 l0 360 -150 0 c-85 0
-150 -4 -150 -9z"/>
<path d="M2912 11043 c35 -68 66 -123 70 -123 4 0 18 10 32 23 l26 22 -95 100
-95 100 62 -122z"/>
<path d="M10083 11018 c-48 -62 -116 -148 -151 -192 -61 -76 -62 -79 -45 -99
28 -31 62 -40 88 -23 36 24 265 326 265 350 0 20 -46 76 -62 76 -4 0 -46 -51
-95 -112z"/>
<path d="M2343 10833 l-31 -27 110 -120 c61 -67 138 -149 171 -184 l60 -63 28
27 c55 52 52 58 -148 272 -125 133 -136 139 -190 95z"/>
<path d="M1384 9739 c-19 -10 -61 -67 -52 -73 1 -1 38 -25 80 -54 43 -29 81
-52 86 -52 5 0 17 15 27 33 27 51 15 78 -54 120 -32 21 -61 37 -63 36 -1 0
-12 -5 -24 -10z"/>
<path d="M11625 9116 c-66 -22 -122 -42 -124 -44 -3 -1 3 -18 13 -38 15 -33
18 -35 36 -23 10 8 59 42 109 77 50 35 91 65 91 68 0 2 -1 3 -2 3 -2 -1 -57
-20 -123 -43z"/>
<path d="M12070 8273 c-47 -14 -87 -27 -89 -29 -11 -10 21 -82 41 -91 26 -11
131 16 156 41 17 17 8 106 -11 105 -7 0 -50 -12 -97 -26z"/>
<path d="M12080 7703 c-95 -6 -99 -8 -90 -49 5 -19 10 -37 12 -38 1 -2 57 18
123 45 l120 48 -55 -1 c-30 -1 -80 -3 -110 -5z"/>
<path d="M3808 1343 c-14 -27 -63 -120 -108 -208 -46 -88 -87 -165 -92 -172
-7 -8 0 -17 21 -27 39 -21 74 -20 93 2 9 9 57 97 108 194 63 122 90 184 85
197 -5 17 -61 61 -77 61 -3 0 -16 -21 -30 -47z"/>
<path d="M7882 1024 c-34 -24 -33 -30 69 -367 34 -110 56 -135 103 -117 51 19
50 41 -15 262 -60 203 -77 238 -118 238 -9 0 -27 -7 -39 -16z"/>
<path d="M5435 733 c-15 -82 -33 -184 -41 -228 -8 -44 -16 -87 -18 -96 -4 -21
53 -33 89 -19 27 10 33 29 59 180 10 52 24 130 32 173 9 42 12 86 9 98 -7 22
-42 39 -79 39 -22 0 -25 -8 -51 -147z"/>
</g>
</svg>
