<?xml version="1.0" encoding="UTF-8"?>
<!DOCTYPE svg PUBLIC "-//W3C//DTD SVG 1.1//EN" "http://www.w3.org/Graphics/SVG/1.1/DTD/svg11.dtd">
<!-- Creator: CorelDRAW 2020 (64 Bit) -->
<svg xmlns="http://www.w3.org/2000/svg" xml:space="preserve" width="297mm" height="210mm" version="1.1" style="shape-rendering:geometricPrecision; text-rendering:geometricPrecision; image-rendering:optimizeQuality; fill-rule:evenodd; clip-rule:evenodd"
viewBox="0 0 29700 21000"
 xmlns:xlink="http://www.w3.org/1999/xlink"
 xmlns:xodm="http://www.corel.com/coreldraw/odm/2003">
 <defs>
  <style type="text/css">
   <![CDATA[
    .str0 {stroke:#FF2E34;stroke-width:20;stroke-miterlimit:22.9256}
    .fil1 {fill:black;fill-rule:nonzero}
    .fil0 {fill:#FF2E34;fill-rule:nonzero}
   ]]>
  </style>
 </defs>
 <g id="Camada_x0020_1">
  <metadata id="CorelCorpID_0Corel-Layer"/>
  <path class="fil0 str0" d="M15007.24 3504.36c-22.07,1.58 -116.66,11.03 -212.83,20.49 -94.6,7.89 -198.65,18.92 -228.61,23.65 -29.96,4.73 -104.05,15.77 -165.54,25.23 -138.74,20.49 -252.26,42.56 -323.2,61.48 -29.96,7.89 -129.28,33.11 -220.73,56.76 -91.44,22.07 -186.03,47.3 -212.83,53.6 -25.23,7.88 -72.53,20.5 -102.49,28.38 -64.64,18.92 -198.65,63.06 -244.37,81.98 -17.34,6.31 -74.1,28.38 -126.12,47.3 -122.98,45.72 -140.32,52.03 -247.53,100.9 -50.45,22.07 -108.78,44.14 -130.86,50.45 -22.07,4.73 -39.41,15.77 -39.41,23.65 0,7.88 -7.88,14.19 -18.92,14.19 -25.22,0 -286.94,130.86 -293.24,145.05 -3.16,7.88 -12.62,12.61 -20.5,12.61 -7.88,0 -59.91,28.38 -116.67,61.49 -56.76,34.68 -115.09,66.21 -132.43,72.52 -15.77,4.73 -48.87,26.8 -74.1,47.3 -25.23,22.07 -55.18,39.41 -64.64,39.41 -11.04,0 -20.5,6.3 -20.5,15.77 0,7.88 -9.46,15.76 -18.92,15.76 -11.03,0 -66.21,34.69 -122.97,78.83 -56.76,42.57 -110.36,77.25 -121.4,78.83 -9.46,0 -20.49,4.73 -23.65,12.61 -1.58,6.31 -47.29,44.15 -99.32,81.98 -151.36,113.52 -323.2,258.57 -323.2,271.18 0,6.3 -6.31,12.61 -14.19,12.61 -7.88,0 -42.57,28.38 -77.25,63.06 -33.11,34.69 -66.22,63.07 -72.53,63.07 -12.61,0 -220.72,208.11 -283.78,283.78 -25.23,29.96 -100.91,113.52 -168.7,186.04 -69.37,70.95 -124.55,135.59 -124.55,141.89 0,6.31 -15.76,28.38 -36.26,50.45 -36.26,39.42 -170.27,216 -215.99,283.79 -12.61,18.92 -31.54,44.15 -39.42,53.6 -42.56,47.3 -354.73,553.38 -354.73,575.46 0,7.88 -4.73,17.34 -11.03,20.49 -7.88,1.58 -34.69,50.45 -63.06,107.21 -26.81,56.76 -81.99,167.12 -119.82,247.52 -39.42,78.83 -75.68,160.81 -81.99,181.31 -6.3,20.5 -25.22,67.79 -42.56,107.21 -48.88,111.94 -56.76,129.28 -77.26,197.07 -11.03,34.69 -25.22,69.37 -31.53,78.83 -9.46,14.19 -50.45,145.05 -77.25,252.25 -7.88,25.23 -28.38,104.06 -47.3,173.43 -37.84,135.59 -45.72,176.58 -93.02,441.45 -63.06,340.54 -83.56,520.27 -118.24,977.48 -29.96,394.14 -29.96,690.55 0,1064.2 28.38,376.8 59.91,565.99 132.43,827.7 9.46,34.69 23.65,91.44 31.54,126.13 7.88,34.68 28.37,119.82 47.29,189.19 18.92,69.37 42.57,160.81 53.6,204.95 28.38,110.36 94.6,234.92 141.9,266.44 37.84,23.66 40.99,23.66 40.99,0 0,-14.18 -11.04,-69.36 -25.23,-122.97 -14.19,-52.03 -31.53,-127.7 -37.84,-167.12 -6.3,-39.41 -28.37,-138.73 -45.72,-220.72 -72.52,-318.47 -89.86,-439.87 -113.51,-827.71 -17.35,-291.67 -6.31,-635.36 33.1,-1056.31 23.65,-236.49 88.29,-627.48 111.94,-673.2 7.88,-14.19 14.19,-42.57 14.19,-61.49 0,-18.92 14.19,-85.13 31.53,-146.62 48.88,-168.69 126.13,-422.52 141.9,-458.78 63.06,-156.09 78.83,-198.65 78.83,-219.15 0,-14.19 7.88,-25.22 15.76,-25.22 9.46,0 15.77,-12.62 15.77,-28.38 0,-15.77 6.31,-34.69 12.61,-44.15 7.89,-7.88 23.65,-39.41 34.69,-69.37 29.95,-78.83 145.04,-321.62 156.08,-331.08 4.73,-4.73 22.07,-33.11 36.26,-63.06 64.64,-130.86 271.17,-471.4 340.54,-559.69 6.31,-9.46 28.38,-42.57 48.88,-75.67 20.49,-33.11 44.14,-67.8 53.6,-78.83 11.03,-9.47 39.41,-50.46 66.22,-89.87 25.22,-39.41 70.94,-96.17 97.74,-126.12 28.38,-29.96 52.03,-59.92 52.03,-66.22 0,-6.31 17.35,-28.38 39.42,-50.45 22.07,-22.08 39.41,-47.3 39.41,-55.18 0,-9.46 9.46,-22.08 20.49,-28.38 9.47,-6.31 50.46,-52.03 89.87,-99.33 39.41,-47.29 85.13,-104.05 102.48,-124.55 66.22,-77.25 304.28,-313.74 433.56,-427.25 74.1,-64.64 154.51,-137.17 181.31,-160.81 25.22,-25.23 56.75,-44.15 67.79,-44.15 9.46,0 18.92,-4.73 18.92,-12.61 0,-6.3 26.8,-28.38 59.91,-50.45 31.53,-22.07 61.48,-44.15 66.22,-48.87 4.72,-4.73 81.98,-58.34 173.42,-118.25 212.84,-138.73 223.88,-146.62 250.68,-159.23 12.61,-6.31 58.34,-33.11 102.48,-63.07 44.15,-28.38 88.29,-52.03 97.75,-52.03 11.03,0 22.07,-6.3 25.22,-14.19 7.89,-20.49 545.5,-277.48 734.69,-350 18.92,-7.88 53.6,-22.07 78.83,-31.53 154.5,-64.64 277.48,-107.21 444.6,-156.09 39.41,-12.61 77.25,-26.8 86.71,-34.68 7.88,-6.31 33.11,-12.61 56.76,-12.61 23.65,0 47.29,-6.31 52.03,-14.19 4.72,-7.88 31.53,-17.35 59.91,-22.07 28.38,-4.73 83.56,-17.35 122.97,-26.8 39.42,-9.47 93.02,-22.08 118.25,-25.23 26.8,-4.73 61.48,-14.19 78.83,-22.07 17.34,-6.31 85.13,-20.5 149.77,-31.53 64.64,-9.47 132.43,-22.08 149.78,-25.23 134.01,-29.95 430.41,-45.72 851.36,-45.72 515.54,0 808.79,22.07 1166.67,86.71 52.03,9.46 134.01,23.65 181.31,29.96 130.86,20.49 521.85,124.55 654.28,175 17.35,7.88 56.76,22.07 86.72,31.53 138.73,50.45 446.17,208.11 488.74,252.25 4.73,4.73 26.8,20.5 52.03,36.27 55.18,34.68 53.6,48.87 -9.46,110.36 -52.03,53.6 -256.99,215.99 -269.6,215.99 -4.73,0 -53.6,33.11 -110.36,74.1 -55.18,42.57 -140.31,102.48 -186.04,135.59 -256.98,186.04 -578.6,509.24 -657.43,660.59 -12.61,25.22 -28.38,44.14 -36.27,44.14 -6.3,0 -12.61,7.89 -12.61,18.92 0,9.46 -14.19,34.69 -33.1,53.6l-33.11 36.27 31.53 34.68c18.92,18.92 47.3,42.57 64.64,52.03 15.77,9.46 89.87,58.33 162.39,110.36 70.95,50.45 141.89,96.17 154.51,100.9 12.61,4.73 26.8,12.61 31.53,17.35 4.73,6.3 40.99,26.8 83.56,47.29 40.99,20.5 74.1,44.15 74.1,52.03 0,6.31 7.88,12.61 18.92,12.61 9.46,0 42.57,18.92 74.1,42.57 31.53,25.22 70.95,52.03 89.86,61.49 18.92,9.46 47.3,29.95 63.07,44.14 17.34,14.19 75.67,63.06 130.85,107.21 135.59,108.79 389.42,362.62 471.41,469.82 36.26,47.3 100.9,132.44 143.47,187.62 42.56,55.18 86.71,119.82 99.32,141.89 11.04,22.08 31.54,53.61 44.15,69.37 31.53,36.26 108.78,168.7 121.4,203.38 4.72,15.77 14.18,28.38 20.49,28.38 6.31,0 23.65,26.8 37.84,58.33 25.22,61.49 74.1,148.2 89.86,162.39 4.73,4.73 31.54,50.45 59.92,102.48 28.37,52.03 58.33,100.9 66.21,108.79 7.89,9.46 14.19,28.38 14.19,44.14 0,15.77 6.31,28.38 12.62,28.38 34.68,0 113.51,285.37 113.51,409.91 0,74.11 4.73,94.6 23.65,94.6 17.34,0 22.07,-11.03 15.77,-36.26 -4.73,-18.92 -18.92,-99.33 -31.54,-176.58 -48.87,-320.05 -148.2,-644.82 -269.59,-897.08 -12.61,-25.22 -22.08,-55.18 -22.08,-67.79 0,-11.03 -6.3,-20.5 -15.76,-20.5 -7.89,0 -15.77,-7.88 -15.77,-17.34 0,-23.65 -184.46,-342.12 -222.3,-381.53 -15.77,-17.35 -29.96,-40.99 -29.96,-52.03 0,-11.04 -6.3,-22.08 -12.61,-25.23 -7.88,-3.15 -47.29,-47.29 -89.86,-99.32 -108.79,-135.59 -266.44,-294.82 -402.03,-406.76 -64.64,-53.6 -121.4,-100.9 -126.13,-105.63 -22.07,-22.08 -149.77,-115.09 -283.78,-204.96 -81.98,-55.18 -152.93,-104.05 -157.66,-108.78 -4.73,-6.31 -47.3,-34.69 -94.6,-64.65 -107.21,-67.79 -157.66,-116.66 -157.66,-151.35 0,-45.72 94.6,-182.88 195.5,-280.63 99.32,-99.32 119.82,-116.67 214.41,-182.88 29.96,-20.5 58.34,-42.57 63.07,-47.3 36.26,-37.84 433.56,-230.18 622.75,-299.55 52.03,-18.92 108.78,-40.99 126.12,-47.3 17.35,-7.88 48.88,-17.34 70.95,-22.07 22.07,-3.16 67.79,-15.77 102.48,-25.22 332.66,-94.6 834.01,-148.2 1072.08,-111.94 52.03,7.88 122.98,18.92 159.24,23.65l64.64 9.46 -17.35 -64.64c-22.07,-81.98 -290.09,-359.46 -482.43,-501.35 -74.1,-53.61 -146.62,-107.21 -162.39,-119.82 -14.19,-12.62 -31.53,-23.65 -36.26,-23.65 -4.73,0 -40.99,-22.08 -80.41,-47.3 -37.84,-26.8 -72.52,-47.3 -75.67,-47.3 -4.73,0 -55.18,-29.95 -113.52,-64.64 -105.63,-64.64 -490.32,-263.29 -643.24,-331.08 -269.6,-119.82 -397.3,-171.85 -420.96,-171.85 -15.76,0 -28.37,-7.88 -28.37,-15.76 0,-9.47 -12.62,-15.77 -29.96,-15.77 -15.77,0 -67.79,-14.19 -113.51,-33.11 -47.3,-18.92 -99.33,-39.41 -116.67,-45.72 -17.35,-6.31 -56.76,-22.07 -86.72,-34.69 -29.95,-14.19 -80.4,-29.95 -110.36,-34.68 -29.95,-6.31 -94.59,-25.22 -141.89,-39.41 -47.3,-15.77 -118.24,-37.84 -157.66,-48.88 -39.41,-11.03 -86.71,-25.22 -107.21,-33.1 -20.49,-7.89 -56.75,-14.19 -81.98,-14.19 -25.22,0 -48.87,-6.31 -53.6,-14.19 -4.73,-6.31 -34.68,-17.35 -67.79,-23.65 -33.11,-4.73 -94.6,-15.77 -138.74,-25.23 -313.74,-63.06 -692.12,-94.59 -1135.14,-91.44 -208.11,0 -395.72,4.73 -417.8,7.89l-0.02 -0.02z"/>
  <path class="fil1" d="M13003.4 6685.91c-747.3,149.78 -1450.46,868.71 -1748.44,1789.43 -122.97,375.23 -165.54,670.05 -165.54,1111.5 1.58,461.94 42.57,714.19 206.53,1292.8 154.51,540.77 163.97,581.76 163.97,764.64 -1.58,91.44 -7.89,219.15 -15.77,283.79 -7.88,64.64 -22.07,201.8 -31.53,304.28 -15.77,171.85 -15.77,187.61 12.61,222.3 31.53,40.99 55.18,36.26 126.12,-28.38 104.06,-93.02 145.05,-318.47 156.09,-876.58 9.46,-435.14 -6.31,-646.4 -97.75,-1363.75 -12.61,-104.05 -34.68,-334.24 -48.87,-512.39 -52.03,-644.83 26.8,-1106.77 274.32,-1603.39 152.93,-305.86 361.04,-608.56 569.15,-829.29 56.76,-59.91 184.46,-168.69 285.36,-244.37 99.33,-74.1 233.34,-173.43 296.4,-220.72 93.02,-70.95 151.35,-121.4 126.13,-111.94 -3.16,1.58 -52.03,11.04 -108.79,22.07l0.01 0z"/>
  <path class="fil1" d="M16678.43 8264.08c-127.71,23.65 -260.14,64.64 -372.08,118.24 -132.43,61.48 -258.56,167.11 -258.56,215.99 0,14.19 22.07,53.6 48.87,86.72 126.13,154.5 409.91,310.58 684.24,379.95 146.62,37.84 228.61,47.3 677.93,88.29 408.34,36.26 502.93,119.82 657.44,566 107.21,313.74 268.02,681.08 591.22,1357.44 208.11,431.99 326.35,707.89 337.39,785.14 6.3,33.11 -14.19,47.3 -156.08,121.4 -502.94,263.29 -1083.12,452.48 -1634.93,536.04 -219.14,33.1 -687.39,47.29 -900.23,26.8 -622.75,-59.92 -1113.07,-271.18 -1472.53,-633.79 -301.13,-302.71 -474.55,-640.1 -577.03,-1111.5 -77.26,-359.46 -75.68,-963.29 3.15,-1418.93 22.07,-121.39 33.11,-197.07 29.96,-197.07 -3.16,0 -28.38,40.99 -58.34,89.87 -214.41,365.76 -338.96,770.95 -430.4,1407.89 -45.73,324.78 -56.76,391 -80.41,536.04 -96.17,592.79 -198.65,898.65 -416.22,1253.38 -36.26,61.49 -78.83,130.86 -93.02,157.66 -14.19,25.23 -28.38,50.46 -33.1,55.18 -7.89,7.89 -110.36,203.38 -110.36,211.27 0,4.72 75.67,-3.16 260.13,-22.08 230.19,-25.22 774.11,-63.06 906.54,-63.06 176.58,0 569.15,42.57 739.42,78.83 531.31,116.67 949.1,378.38 1306.99,821.4 137.17,168.7 227.03,228.61 392.57,256.99 58.34,9.46 56.76,14.19 89.87,-182.89 12.61,-74.1 40.99,-186.04 63.06,-249.1 110.36,-321.62 285.36,-457.21 687.39,-542.35 395.72,-81.98 463.52,-100.9 835.59,-222.3 320.05,-104.05 509.24,-173.42 1095.73,-406.76 252.26,-99.32 525.01,-204.95 606.99,-233.33 81.98,-26.8 152.92,-52.03 156.08,-55.18 17.34,-14.19 -168.69,-326.36 -525,-873.43 -394.15,-605.41 -606.99,-1109.92 -718.93,-1702.72l-15.77 -86.71 -94.59 -1.58c-115.09,-1.58 -159.24,-28.38 -204.96,-126.12 -61.48,-124.55 -255.41,-368.93 -406.76,-513.97 -228.61,-217.57 -480.86,-357.89 -815.1,-458.79 -146.62,-44.14 -178.15,-47.3 -457.21,-52.03 -163.96,-1.58 -316.89,0 -338.96,3.16l0.01 0.01z"/>
  <path class="fil1" d="M11045.28 13485.74c-36.26,39.41 -33.11,50.45 9.46,50.45 18.92,0 47.29,-18.92 63.06,-39.41 28.38,-39.42 28.38,-39.42 -9.46,-39.42 -20.49,0 -48.87,12.62 -63.06,28.38l0 0z"/>
  <path class="fil1" d="M9804.5 13780.56l0 212.84 39.42 0c36.26,0 39.41,-4.73 39.41,-78.83 0,-53.6 6.3,-78.83 20.49,-78.83 11.04,0 47.3,34.68 80.41,78.83 48.88,63.06 69.37,78.83 107.21,78.83 50.45,0 50.45,-4.73 -22.07,-96.17 -50.45,-66.22 -53.6,-77.25 -22.08,-77.25 36.27,0 61.49,-45.73 61.49,-113.52 0,-52.03 -9.46,-74.1 -42.57,-102.48 -36.26,-29.95 -59.91,-36.26 -152.93,-36.26l-108.78 0 0 212.84 0 0zm201.81 -119.82c12.61,6.3 18.92,29.96 15.77,50.45 -3.16,31.53 -14.19,37.84 -70.95,42.57 -66.22,4.73 -67.79,3.15 -67.79,-42.57 0,-25.22 9.46,-50.45 20.49,-53.6 29.96,-12.61 80.41,-11.04 102.48,3.15l0 0z"/>
  <path class="fil1" d="M10182.89 13780.56l0 212.84 141.89 0c140.31,0 141.89,0 141.89,-39.41 0,-37.84 -3.15,-39.42 -102.48,-39.42l-102.48 0 0 -47.29 0 -47.3 94.6 0c89.86,0 94.59,-1.58 94.59,-39.41 0,-37.84 -4.72,-39.41 -94.59,-39.41l-94.6 0 0 -47.3 0 -47.3 102.48 0c99.33,0 102.48,-1.57 102.48,-39.41 0,-39.41 -1.58,-39.41 -141.89,-39.41l-141.89 0 0 212.84 0 -0.02z"/>
  <path class="fil1" d="M10529.73 13780.56l0 212.84 39.42 0c36.26,0 39.41,-6.31 39.41,-70.95l0 -70.94 69.37 0c96.17,0 151.35,-45.73 151.35,-126.13 0,-33.11 -4.73,-72.52 -9.46,-86.71 -17.34,-42.57 -94.59,-70.95 -195.49,-70.95l-94.6 0 0 212.84 0 0zm178.16 -119.82c20.49,7.88 42.57,26.8 47.3,39.41 14.19,37.84 -44.15,88.29 -99.33,88.29 -44.14,0 -47.3,-3.15 -47.3,-61.48 0,-75.68 26.81,-93.02 99.33,-66.22z"/>
  <path class="fil1" d="M10892.35 13734.84c0,162.38 1.58,167.11 45.72,212.84 61.49,61.48 165.55,64.64 228.61,6.3 22.07,-20.49 40.99,-47.29 42.57,-58.33 0,-11.04 3.15,-52.03 7.88,-91.45 4.73,-39.41 3.16,-108.78 -1.58,-154.5 -9.46,-74.1 -14.19,-81.98 -48.87,-81.98 -37.84,0 -37.84,1.58 -37.84,163.97 0,175 -3.16,182.88 -85.14,182.88 -61.48,0 -72.52,-28.38 -72.52,-192.35 0,-154.5 0,-154.5 -39.41,-154.5l-39.42 0 0 167.12 0 0z"/>
  <path class="fil1" d="M11302.26 13780.56l0 212.84 94.6 0c100.9,0 178.15,-28.38 195.49,-70.95 15.77,-42.57 11.04,-93.02 -12.61,-127.7 -15.76,-20.5 -17.34,-39.41 -7.88,-55.18 25.22,-39.41 15.77,-93.02 -25.22,-132.43 -33.11,-34.69 -52.03,-39.42 -141.9,-39.42l-102.48 0 0 212.84 0 0zm189.19 -118.24c36.26,23.65 -1.58,69.37 -61.48,75.67 -45.73,4.73 -48.88,1.58 -48.88,-42.57 0,-42.56 4.73,-48.87 44.15,-48.87 23.65,0 53.6,7.88 66.22,15.77l-0.01 0zm17.35 167.11c31.53,37.84 -1.58,75.68 -70.95,81.98 -55.18,4.73 -56.76,3.16 -56.76,-50.45 0,-53.6 3.16,-56.76 53.6,-56.76 28.38,0 61.49,11.04 74.11,25.23l0 0z"/>
  <path class="fil1" d="M11664.88 13780.56l0 212.84 134.01 0c132.43,0 134.01,0 134.01,-39.41 0,-37.84 -4.73,-39.42 -94.6,-39.42l-94.6 0 0 -173.42 0 -173.43 -39.41 0 -39.41 0 0 212.84z"/>
  <polygon class="fil1" points="11980.19,13780.56 11980.19,13993.4 12019.61,13993.4 12059.02,13993.4 12059.02,13780.56 12059.02,13567.72 12019.61,13567.72 11980.19,13567.72 "/>
  <path class="fil1" d="M12178.84 13607.13c-37.84,34.69 -40.99,47.3 -40.99,163.97 0,149.77 6.31,168.69 64.64,198.65 66.22,34.68 141.9,29.95 195.5,-15.77 39.41,-33.11 44.14,-40.99 23.65,-55.18 -12.61,-9.46 -37.84,-11.03 -55.18,-6.3 -17.35,6.3 -56.76,11.03 -86.71,12.61l-55.18 1.58 0 -126.13c0,-119.82 1.57,-126.13 36.26,-130.86 20.49,-3.15 58.33,3.16 85.13,14.19 37.84,15.77 50.46,14.19 69.37,-4.73 22.08,-22.07 20.5,-28.38 -18.91,-58.33 -59.92,-47.3 -162.39,-45.73 -217.57,6.3l-0.01 0z"/>
  <path class="fil1" d="M12590.33 13594.52c-4.73,15.77 -36.26,110.36 -72.52,209.68 -36.26,99.33 -64.64,182.89 -64.64,184.47 0,3.15 20.49,4.72 45.72,4.72 39.41,0 48.87,-7.88 56.76,-47.29 9.46,-44.15 15.76,-47.3 81.98,-47.3 64.64,0 72.52,4.73 88.29,47.3 12.61,34.68 28.38,47.29 55.18,47.29 45.72,0 42.57,-17.34 -40.99,-252.25 -53.6,-146.62 -64.64,-165.54 -100.9,-170.27 -28.38,-3.15 -42.57,3.16 -48.88,23.65zm74.1 151.35l22.08 74.11 -47.3 0c-34.68,0 -45.72,-6.31 -39.41,-22.08 4.73,-12.61 14.19,-48.87 20.49,-80.4 12.61,-67.8 15.77,-66.22 44.15,28.37l-0.01 0z"/>
  <path class="fil1" d="M10856.09 14434.84c-209.69,37.84 -435.14,140.32 -575.46,260.14 -152.92,132.43 -294.82,376.8 -357.88,619.6 -66.22,260.14 -63.07,632.21 9.46,876.58 145.05,491.9 532.88,781.99 1043.7,781.99 176.58,0 296.4,-23.65 431.98,-86.71 209.69,-96.17 342.12,-279.06 391,-537.62 28.38,-141.89 28.38,-148.2 7.88,-148.2 -7.88,0 -18.92,26.8 -23.65,58.34 -58.33,345.27 -239.64,543.92 -548.65,597.52 -441.45,77.26 -791.45,-181.3 -928.61,-687.39 -31.54,-119.82 -36.27,-168.69 -36.27,-465.09 1.58,-266.44 6.31,-351.58 28.38,-433.56 66.22,-241.22 156.09,-422.52 285.37,-577.03 138.73,-163.97 372.07,-252.26 565.99,-212.84 52.03,11.03 118.24,31.53 145.05,44.14 170.27,88.29 307.43,272.75 400.45,540.77 59.92,171.85 67.8,189.19 81.98,189.19 15.77,0 18.92,-340.54 3.16,-595.95 -9.46,-176.58 -26.8,-215.99 -59.91,-141.89 -23.65,55.18 -81.98,58.33 -197.07,15.77 -253.83,-94.6 -490.32,-129.29 -666.9,-97.75l0 -0.01z"/>
  <path class="fil1" d="M13943.05 14444.3c-219.15,33.11 -244.38,37.84 -244.38,52.03 0,7.88 23.66,18.92 53.61,23.65 59.91,11.03 127.7,80.41 148.2,148.2 6.3,23.65 11.03,493.47 11.03,1043.7 0,925.46 -1.58,1005.86 -28.38,1056.31 -31.53,64.64 -99.32,110.36 -159.24,110.36 -22.07,0 -40.99,6.31 -40.99,15.77 0,7.88 11.04,15.77 23.65,15.77 31.54,1.57 558.11,1.57 632.22,0 64.64,0 59.91,-23.65 -6.31,-36.27 -67.79,-14.19 -137.16,-78.83 -157.66,-149.77 -14.19,-45.73 -18.92,-368.92 -18.92,-1184.02l0 -1120.95 -34.68 1.57c-20.5,1.58 -99.33,11.04 -178.16,23.65l0.01 0z"/>
  <path class="fil1" d="M14737.65 14464.8c-122.98,122.98 14.19,329.51 162.39,242.8 134.01,-77.26 72.52,-288.52 -83.56,-288.52 -17.35,0 -53.6,20.5 -78.83,45.72l0 0z"/>
  <path class="fil1" d="M12631.33 15396.56c-195.5,39.41 -424.1,227.03 -521.85,427.26 -104.05,214.41 -104.05,472.97 0,690.54 63.06,134.01 236.49,310.59 362.61,368.93 274.33,129.28 608.57,67.79 822.98,-151.36 291.67,-297.97 313.75,-747.3 53.61,-1062.62 -192.35,-231.75 -441.45,-326.35 -717.35,-272.75zm234.91 31.53c85.14,23.65 204.96,140.32 263.29,255.41 230.18,466.67 77.25,1146.18 -277.48,1228.16 -113.51,25.23 -214.42,-7.88 -310.59,-107.2 -111.93,-113.52 -168.69,-239.64 -208.11,-454.06 -50.45,-288.52 0,-553.38 151.36,-772.53 94.59,-137.16 230.18,-190.77 381.53,-149.78z"/>
  <path class="fil1" d="M14896.88 15388.68c-12.61,3.15 -107.21,17.34 -208.11,31.53 -102.48,15.77 -186.04,31.53 -186.04,37.84 0,6.31 29.96,20.5 66.22,33.11 143.47,50.45 159.24,132.43 151.35,748.87 -4.72,320.05 -12.61,471.41 -26.8,504.51 -29.95,74.1 -80.4,118.25 -146.62,127.71 -69.37,12.61 -80.41,37.84 -15.77,39.41 159.24,4.73 654.29,-1.58 662.17,-7.88 4.73,-4.73 -6.3,-12.62 -22.07,-18.92 -94.6,-29.96 -146.62,-61.49 -173.43,-105.63 -28.37,-47.3 -29.95,-91.44 -34.68,-725.23 -3.16,-513.97 -9.46,-673.21 -23.65,-671.63 -11.04,1.58 -29.96,4.73 -42.57,6.31z"/>
  <path class="fil1" d="M15685.18 15394.98c-175,53.6 -271.18,195.5 -271.18,398.88 0,94.6 6.31,119.82 50.45,190.77 56.76,93.02 94.6,124.55 348.43,288.51 225.45,146.62 258.56,192.35 258.56,362.62 0,91.44 -6.3,121.39 -39.41,167.11 -52.03,75.68 -113.52,110.36 -203.38,111.94 -157.66,3.16 -302.7,-145.05 -383.11,-387.84l-36.26 -113.51 -4.73 242.79c-1.58,134.01 0,245.95 4.73,250.68 4.73,4.73 20.49,-3.15 36.26,-17.34 39.41,-36.27 66.22,-33.11 181.31,14.19 122.97,50.45 304.28,58.33 389.41,14.19 75.68,-37.84 170.27,-129.29 209.69,-204.96 50.45,-97.75 55.18,-274.33 11.03,-392.57 -48.87,-129.28 -132.43,-204.96 -362.62,-326.36 -127.7,-66.21 -211.26,-121.39 -244.37,-160.81 -175,-203.37 31.54,-509.23 263.29,-389.41 110.36,56.75 181.31,148.2 216,279.05 33.1,119.82 47.29,74.11 37.84,-118.24 -4.73,-100.9 -11.04,-187.61 -14.19,-190.77 -3.16,-3.15 -25.23,3.16 -47.3,14.19 -33.11,18.92 -48.87,18.92 -89.86,1.58 -118.25,-47.29 -227.03,-59.91 -310.59,-34.68l0 -0.01z"/>
  <path class="fil1" d="M17025.27 15404.44c-220.72,63.07 -392.57,234.92 -474.55,476.13 -52.03,148.2 -52.03,419.38 -1.58,580.19 105.64,346.85 400.46,529.73 775.69,482.43 137.16,-17.34 231.75,-63.06 312.16,-149.77 56.76,-63.07 140.32,-239.64 121.4,-258.57 -11.03,-11.03 -11.03,-11.03 -61.49,96.17 -70.94,148.2 -228.6,230.19 -402.02,209.69 -280.64,-33.11 -458.79,-260.14 -502.94,-640.1 -7.88,-74.1 -11.03,-160.81 -7.88,-193.92l7.88 -58.33 471.41 0 471.4 0 0 -45.73c0,-25.22 -14.19,-91.44 -31.54,-148.2 -67.79,-219.14 -238.06,-351.57 -468.24,-365.76 -83.56,-4.73 -151.36,0 -209.69,15.77l-0.01 0zm299.56 66.22c78.83,55.18 151.35,197.07 167.11,323.2l9.46 91.44 -350 0 -351.58 0 11.04 -74.1c11.03,-88.29 67.79,-215.99 124.55,-282.21 104.05,-122.97 264.86,-146.62 389.41,-58.33l0.01 0z"/>
  <path class="fil1" d="M17923.93 15426.52c0,7.88 20.5,18.91 44.15,25.22 69.37,14.19 143.47,66.22 163.96,115.09 14.19,28.38 22.08,214.42 28.38,578.61 7.89,517.12 9.46,539.19 42.57,602.25 132.43,247.53 573.88,271.18 808.79,42.57 31.53,-29.95 61.49,-53.6 67.79,-53.6 6.31,0 11.04,37.84 11.04,81.98 0,110.36 14.18,127.7 88.29,119.82 244.37,-29.96 353.15,-52.03 353.15,-70.95 0,-11.03 -17.34,-20.49 -37.84,-20.49 -53.6,0 -130.86,-70.95 -152.93,-138.74 -12.61,-39.41 -20.49,-266.44 -25.22,-677.93l-7.88 -618.02 -227.03 0c-212.84,0 -282.21,14.19 -182.88,39.41 77.25,18.92 145.04,75.67 159.23,134.01 25.23,91.44 36.26,654.28 18.92,846.63 -23.65,258.56 -64.64,338.96 -214.42,408.33 -145.04,69.37 -320.04,31.54 -397.3,-85.13 -59.91,-89.87 -67.79,-182.89 -67.79,-775.69l0 -567.57 -236.49 0c-134.01,0 -236.49,6.31 -236.49,14.19l0 0.01z"/>
 </g>
</svg>
