<svg width="181" height="180" viewBox="0 0 181 180" fill="none" xmlns="http://www.w3.org/2000/svg">
<path d="M95.5364 0.138449C95.1777 0.165402 93.6402 0.327121 92.077 0.48884C90.5395 0.623605 88.8483 0.812277 88.3614 0.893137C87.8745 0.973996 86.6702 1.16267 85.6708 1.32439C83.4158 1.67478 81.5708 2.05212 80.4177 2.37556C79.9308 2.51032 78.3164 2.94157 76.8302 3.34587C75.3439 3.72321 73.8064 4.15446 73.3708 4.26228C72.9608 4.39704 72.192 4.61267 71.7052 4.74743C70.6545 5.07087 68.4764 5.82556 67.7333 6.149C67.4514 6.25681 66.5289 6.63415 65.6833 6.95759C63.6845 7.73923 63.4027 7.84704 61.6602 8.68259C60.8402 9.05993 59.892 9.43728 59.5333 9.54509C59.1745 9.62595 58.8927 9.81462 58.8927 9.94939C58.8927 10.0842 58.7645 10.192 58.5852 10.192C58.1752 10.192 53.9214 12.4291 53.8189 12.6717C53.7677 12.8064 53.6139 12.8873 53.4858 12.8873C53.3577 12.8873 52.512 13.3724 51.5895 13.9385C50.667 14.5314 49.7189 15.0705 49.437 15.1783C49.1808 15.2592 48.6427 15.6365 48.2327 15.9869C47.8227 16.3642 47.3358 16.6607 47.182 16.6607C47.0027 16.6607 46.8489 16.7685 46.8489 16.9302C46.8489 17.065 46.6952 17.1998 46.5414 17.1998C46.362 17.1998 45.4652 17.7927 44.5427 18.5474C43.6202 19.2752 42.7489 19.8681 42.5695 19.8951C42.4158 19.8951 42.2364 19.976 42.1852 20.1107C42.1595 20.2185 41.4164 20.8654 40.5708 21.5123C38.1108 23.4529 35.3177 25.9326 35.3177 26.1482C35.3177 26.256 35.2152 26.3638 35.087 26.3638C34.9589 26.3638 34.3952 26.849 33.8314 27.442C33.2933 28.0349 32.7552 28.5201 32.6527 28.5201C32.4477 28.5201 29.0652 32.0779 28.0402 33.3717C27.6302 33.8838 26.4002 35.3123 25.2983 36.5521C24.1708 37.765 23.2739 38.8701 23.2739 38.9779C23.2739 39.0857 23.0177 39.4631 22.6845 39.8404C22.0952 40.5142 19.917 43.533 19.1739 44.692C18.9689 45.0154 18.6614 45.4467 18.5333 45.6084C17.8414 46.417 12.7677 55.0689 12.7677 55.4463C12.7677 55.581 12.6908 55.7428 12.5883 55.7967C12.4602 55.8236 12.0245 56.6592 11.5633 57.6295C11.1277 58.5998 10.2308 60.4865 9.61578 61.8611C8.97516 63.2088 8.38578 64.6103 8.28328 64.9607C8.18078 65.3111 7.87328 66.1197 7.59141 66.7935C6.79703 68.7072 6.66891 69.0037 6.33578 70.1627C6.15641 70.7556 5.92578 71.3486 5.82328 71.5103C5.66953 71.7529 5.00328 73.99 4.56766 75.8228C4.43953 76.2541 4.10641 77.6017 3.79891 78.7877C3.18391 81.1056 3.05578 81.8064 2.28703 86.3345C1.26203 92.1564 0.928906 95.2291 0.365156 103.045C-0.121719 109.784 -0.121719 114.851 0.365156 121.239C0.826406 127.681 1.33891 130.915 2.51766 135.389C2.67141 135.982 2.90203 136.953 3.03016 137.545C3.15828 138.138 3.49141 139.594 3.79891 140.78C4.10641 141.966 4.49078 143.529 4.67016 144.284C5.13141 146.17 6.20766 148.3 6.97641 148.839C7.59141 149.243 7.64266 149.243 7.64266 148.839C7.64266 148.596 7.46328 147.653 7.23266 146.737C7.00203 145.847 6.72016 144.553 6.61766 143.879C6.51516 143.206 6.15641 141.508 5.87453 140.106C4.69578 134.662 4.41391 132.586 4.02953 125.956C3.74766 120.969 3.92703 115.094 4.56766 107.897C4.95203 103.854 6.00266 97.1697 6.38703 96.3881C6.51516 96.1455 6.61766 95.6603 6.61766 95.3369C6.61766 95.0135 6.84828 93.8814 7.13016 92.8303C7.92453 89.9463 9.18016 85.6068 9.43641 84.9869C10.4614 82.3185 10.7177 81.5908 10.7177 81.2404C10.7177 80.9978 10.8458 80.8092 10.9739 80.8092C11.1277 80.8092 11.2302 80.5935 11.2302 80.324C11.2302 80.0545 11.3327 79.731 11.4352 79.5693C11.5633 79.4345 11.8195 78.8955 11.9989 78.3834C12.4858 77.0357 14.3564 72.8849 14.5358 72.7232C14.6127 72.6424 14.8945 72.1572 15.1252 71.6451C16.1758 69.408 19.5327 63.5861 20.6602 62.0767C20.7627 61.915 21.1214 61.349 21.4545 60.783C21.7877 60.217 22.172 59.624 22.3258 59.4353C22.5052 59.2736 22.9664 58.5728 23.402 57.899C23.812 57.2252 24.5552 56.2549 24.9908 55.7428C25.452 55.2306 25.8364 54.7185 25.8364 54.6107C25.8364 54.5029 26.1183 54.1256 26.477 53.7482C26.8358 53.3709 27.1177 52.9396 27.1177 52.8049C27.1177 52.6431 27.2714 52.4275 27.4508 52.3197C27.6045 52.2119 28.2708 51.4303 28.9114 50.6217C29.552 49.8131 30.2952 48.8427 30.577 48.4924C31.6533 47.1717 35.5227 43.1287 37.6239 41.1881C38.8283 40.083 40.1352 38.8431 40.5708 38.4388C40.9808 38.0076 41.4933 37.6842 41.6727 37.6842C41.8264 37.6842 41.9802 37.6033 41.9802 37.4685C41.9802 37.3607 42.4158 36.9834 42.9539 36.606C43.4664 36.2287 43.9533 35.8513 44.0302 35.7705C44.107 35.6896 45.3627 34.7732 46.8489 33.749C50.3083 31.3771 50.4877 31.2424 50.9233 31.0267C51.1283 30.9189 51.8714 30.4607 52.5889 29.9486C53.3064 29.4635 54.0239 29.0592 54.1777 29.0592C54.357 29.0592 54.5364 28.9513 54.5877 28.8166C54.7158 28.4662 63.4539 24.0728 66.5289 22.833C66.8364 22.6982 67.4002 22.4556 67.8102 22.2939C70.3214 21.1888 72.3202 20.4611 75.0364 19.6256C75.677 19.4099 76.292 19.1674 76.4458 19.0326C76.5739 18.9248 76.9839 18.817 77.3683 18.817C77.7527 18.817 78.137 18.7092 78.2139 18.5744C78.2908 18.4396 78.7264 18.2779 79.1877 18.197C79.6489 18.1162 80.5458 17.9006 81.1864 17.7388C81.827 17.5771 82.6983 17.3615 83.1083 17.3076C83.5439 17.2267 84.1077 17.065 84.3895 16.9302C84.6714 16.8224 85.7733 16.5799 86.8239 16.3912C87.8745 16.2295 88.9764 16.0138 89.2583 15.9599C91.4364 15.4478 96.2539 15.1783 103.096 15.1783C111.475 15.1783 116.241 15.5556 122.058 16.6607C122.904 16.8224 124.236 17.065 125.005 17.1728C127.132 17.5232 133.487 19.3021 135.64 20.1646C135.921 20.2994 136.562 20.542 137.049 20.7037C139.304 21.5662 144.301 24.2615 144.993 25.0162C145.07 25.097 145.428 25.3666 145.838 25.6361C146.735 26.2291 146.71 26.4717 145.685 27.5228C144.839 28.4392 141.508 31.2154 141.303 31.2154C141.226 31.2154 140.431 31.7814 139.509 32.4822C138.612 33.2099 137.228 34.2342 136.485 34.8002C132.308 37.9806 127.081 43.506 125.8 46.0935C125.595 46.5248 125.338 46.8482 125.21 46.8482C125.108 46.8482 125.005 46.983 125.005 47.1717C125.005 47.3334 124.775 47.7646 124.467 48.0881L123.929 48.708L124.441 49.301C124.749 49.6244 125.21 50.0287 125.492 50.1904C125.748 50.3521 126.953 51.1877 128.131 52.0771C129.285 52.9396 130.438 53.7213 130.643 53.8021C130.848 53.883 131.078 54.0178 131.155 54.0986C131.232 54.2064 131.821 54.5568 132.513 54.9072C133.18 55.2576 133.718 55.6619 133.718 55.7967C133.718 55.9045 133.846 56.0123 134.025 56.0123C134.179 56.0123 134.717 56.3357 135.23 56.74C135.742 57.1713 136.383 57.6295 136.69 57.7912C136.998 57.9529 137.459 58.3033 137.715 58.5459C137.997 58.7885 138.945 59.624 139.842 60.3787C142.046 62.2385 146.171 66.5779 147.504 68.4107C148.093 69.2193 149.144 70.6748 149.836 71.6181C150.528 72.5615 151.245 73.6666 151.45 74.0439C151.63 74.4213 151.963 74.9603 152.168 75.2299C152.68 75.8498 153.936 78.1138 154.141 78.7068C154.218 78.9763 154.371 79.192 154.474 79.192C154.576 79.192 154.858 79.6502 155.089 80.1892C155.499 81.2404 156.293 82.7228 156.55 82.9654C156.626 83.0463 157.062 83.8279 157.523 84.7174C157.985 85.6068 158.471 86.4424 158.6 86.5771C158.728 86.7388 158.83 87.0623 158.83 87.3318C158.83 87.6013 158.933 87.817 159.035 87.817C159.599 87.817 160.88 92.6955 160.88 94.8248C160.88 96.0916 160.957 96.442 161.265 96.442C161.546 96.442 161.623 96.2533 161.521 95.8221C161.444 95.4986 161.213 94.124 161.008 92.8033C160.214 87.3318 158.6 81.7795 156.626 77.467C156.421 77.0357 156.268 76.5236 156.268 76.308C156.268 76.1193 156.165 75.9576 156.011 75.9576C155.883 75.9576 155.755 75.8228 155.755 75.6611C155.755 75.2568 152.757 69.8123 152.142 69.1385C151.886 68.842 151.655 68.4377 151.655 68.249C151.655 68.0603 151.553 67.8717 151.45 67.8178C151.322 67.7638 150.681 67.0092 149.99 66.1197C148.221 63.8017 145.659 61.0795 143.455 59.1658C142.405 58.2494 141.482 57.4408 141.405 57.3599C141.046 56.9826 138.971 55.3924 136.793 53.856C135.46 52.9127 134.307 52.0771 134.23 51.9963C134.153 51.8885 133.461 51.4033 132.693 50.8912C130.95 49.7322 130.13 48.8967 130.13 48.3037C130.13 47.522 131.668 45.1771 133.308 43.506C134.922 41.808 135.255 41.5115 136.793 40.3795C137.28 40.0291 137.741 39.6517 137.818 39.5709C138.407 38.924 144.865 35.6357 147.94 34.4498C148.785 34.1263 149.708 33.749 149.99 33.6412C150.271 33.5064 150.784 33.3447 151.143 33.2638C151.501 33.2099 152.245 32.9943 152.808 32.8326C158.215 31.2154 166.364 30.299 170.233 30.9189C171.079 31.0537 172.232 31.2424 172.821 31.3232L173.872 31.4849L173.59 30.3799C173.231 28.9783 168.875 24.2345 165.749 21.8088C164.545 20.8924 163.366 19.976 163.11 19.7603C162.879 19.5447 162.597 19.356 162.52 19.356C162.443 19.356 161.854 18.9787 161.213 18.5474C160.598 18.0892 160.035 17.7388 159.983 17.7388C159.906 17.7388 159.086 17.2267 158.138 16.6338C156.421 15.5287 150.169 12.1326 147.683 10.9736C143.301 8.92517 141.226 8.03572 140.841 8.03572C140.585 8.03572 140.38 7.90095 140.38 7.76618C140.38 7.60447 140.175 7.49665 139.893 7.49665C139.637 7.49665 138.791 7.25407 138.048 6.93064C137.28 6.6072 136.434 6.25681 136.152 6.149C135.87 6.04118 135.23 5.77165 134.743 5.55603C134.256 5.31345 133.436 5.04392 132.949 4.96306C132.462 4.85525 131.411 4.53181 130.643 4.28923C129.874 4.0197 128.721 3.64236 128.08 3.45368C127.44 3.26501 126.671 3.02243 126.338 2.88767C126.005 2.7529 125.415 2.64509 125.005 2.64509C124.595 2.64509 124.211 2.53728 124.134 2.40251C124.057 2.2947 123.57 2.10603 123.032 1.99821C122.494 1.91736 121.495 1.72868 120.777 1.56696C115.678 0.48884 109.528 -0.0502229 102.327 0.00368331C98.9445 0.00368331 95.8952 0.0845427 95.5364 0.138449Z" fill="#770F0F"/>
<path d="M62.967 54.5298C50.8208 57.0904 39.392 69.381 34.5489 85.1216C32.5502 91.5365 31.8583 96.5767 31.8583 104.124C31.8839 112.021 32.5502 116.333 35.2152 126.225C37.7264 135.47 37.8802 136.171 37.8802 139.297C37.8545 140.861 37.752 143.044 37.6239 144.149C37.4958 145.254 37.2652 147.599 37.1114 149.351C36.8552 152.289 36.8552 152.558 37.3164 153.151C37.8289 153.852 38.2133 153.771 39.3664 152.666C41.0577 151.076 41.7239 147.222 41.9033 137.68C42.057 130.241 41.8008 126.629 40.3145 114.366C40.1095 112.587 39.7508 108.652 39.5202 105.606C38.6745 94.5822 39.9558 86.6849 43.9789 78.1947C46.4645 72.9658 49.847 67.7908 53.2295 64.0173C54.152 62.9931 56.2277 61.1334 57.8677 59.8396C59.482 58.5728 61.6602 56.8748 62.6852 56.0662C64.197 54.8533 65.1452 53.9908 64.7352 54.1525C64.6839 54.1795 63.8895 54.3412 62.967 54.5298Z" fill="black"/>
<path d="M122.699 81.5099C120.623 81.9142 118.471 82.615 116.651 83.5314C114.499 84.5826 112.449 86.3884 112.449 87.224C112.449 87.4666 112.808 88.1404 113.243 88.7064C115.293 91.3478 119.906 94.0162 124.365 95.2021C126.748 95.849 128.08 96.0107 135.383 96.7115C142.02 97.3314 143.558 98.7599 146.069 106.388C147.811 111.751 150.425 118.031 155.678 129.594C159.061 136.979 160.983 141.696 161.162 143.017C161.265 143.583 160.931 143.826 158.625 145.092C150.451 149.594 141.021 152.828 132.052 154.256C128.49 154.822 120.88 155.065 117.42 154.715C107.298 153.69 99.3289 150.079 93.4864 143.879C88.592 138.704 85.7733 132.936 84.1077 124.878C82.852 118.732 82.8777 108.409 84.1589 100.62C84.5177 98.5443 84.697 97.2506 84.6458 97.2506C84.5945 97.2506 84.1845 97.9513 83.6977 98.7869C80.2127 105.04 78.1883 111.967 76.702 122.856C75.9589 128.408 75.7795 129.54 75.3952 132.02C73.832 142.154 72.1664 147.383 68.6302 153.448C68.0408 154.499 67.3489 155.685 67.1183 156.143C66.8877 156.574 66.657 157.006 66.5802 157.086C66.452 157.221 64.7864 160.563 64.7864 160.698C64.7864 160.779 66.0164 160.644 69.0145 160.321C72.7558 159.89 81.5964 159.243 83.7489 159.243C86.6189 159.243 92.9995 159.97 95.767 160.59C104.403 162.585 111.193 167.059 117.01 174.633C119.24 177.517 120.7 178.541 123.391 179.026C124.339 179.188 124.313 179.269 124.851 175.9C125.056 174.633 125.518 172.719 125.876 171.641C127.67 166.143 130.515 163.825 137.049 162.369C143.481 160.968 144.583 160.644 150.63 158.569C155.832 156.79 158.907 155.604 168.44 151.615C172.54 149.917 176.973 148.111 178.305 147.626C179.638 147.168 180.791 146.736 180.842 146.683C181.124 146.44 178.1 141.103 172.309 131.751C165.903 121.401 162.443 112.776 160.624 102.641L160.368 101.159L158.83 101.132C156.96 101.105 156.242 100.647 155.499 98.9756C154.5 96.8463 151.348 92.6685 148.888 90.1888C145.172 86.4693 141.072 84.0705 135.64 82.3455C133.256 81.5908 132.744 81.5369 128.208 81.456C125.543 81.4291 123.058 81.456 122.699 81.5099Z" fill="black"/>
</svg>
